<?xml version='1.0' encoding='utf-8'?>
<svg width="1600" height="1000" viewBox="0 0 1600 1000" xmlns="http://www.w3.org/2000/svg"><defs><radialGradient id="paint0"><stop stop-color="#234746" /><stop offset="1" stop-color="#091f25" /></radialGradient></defs><rect width="1600" height="1000" fill="url(#paint0)" /><rect x="32" y="32" width="1536" height="936" rx="3" fill="none" stroke="#b4a277" stroke-opacity=".45" /><circle cx="1112.4" cy="210.1" r="1.4" fill="#e4c388" opacity="0.53" /><circle cx="126.2" cy="528.7" r="1.2" fill="#e4c388" opacity="0.36" /><circle cx="376.9" cy="457.4" r="0.6" fill="#e4c388" opacity="0.43" /><circle cx="796.0" cy="79.6" r="0.8" fill="#e4c388" opacity="0.36" /><circle cx="107.3" cy="409.6" r="1.0" fill="#e4c388" opacity="0.52" /><circle cx="1397.7" cy="606.0" r="0.7" fill="#e4c388" opacity="0.50" /><circle cx="822.9" cy="841.3" r="0.6" fill="#e4c388" opacity="0.19" /><circle cx="826.8" cy="335.0" r="1.4" fill="#e4c388" opacity="0.44" /><circle cx="1158.0" cy="183.0" r="0.6" fill="#e4c388" opacity="0.26" /><circle cx="826.9" cy="481.6" r="1.4" fill="#e4c388" opacity="0.17" /><circle cx="1371.3" cy="464.0" r="0.4" fill="#e4c388" opacity="0.39" /><circle cx="84.6" cy="670.9" r="1.4" fill="#e4c388" opacity="0.19" /><circle cx="930.8" cy="675.4" r="0.8" fill="#e4c388" opacity="0.31" /><circle cx="1385.1" cy="534.8" r="1.5" fill="#e4c388" opacity="0.37" /><circle cx="263.5" cy="602.6" r="1.3" fill="#e4c388" opacity="0.36" /><circle cx="66.7" cy="647.2" r="1.1" fill="#e4c388" opacity="0.42" /><circle cx="358.9" cy="769.8" r="0.9" fill="#e4c388" opacity="0.14" /><circle cx="703.4" cy="640.9" r="1.3" fill="#e4c388" opacity="0.40" /><circle cx="1184.4" cy="483.1" r="1.4" fill="#e4c388" opacity="0.25" /><circle cx="1239.1" cy="462.5" r="0.4" fill="#e4c388" opacity="0.42" /><circle cx="995.6" cy="78.5" r="1.2" fill="#e4c388" opacity="0.12" /><circle cx="384.0" cy="828.4" r="1.4" fill="#e4c388" opacity="0.14" /><circle cx="864.7" cy="310.8" r="0.4" fill="#e4c388" opacity="0.51" /><circle cx="1507.4" cy="590.3" r="0.8" fill="#e4c388" opacity="0.41" /><circle cx="880.3" cy="165.1" r="1.3" fill="#e4c388" opacity="0.20" /><circle cx="449.1" cy="562.8" r="1.1" fill="#e4c388" opacity="0.34" /><circle cx="218.8" cy="280.5" r="1.5" fill="#e4c388" opacity="0.43" /><circle cx="446.2" cy="346.9" r="1.6" fill="#e4c388" opacity="0.19" /><circle cx="1016.4" cy="441.8" r="1.4" fill="#e4c388" opacity="0.17" /><circle cx="1103.1" cy="581.6" r="1.2" fill="#e4c388" opacity="0.16" /><circle cx="1491.3" cy="559.0" r="0.5" fill="#e4c388" opacity="0.57" /><circle cx="1178.0" cy="138.9" r="1.0" fill="#e4c388" opacity="0.17" /><circle cx="1441.8" cy="491.9" r="0.6" fill="#e4c388" opacity="0.59" /><circle cx="89.0" cy="390.5" r="0.6" fill="#e4c388" opacity="0.13" /><circle cx="1421.6" cy="603.2" r="1.2" fill="#e4c388" opacity="0.53" /><circle cx="1397.4" cy="656.9" r="1.4" fill="#e4c388" opacity="0.24" /><circle cx="560.9" cy="140.6" r="1.0" fill="#e4c388" opacity="0.57" /><circle cx="763.2" cy="675.6" r="0.7" fill="#e4c388" opacity="0.27" /><circle cx="937.4" cy="279.7" r="0.6" fill="#e4c388" opacity="0.39" /><circle cx="1386.1" cy="224.6" r="1.6" fill="#e4c388" opacity="0.46" /><circle cx="1073.5" cy="299.4" r="1.4" fill="#e4c388" opacity="0.12" /><circle cx="414.7" cy="500.7" r="1.0" fill="#e4c388" opacity="0.50" /><circle cx="866.7" cy="476.2" r="0.6" fill="#e4c388" opacity="0.27" /><circle cx="299.6" cy="701.5" r="1.2" fill="#e4c388" opacity="0.30" /><circle cx="569.1" cy="251.1" r="1.0" fill="#e4c388" opacity="0.28" /><circle cx="889.7" cy="690.9" r="1.5" fill="#e4c388" opacity="0.34" /><circle cx="231.6" cy="114.8" r="1.3" fill="#e4c388" opacity="0.46" /><circle cx="1529.3" cy="650.0" r="1.2" fill="#e4c388" opacity="0.56" /><circle cx="1506.0" cy="309.8" r="0.7" fill="#e4c388" opacity="0.16" /><circle cx="1334.9" cy="308.1" r="1.5" fill="#e4c388" opacity="0.54" /><circle cx="1048.9" cy="862.0" r="0.7" fill="#e4c388" opacity="0.45" /><circle cx="577.9" cy="713.9" r="1.6" fill="#e4c388" opacity="0.40" /><circle cx="793.1" cy="127.7" r="1.0" fill="#e4c388" opacity="0.49" /><circle cx="106.5" cy="151.8" r="1.3" fill="#e4c388" opacity="0.43" /><circle cx="1499.8" cy="396.8" r="1.3" fill="#e4c388" opacity="0.57" /><circle cx="154.0" cy="843.4" r="1.0" fill="#e4c388" opacity="0.58" /><circle cx="1290.1" cy="384.4" r="0.5" fill="#e4c388" opacity="0.22" /><circle cx="785.3" cy="748.2" r="1.1" fill="#e4c388" opacity="0.57" /><circle cx="196.7" cy="835.3" r="1.1" fill="#e4c388" opacity="0.39" /><circle cx="286.5" cy="154.4" r="1.2" fill="#e4c388" opacity="0.41" /><circle cx="1183.0" cy="302.6" r="1.5" fill="#e4c388" opacity="0.59" /><circle cx="393.0" cy="449.8" r="1.3" fill="#e4c388" opacity="0.50" /><circle cx="1517.4" cy="166.7" r="0.6" fill="#e4c388" opacity="0.25" /><circle cx="145.6" cy="665.5" r="0.6" fill="#e4c388" opacity="0.59" /><circle cx="184.3" cy="471.7" r="1.3" fill="#e4c388" opacity="0.45" /><circle cx="748.4" cy="403.4" r="1.0" fill="#e4c388" opacity="0.50" /><circle cx="456.3" cy="830.2" r="0.7" fill="#e4c388" opacity="0.52" /><circle cx="971.6" cy="779.7" r="1.2" fill="#e4c388" opacity="0.47" /><circle cx="156.3" cy="825.4" r="0.7" fill="#e4c388" opacity="0.52" /><circle cx="1033.2" cy="690.8" r="1.5" fill="#e4c388" opacity="0.44" /><circle cx="1362.1" cy="156.9" r="1.2" fill="#e4c388" opacity="0.21" /><circle cx="1437.6" cy="561.4" r="0.6" fill="#e4c388" opacity="0.28" /><circle cx="413.0" cy="160.1" r="0.6" fill="#e4c388" opacity="0.33" /><circle cx="970.3" cy="844.3" r="0.7" fill="#e4c388" opacity="0.48" /><circle cx="799.8" cy="595.9" r="0.7" fill="#e4c388" opacity="0.47" /><circle cx="1276.2" cy="620.6" r="1.0" fill="#e4c388" opacity="0.59" /><circle cx="452.0" cy="211.4" r="0.8" fill="#e4c388" opacity="0.39" /><circle cx="326.8" cy="381.7" r="1.5" fill="#e4c388" opacity="0.22" /><circle cx="244.9" cy="214.1" r="1.2" fill="#e4c388" opacity="0.46" /><circle cx="944.5" cy="116.7" r="0.7" fill="#e4c388" opacity="0.55" /><circle cx="915.9" cy="165.0" r="0.7" fill="#e4c388" opacity="0.56" /><circle cx="325.0" cy="829.6" r="1.2" fill="#e4c388" opacity="0.56" /><circle cx="696.2" cy="345.1" r="0.5" fill="#e4c388" opacity="0.48" /><circle cx="1333.6" cy="105.1" r="0.6" fill="#e4c388" opacity="0.56" /><circle cx="886.4" cy="530.0" r="1.1" fill="#e4c388" opacity="0.46" /><circle cx="269.8" cy="86.2" r="1.0" fill="#e4c388" opacity="0.42" /><circle cx="336.6" cy="702.5" r="0.5" fill="#e4c388" opacity="0.43" /><circle cx="453.9" cy="685.4" r="1.0" fill="#e4c388" opacity="0.18" /><circle cx="80.6" cy="418.9" r="0.4" fill="#e4c388" opacity="0.33" /><circle cx="459.5" cy="121.1" r="0.4" fill="#e4c388" opacity="0.52" /><circle cx="713.3" cy="640.8" r="1.4" fill="#e4c388" opacity="0.16" /><circle cx="1482.0" cy="391.6" r="1.2" fill="#e4c388" opacity="0.32" /><circle cx="838.6" cy="98.4" r="1.2" fill="#e4c388" opacity="0.58" /><circle cx="419.1" cy="108.7" r="1.5" fill="#e4c388" opacity="0.20" /><circle cx="1063.1" cy="617.1" r="1.4" fill="#e4c388" opacity="0.21" /><circle cx="419.6" cy="380.7" r="0.5" fill="#e4c388" opacity="0.32" /><circle cx="1466.4" cy="435.2" r="0.7" fill="#e4c388" opacity="0.52" /><circle cx="732.8" cy="670.1" r="1.3" fill="#e4c388" opacity="0.15" /><circle cx="999.6" cy="288.8" r="1.5" fill="#e4c388" opacity="0.23" /><circle cx="110.6" cy="239.2" r="0.7" fill="#e4c388" opacity="0.31" /><circle cx="953.5" cy="269.6" r="0.8" fill="#e4c388" opacity="0.28" /><circle cx="1501.1" cy="300.6" r="1.3" fill="#e4c388" opacity="0.31" /><circle cx="279.3" cy="557.1" r="0.9" fill="#e4c388" opacity="0.35" /><circle cx="66.6" cy="275.7" r="1.4" fill="#e4c388" opacity="0.45" /><circle cx="567.7" cy="385.4" r="1.1" fill="#e4c388" opacity="0.24" /><circle cx="875.9" cy="294.4" r="1.1" fill="#e4c388" opacity="0.48" /><circle cx="1474.1" cy="75.9" r="1.5" fill="#e4c388" opacity="0.54" /><circle cx="846.0" cy="377.1" r="1.3" fill="#e4c388" opacity="0.42" /><circle cx="549.0" cy="834.0" r="0.9" fill="#e4c388" opacity="0.45" /><circle cx="1168.6" cy="299.0" r="1.5" fill="#e4c388" opacity="0.49" /><circle cx="790.6" cy="437.8" r="0.9" fill="#e4c388" opacity="0.54" /><circle cx="509.0" cy="596.4" r="1.4" fill="#e4c388" opacity="0.38" /><circle cx="221.3" cy="707.8" r="0.9" fill="#e4c388" opacity="0.13" /><circle cx="148.1" cy="627.8" r="1.4" fill="#e4c388" opacity="0.17" /><circle cx="1129.2" cy="575.5" r="1.3" fill="#e4c388" opacity="0.46" /><circle cx="141.5" cy="669.2" r="1.6" fill="#e4c388" opacity="0.38" /><circle cx="803.4" cy="632.6" r="0.9" fill="#e4c388" opacity="0.46" /><circle cx="405.1" cy="850.7" r="1.4" fill="#e4c388" opacity="0.26" /><circle cx="1055.1" cy="458.2" r="0.7" fill="#e4c388" opacity="0.56" /><circle cx="1166.5" cy="458.4" r="1.4" fill="#e4c388" opacity="0.49" /><circle cx="405.5" cy="741.0" r="1.5" fill="#e4c388" opacity="0.55" /><circle cx="140.4" cy="690.4" r="1.5" fill="#e4c388" opacity="0.42" /><circle cx="1470.3" cy="208.7" r="0.6" fill="#e4c388" opacity="0.26" /><circle cx="1447.8" cy="626.7" r="0.6" fill="#e4c388" opacity="0.48" /><circle cx="828.7" cy="438.1" r="0.5" fill="#e4c388" opacity="0.47" /><circle cx="438.7" cy="695.5" r="0.9" fill="#e4c388" opacity="0.15" /><circle cx="113.0" cy="819.4" r="1.1" fill="#e4c388" opacity="0.27" /><circle cx="435.8" cy="858.1" r="1.2" fill="#e4c388" opacity="0.23" /><circle cx="338.8" cy="299.4" r="1.2" fill="#e4c388" opacity="0.43" /><circle cx="805.5" cy="402.1" r="1.5" fill="#e4c388" opacity="0.12" /><circle cx="1139.8" cy="763.2" r="1.3" fill="#e4c388" opacity="0.33" /><circle cx="402.4" cy="105.6" r="1.3" fill="#e4c388" opacity="0.43" /><circle cx="1235.0" cy="493.5" r="0.5" fill="#e4c388" opacity="0.42" /><circle cx="791.7" cy="522.8" r="0.7" fill="#e4c388" opacity="0.23" /><circle cx="916.9" cy="219.4" r="1.3" fill="#e4c388" opacity="0.35" /><circle cx="907.9" cy="328.0" r="1.4" fill="#e4c388" opacity="0.16" /><circle cx="514.4" cy="668.3" r="1.5" fill="#e4c388" opacity="0.41" /><circle cx="1153.0" cy="485.9" r="1.2" fill="#e4c388" opacity="0.20" /><circle cx="122.2" cy="106.9" r="0.7" fill="#e4c388" opacity="0.29" /><circle cx="772.0" cy="155.5" r="0.6" fill="#e4c388" opacity="0.49" /><circle cx="107.3" cy="109.1" r="0.7" fill="#e4c388" opacity="0.21" /><circle cx="1283.8" cy="98.1" r="1.0" fill="#e4c388" opacity="0.41" /><circle cx="763.6" cy="855.3" r="0.7" fill="#e4c388" opacity="0.29" /><circle cx="164.7" cy="316.4" r="0.9" fill="#e4c388" opacity="0.36" /><circle cx="619.5" cy="221.9" r="0.5" fill="#e4c388" opacity="0.43" /><circle cx="326.6" cy="486.8" r="1.0" fill="#e4c388" opacity="0.40" /><circle cx="1273.9" cy="272.7" r="1.4" fill="#e4c388" opacity="0.44" /><circle cx="809.3" cy="621.5" r="1.3" fill="#e4c388" opacity="0.20" /><circle cx="443.9" cy="719.4" r="1.3" fill="#e4c388" opacity="0.38" /><circle cx="569.8" cy="175.0" r="0.9" fill="#e4c388" opacity="0.20" /><circle cx="667.8" cy="299.9" r="1.4" fill="#e4c388" opacity="0.13" /><circle cx="1080.2" cy="714.2" r="0.7" fill="#e4c388" opacity="0.26" /><circle cx="1225.2" cy="395.4" r="1.4" fill="#e4c388" opacity="0.20" /><circle cx="1090.2" cy="741.3" r="0.6" fill="#e4c388" opacity="0.37" /><circle cx="112.1" cy="672.0" r="0.6" fill="#e4c388" opacity="0.14" /><circle cx="380.3" cy="410.1" r="1.6" fill="#e4c388" opacity="0.26" /><circle cx="1319.9" cy="226.2" r="1.3" fill="#e4c388" opacity="0.42" /><circle cx="635.5" cy="200.1" r="1.4" fill="#e4c388" opacity="0.19" /><circle cx="1056.2" cy="440.7" r="1.4" fill="#e4c388" opacity="0.51" /><circle cx="357.1" cy="611.3" r="0.5" fill="#e4c388" opacity="0.26" /><circle cx="1087.1" cy="764.5" r="1.6" fill="#e4c388" opacity="0.56" /><circle cx="1109.9" cy="318.0" r="0.5" fill="#e4c388" opacity="0.47" /><circle cx="346.3" cy="686.2" r="0.4" fill="#e4c388" opacity="0.24" /><circle cx="430.0" cy="465.1" r="1.4" fill="#e4c388" opacity="0.40" /><circle cx="1438.4" cy="247.7" r="0.5" fill="#e4c388" opacity="0.58" /><circle cx="278.9" cy="384.1" r="0.8" fill="#e4c388" opacity="0.15" /><circle cx="324.3" cy="464.0" r="0.4" fill="#e4c388" opacity="0.44" /><circle cx="799.4" cy="704.6" r="0.5" fill="#e4c388" opacity="0.49" /><circle cx="983.9" cy="537.7" r="0.6" fill="#e4c388" opacity="0.40" /><circle cx="1461.3" cy="759.7" r="0.6" fill="#e4c388" opacity="0.38" /><circle cx="883.1" cy="696.6" r="0.5" fill="#e4c388" opacity="0.54" /><circle cx="785.3" cy="648.0" r="1.5" fill="#e4c388" opacity="0.43" /><circle cx="1101.6" cy="71.6" r="0.9" fill="#e4c388" opacity="0.57" /><circle cx="1151.3" cy="401.7" r="1.0" fill="#e4c388" opacity="0.27" /><circle cx="134.2" cy="356.3" r="0.7" fill="#e4c388" opacity="0.13" /><circle cx="630.6" cy="542.9" r="0.8" fill="#e4c388" opacity="0.54" /><circle cx="284.0" cy="843.2" r="0.9" fill="#e4c388" opacity="0.15" /><circle cx="676.1" cy="324.8" r="0.7" fill="#e4c388" opacity="0.30" /><circle cx="1047.8" cy="169.0" r="1.1" fill="#e4c388" opacity="0.43" /><circle cx="985.2" cy="638.0" r="0.6" fill="#e4c388" opacity="0.27" /><path d="M 480.8 895 C 400.8 710 407.2 530 407.2 162.9" fill="none" stroke="#acd1be" stroke-width="1" opacity=".7" /><ellipse cx="426.2" cy="162.9" rx="6" ry="17" transform="rotate(0.0 426.2 162.9)" fill="none" stroke="#acd1be" opacity=".75" /><ellipse cx="419.1" cy="177.8" rx="6" ry="17" transform="rotate(51.4 419.1 177.8)" fill="none" stroke="#acd1be" opacity=".75" /><ellipse cx="403.0" cy="181.4" rx="6" ry="17" transform="rotate(102.9 403.0 181.4)" fill="none" stroke="#acd1be" opacity=".75" /><ellipse cx="390.1" cy="171.2" rx="6" ry="17" transform="rotate(154.3 390.1 171.2)" fill="none" stroke="#acd1be" opacity=".75" /><ellipse cx="390.1" cy="154.7" rx="6" ry="17" transform="rotate(205.7 390.1 154.7)" fill="none" stroke="#acd1be" opacity=".75" /><ellipse cx="403.0" cy="144.4" rx="6" ry="17" transform="rotate(257.1 403.0 144.4)" fill="none" stroke="#acd1be" opacity=".75" /><ellipse cx="419.1" cy="148.1" rx="6" ry="17" transform="rotate(308.6 419.1 148.1)" fill="none" stroke="#acd1be" opacity=".75" /><circle cx="407.2" cy="162.9" r="5" fill="#acd1be" /><path d="M 538.9 895 C 458.9 710 629.8 530 629.8 755.9" fill="none" stroke="#e4c388" stroke-width="1" opacity=".7" /><ellipse cx="648.8" cy="755.9" rx="6" ry="17" transform="rotate(0.0 648.8 755.9)" fill="none" stroke="#e4c388" opacity=".75" /><ellipse cx="641.7" cy="770.7" rx="6" ry="17" transform="rotate(51.4 641.7 770.7)" fill="none" stroke="#e4c388" opacity=".75" /><ellipse cx="625.6" cy="774.4" rx="6" ry="17" transform="rotate(102.9 625.6 774.4)" fill="none" stroke="#e4c388" opacity=".75" /><ellipse cx="612.7" cy="764.1" rx="6" ry="17" transform="rotate(154.3 612.7 764.1)" fill="none" stroke="#e4c388" opacity=".75" /><ellipse cx="612.7" cy="747.6" rx="6" ry="17" transform="rotate(205.7 612.7 747.6)" fill="none" stroke="#e4c388" opacity=".75" /><ellipse cx="625.6" cy="737.3" rx="6" ry="17" transform="rotate(257.1 625.6 737.3)" fill="none" stroke="#e4c388" opacity=".75" /><ellipse cx="641.7" cy="741.0" rx="6" ry="17" transform="rotate(308.6 641.7 741.0)" fill="none" stroke="#e4c388" opacity=".75" /><circle cx="629.8" cy="755.9" r="5" fill="#e4c388" /><path d="M 559.2 895 C 479.2 710 465.9 530 465.9 461.6" fill="none" stroke="#ece5d3" stroke-width="1" opacity=".7" /><ellipse cx="484.9" cy="461.6" rx="6" ry="17" transform="rotate(0.0 484.9 461.6)" fill="none" stroke="#ece5d3" opacity=".75" /><ellipse cx="477.8" cy="476.4" rx="6" ry="17" transform="rotate(51.4 477.8 476.4)" fill="none" stroke="#ece5d3" opacity=".75" /><ellipse cx="461.7" cy="480.1" rx="6" ry="17" transform="rotate(102.9 461.7 480.1)" fill="none" stroke="#ece5d3" opacity=".75" /><ellipse cx="448.8" cy="469.8" rx="6" ry="17" transform="rotate(154.3 448.8 469.8)" fill="none" stroke="#ece5d3" opacity=".75" /><ellipse cx="448.8" cy="453.3" rx="6" ry="17" transform="rotate(205.7 448.8 453.3)" fill="none" stroke="#ece5d3" opacity=".75" /><ellipse cx="461.7" cy="443.1" rx="6" ry="17" transform="rotate(257.1 461.7 443.1)" fill="none" stroke="#ece5d3" opacity=".75" /><ellipse cx="477.8" cy="446.7" rx="6" ry="17" transform="rotate(308.6 477.8 446.7)" fill="none" stroke="#ece5d3" opacity=".75" /><circle cx="465.9" cy="461.6" r="5" fill="#ece5d3" /><path d="M 614.7 895 C 534.7 710 618.7 530 618.7 400.7" fill="none" stroke="#6fa49e" stroke-width="1" opacity=".7" /><ellipse cx="637.7" cy="400.7" rx="6" ry="17" transform="rotate(0.0 637.7 400.7)" fill="none" stroke="#6fa49e" opacity=".75" /><ellipse cx="630.5" cy="415.6" rx="6" ry="17" transform="rotate(51.4 630.5 415.6)" fill="none" stroke="#6fa49e" opacity=".75" /><ellipse cx="614.4" cy="419.3" rx="6" ry="17" transform="rotate(102.9 614.4 419.3)" fill="none" stroke="#6fa49e" opacity=".75" /><ellipse cx="601.5" cy="409.0" rx="6" ry="17" transform="rotate(154.3 601.5 409.0)" fill="none" stroke="#6fa49e" opacity=".75" /><ellipse cx="601.5" cy="392.5" rx="6" ry="17" transform="rotate(205.7 601.5 392.5)" fill="none" stroke="#6fa49e" opacity=".75" /><ellipse cx="614.4" cy="382.2" rx="6" ry="17" transform="rotate(257.1 614.4 382.2)" fill="none" stroke="#6fa49e" opacity=".75" /><ellipse cx="630.5" cy="385.9" rx="6" ry="17" transform="rotate(308.6 630.5 385.9)" fill="none" stroke="#6fa49e" opacity=".75" /><circle cx="618.7" cy="400.7" r="5" fill="#6fa49e" /><path d="M 642.2 895 C 562.2 710 534.2 530 534.2 398.0" fill="none" stroke="#acd1be" stroke-width="1" opacity=".7" /><ellipse cx="553.2" cy="398.0" rx="6" ry="17" transform="rotate(0.0 553.2 398.0)" fill="none" stroke="#acd1be" opacity=".75" /><ellipse cx="546.0" cy="412.9" rx="6" ry="17" transform="rotate(51.4 546.0 412.9)" fill="none" stroke="#acd1be" opacity=".75" /><ellipse cx="529.9" cy="416.5" rx="6" ry="17" transform="rotate(102.9 529.9 416.5)" fill="none" stroke="#acd1be" opacity=".75" /><ellipse cx="517.0" cy="406.2" rx="6" ry="17" transform="rotate(154.3 517.0 406.2)" fill="none" stroke="#acd1be" opacity=".75" /><ellipse cx="517.0" cy="389.8" rx="6" ry="17" transform="rotate(205.7 517.0 389.8)" fill="none" stroke="#acd1be" opacity=".75" /><ellipse cx="529.9" cy="379.5" rx="6" ry="17" transform="rotate(257.1 529.9 379.5)" fill="none" stroke="#acd1be" opacity=".75" /><ellipse cx="546.0" cy="383.1" rx="6" ry="17" transform="rotate(308.6 546.0 383.1)" fill="none" stroke="#acd1be" opacity=".75" /><circle cx="534.2" cy="398.0" r="5" fill="#acd1be" /><path d="M 714.1 895 C 634.1 710 766.7 530 766.7 277.7" fill="none" stroke="#e4c388" stroke-width="1" opacity=".7" /><ellipse cx="785.7" cy="277.7" rx="6" ry="17" transform="rotate(0.0 785.7 277.7)" fill="none" stroke="#e4c388" opacity=".75" /><ellipse cx="778.6" cy="292.5" rx="6" ry="17" transform="rotate(51.4 778.6 292.5)" fill="none" stroke="#e4c388" opacity=".75" /><ellipse cx="762.5" cy="296.2" rx="6" ry="17" transform="rotate(102.9 762.5 296.2)" fill="none" stroke="#e4c388" opacity=".75" /><ellipse cx="749.6" cy="285.9" rx="6" ry="17" transform="rotate(154.3 749.6 285.9)" fill="none" stroke="#e4c388" opacity=".75" /><ellipse cx="749.6" cy="269.4" rx="6" ry="17" transform="rotate(205.7 749.6 269.4)" fill="none" stroke="#e4c388" opacity=".75" /><ellipse cx="762.5" cy="259.1" rx="6" ry="17" transform="rotate(257.1 762.5 259.1)" fill="none" stroke="#e4c388" opacity=".75" /><ellipse cx="778.6" cy="262.8" rx="6" ry="17" transform="rotate(308.6 778.6 262.8)" fill="none" stroke="#e4c388" opacity=".75" /><circle cx="766.7" cy="277.7" r="5" fill="#e4c388" /><path d="M 752.1 895 C 672.1 710 823.5 530 823.5 370.5" fill="none" stroke="#ece5d3" stroke-width="1" opacity=".7" /><ellipse cx="842.5" cy="370.5" rx="6" ry="17" transform="rotate(0.0 842.5 370.5)" fill="none" stroke="#ece5d3" opacity=".75" /><ellipse cx="835.4" cy="385.4" rx="6" ry="17" transform="rotate(51.4 835.4 385.4)" fill="none" stroke="#ece5d3" opacity=".75" /><ellipse cx="819.3" cy="389.1" rx="6" ry="17" transform="rotate(102.9 819.3 389.1)" fill="none" stroke="#ece5d3" opacity=".75" /><ellipse cx="806.4" cy="378.8" rx="6" ry="17" transform="rotate(154.3 806.4 378.8)" fill="none" stroke="#ece5d3" opacity=".75" /><ellipse cx="806.4" cy="362.3" rx="6" ry="17" transform="rotate(205.7 806.4 362.3)" fill="none" stroke="#ece5d3" opacity=".75" /><ellipse cx="819.3" cy="352.0" rx="6" ry="17" transform="rotate(257.1 819.3 352.0)" fill="none" stroke="#ece5d3" opacity=".75" /><ellipse cx="835.4" cy="355.7" rx="6" ry="17" transform="rotate(308.6 835.4 355.7)" fill="none" stroke="#ece5d3" opacity=".75" /><circle cx="823.5" cy="370.5" r="5" fill="#ece5d3" /><path d="M 798.8 895 C 718.8 710 706.2 530 706.2 457.5" fill="none" stroke="#6fa49e" stroke-width="1" opacity=".7" /><ellipse cx="725.2" cy="457.5" rx="6" ry="17" transform="rotate(0.0 725.2 457.5)" fill="none" stroke="#6fa49e" opacity=".75" /><ellipse cx="718.1" cy="472.3" rx="6" ry="17" transform="rotate(51.4 718.1 472.3)" fill="none" stroke="#6fa49e" opacity=".75" /><ellipse cx="702.0" cy="476.0" rx="6" ry="17" transform="rotate(102.9 702.0 476.0)" fill="none" stroke="#6fa49e" opacity=".75" /><ellipse cx="689.1" cy="465.7" rx="6" ry="17" transform="rotate(154.3 689.1 465.7)" fill="none" stroke="#6fa49e" opacity=".75" /><ellipse cx="689.1" cy="449.2" rx="6" ry="17" transform="rotate(205.7 689.1 449.2)" fill="none" stroke="#6fa49e" opacity=".75" /><ellipse cx="702.0" cy="439.0" rx="6" ry="17" transform="rotate(257.1 702.0 439.0)" fill="none" stroke="#6fa49e" opacity=".75" /><ellipse cx="718.1" cy="442.6" rx="6" ry="17" transform="rotate(308.6 718.1 442.6)" fill="none" stroke="#6fa49e" opacity=".75" /><circle cx="706.2" cy="457.5" r="5" fill="#6fa49e" /><path d="M 829.2 895 C 749.2 710 911.5 530 911.5 250.7" fill="none" stroke="#acd1be" stroke-width="1" opacity=".7" /><ellipse cx="930.5" cy="250.7" rx="6" ry="17" transform="rotate(0.0 930.5 250.7)" fill="none" stroke="#acd1be" opacity=".75" /><ellipse cx="923.3" cy="265.5" rx="6" ry="17" transform="rotate(51.4 923.3 265.5)" fill="none" stroke="#acd1be" opacity=".75" /><ellipse cx="907.2" cy="269.2" rx="6" ry="17" transform="rotate(102.9 907.2 269.2)" fill="none" stroke="#acd1be" opacity=".75" /><ellipse cx="894.4" cy="258.9" rx="6" ry="17" transform="rotate(154.3 894.4 258.9)" fill="none" stroke="#acd1be" opacity=".75" /><ellipse cx="894.4" cy="242.4" rx="6" ry="17" transform="rotate(205.7 894.4 242.4)" fill="none" stroke="#acd1be" opacity=".75" /><ellipse cx="907.2" cy="232.1" rx="6" ry="17" transform="rotate(257.1 907.2 232.1)" fill="none" stroke="#acd1be" opacity=".75" /><ellipse cx="923.3" cy="235.8" rx="6" ry="17" transform="rotate(308.6 923.3 235.8)" fill="none" stroke="#acd1be" opacity=".75" /><circle cx="911.5" cy="250.7" r="5" fill="#acd1be" /><path d="M 888.9 895 C 808.9 710 793.9 530 793.9 505.0" fill="none" stroke="#e4c388" stroke-width="1" opacity=".7" /><ellipse cx="812.9" cy="505.0" rx="6" ry="17" transform="rotate(0.0 812.9 505.0)" fill="none" stroke="#e4c388" opacity=".75" /><ellipse cx="805.7" cy="519.9" rx="6" ry="17" transform="rotate(51.4 805.7 519.9)" fill="none" stroke="#e4c388" opacity=".75" /><ellipse cx="789.6" cy="523.5" rx="6" ry="17" transform="rotate(102.9 789.6 523.5)" fill="none" stroke="#e4c388" opacity=".75" /><ellipse cx="776.7" cy="513.3" rx="6" ry="17" transform="rotate(154.3 776.7 513.3)" fill="none" stroke="#e4c388" opacity=".75" /><ellipse cx="776.7" cy="496.8" rx="6" ry="17" transform="rotate(205.7 776.7 496.8)" fill="none" stroke="#e4c388" opacity=".75" /><ellipse cx="789.6" cy="486.5" rx="6" ry="17" transform="rotate(257.1 789.6 486.5)" fill="none" stroke="#e4c388" opacity=".75" /><ellipse cx="805.7" cy="490.2" rx="6" ry="17" transform="rotate(308.6 805.7 490.2)" fill="none" stroke="#e4c388" opacity=".75" /><circle cx="793.9" cy="505.0" r="5" fill="#e4c388" /><path d="M 939.4 895 C 859.4 710 922.5 530 922.5 489.3" fill="none" stroke="#ece5d3" stroke-width="1" opacity=".7" /><ellipse cx="941.5" cy="489.3" rx="6" ry="17" transform="rotate(0.0 941.5 489.3)" fill="none" stroke="#ece5d3" opacity=".75" /><ellipse cx="934.3" cy="504.2" rx="6" ry="17" transform="rotate(51.4 934.3 504.2)" fill="none" stroke="#ece5d3" opacity=".75" /><ellipse cx="918.3" cy="507.8" rx="6" ry="17" transform="rotate(102.9 918.3 507.8)" fill="none" stroke="#ece5d3" opacity=".75" /><ellipse cx="905.4" cy="497.6" rx="6" ry="17" transform="rotate(154.3 905.4 497.6)" fill="none" stroke="#ece5d3" opacity=".75" /><ellipse cx="905.4" cy="481.1" rx="6" ry="17" transform="rotate(205.7 905.4 481.1)" fill="none" stroke="#ece5d3" opacity=".75" /><ellipse cx="918.3" cy="470.8" rx="6" ry="17" transform="rotate(257.1 918.3 470.8)" fill="none" stroke="#ece5d3" opacity=".75" /><ellipse cx="934.3" cy="474.5" rx="6" ry="17" transform="rotate(308.6 934.3 474.5)" fill="none" stroke="#ece5d3" opacity=".75" /><circle cx="922.5" cy="489.3" r="5" fill="#ece5d3" /><path d="M 976.1 895 C 896.1 710 1036.2 530 1036.2 298.3" fill="none" stroke="#6fa49e" stroke-width="1" opacity=".7" /><ellipse cx="1055.2" cy="298.3" rx="6" ry="17" transform="rotate(0.0 1055.2 298.3)" fill="none" stroke="#6fa49e" opacity=".75" /><ellipse cx="1048.0" cy="313.2" rx="6" ry="17" transform="rotate(51.4 1048.0 313.2)" fill="none" stroke="#6fa49e" opacity=".75" /><ellipse cx="1031.9" cy="316.8" rx="6" ry="17" transform="rotate(102.9 1031.9 316.8)" fill="none" stroke="#6fa49e" opacity=".75" /><ellipse cx="1019.0" cy="306.6" rx="6" ry="17" transform="rotate(154.3 1019.0 306.6)" fill="none" stroke="#6fa49e" opacity=".75" /><ellipse cx="1019.0" cy="290.1" rx="6" ry="17" transform="rotate(205.7 1019.0 290.1)" fill="none" stroke="#6fa49e" opacity=".75" /><ellipse cx="1031.9" cy="279.8" rx="6" ry="17" transform="rotate(257.1 1031.9 279.8)" fill="none" stroke="#6fa49e" opacity=".75" /><ellipse cx="1048.0" cy="283.5" rx="6" ry="17" transform="rotate(308.6 1048.0 283.5)" fill="none" stroke="#6fa49e" opacity=".75" /><circle cx="1036.2" cy="298.3" r="5" fill="#6fa49e" /><path d="M 1010.0 895 C 930.0 710 1089.3 530 1089.3 417.1" fill="none" stroke="#acd1be" stroke-width="1" opacity=".7" /><ellipse cx="1108.3" cy="417.1" rx="6" ry="17" transform="rotate(0.0 1108.3 417.1)" fill="none" stroke="#acd1be" opacity=".75" /><ellipse cx="1101.2" cy="432.0" rx="6" ry="17" transform="rotate(51.4 1101.2 432.0)" fill="none" stroke="#acd1be" opacity=".75" /><ellipse cx="1085.1" cy="435.6" rx="6" ry="17" transform="rotate(102.9 1085.1 435.6)" fill="none" stroke="#acd1be" opacity=".75" /><ellipse cx="1072.2" cy="425.4" rx="6" ry="17" transform="rotate(154.3 1072.2 425.4)" fill="none" stroke="#acd1be" opacity=".75" /><ellipse cx="1072.2" cy="408.9" rx="6" ry="17" transform="rotate(205.7 1072.2 408.9)" fill="none" stroke="#acd1be" opacity=".75" /><ellipse cx="1085.1" cy="398.6" rx="6" ry="17" transform="rotate(257.1 1085.1 398.6)" fill="none" stroke="#acd1be" opacity=".75" /><ellipse cx="1101.2" cy="402.3" rx="6" ry="17" transform="rotate(308.6 1101.2 402.3)" fill="none" stroke="#acd1be" opacity=".75" /><circle cx="1089.3" cy="417.1" r="5" fill="#acd1be" /><path d="M 1069.9 895 C 989.9 710 1105.6 530 1105.6 454.8" fill="none" stroke="#e4c388" stroke-width="1" opacity=".7" /><ellipse cx="1124.6" cy="454.8" rx="6" ry="17" transform="rotate(0.0 1124.6 454.8)" fill="none" stroke="#e4c388" opacity=".75" /><ellipse cx="1117.4" cy="469.7" rx="6" ry="17" transform="rotate(51.4 1117.4 469.7)" fill="none" stroke="#e4c388" opacity=".75" /><ellipse cx="1101.4" cy="473.3" rx="6" ry="17" transform="rotate(102.9 1101.4 473.3)" fill="none" stroke="#e4c388" opacity=".75" /><ellipse cx="1088.5" cy="463.1" rx="6" ry="17" transform="rotate(154.3 1088.5 463.1)" fill="none" stroke="#e4c388" opacity=".75" /><ellipse cx="1088.5" cy="446.6" rx="6" ry="17" transform="rotate(205.7 1088.5 446.6)" fill="none" stroke="#e4c388" opacity=".75" /><ellipse cx="1101.4" cy="436.3" rx="6" ry="17" transform="rotate(257.1 1101.4 436.3)" fill="none" stroke="#e4c388" opacity=".75" /><ellipse cx="1117.4" cy="440.0" rx="6" ry="17" transform="rotate(308.6 1117.4 440.0)" fill="none" stroke="#e4c388" opacity=".75" /><circle cx="1105.6" cy="454.8" r="5" fill="#e4c388" /><path d="M 1129.5 895 C 1049.5 710 1021.9 530 1021.9 197.4" fill="none" stroke="#ece5d3" stroke-width="1" opacity=".7" /><ellipse cx="1040.9" cy="197.4" rx="6" ry="17" transform="rotate(0.0 1040.9 197.4)" fill="none" stroke="#ece5d3" opacity=".75" /><ellipse cx="1033.7" cy="212.2" rx="6" ry="17" transform="rotate(51.4 1033.7 212.2)" fill="none" stroke="#ece5d3" opacity=".75" /><ellipse cx="1017.6" cy="215.9" rx="6" ry="17" transform="rotate(102.9 1017.6 215.9)" fill="none" stroke="#ece5d3" opacity=".75" /><ellipse cx="1004.8" cy="205.6" rx="6" ry="17" transform="rotate(154.3 1004.8 205.6)" fill="none" stroke="#ece5d3" opacity=".75" /><ellipse cx="1004.8" cy="189.1" rx="6" ry="17" transform="rotate(205.7 1004.8 189.1)" fill="none" stroke="#ece5d3" opacity=".75" /><ellipse cx="1017.6" cy="178.8" rx="6" ry="17" transform="rotate(257.1 1017.6 178.8)" fill="none" stroke="#ece5d3" opacity=".75" /><ellipse cx="1033.7" cy="182.5" rx="6" ry="17" transform="rotate(308.6 1033.7 182.5)" fill="none" stroke="#ece5d3" opacity=".75" /><circle cx="1021.9" cy="197.4" r="5" fill="#ece5d3" /><path d="M 1147.7 895 C 1067.7 710 1134.4 530 1134.4 516.1" fill="none" stroke="#6fa49e" stroke-width="1" opacity=".7" /><ellipse cx="1153.4" cy="516.1" rx="6" ry="17" transform="rotate(0.0 1153.4 516.1)" fill="none" stroke="#6fa49e" opacity=".75" /><ellipse cx="1146.3" cy="530.9" rx="6" ry="17" transform="rotate(51.4 1146.3 530.9)" fill="none" stroke="#6fa49e" opacity=".75" /><ellipse cx="1130.2" cy="534.6" rx="6" ry="17" transform="rotate(102.9 1130.2 534.6)" fill="none" stroke="#6fa49e" opacity=".75" /><ellipse cx="1117.3" cy="524.3" rx="6" ry="17" transform="rotate(154.3 1117.3 524.3)" fill="none" stroke="#6fa49e" opacity=".75" /><ellipse cx="1117.3" cy="507.8" rx="6" ry="17" transform="rotate(205.7 1117.3 507.8)" fill="none" stroke="#6fa49e" opacity=".75" /><ellipse cx="1130.2" cy="497.6" rx="6" ry="17" transform="rotate(257.1 1130.2 497.6)" fill="none" stroke="#6fa49e" opacity=".75" /><ellipse cx="1146.3" cy="501.2" rx="6" ry="17" transform="rotate(308.6 1146.3 501.2)" fill="none" stroke="#6fa49e" opacity=".75" /><circle cx="1134.4" cy="516.1" r="5" fill="#6fa49e" /><path d="M 1214.6 895 C 1134.6 710 1245.6 530 1245.6 355.6" fill="none" stroke="#acd1be" stroke-width="1" opacity=".7" /><ellipse cx="1264.6" cy="355.6" rx="6" ry="17" transform="rotate(0.0 1264.6 355.6)" fill="none" stroke="#acd1be" opacity=".75" /><ellipse cx="1257.4" cy="370.5" rx="6" ry="17" transform="rotate(51.4 1257.4 370.5)" fill="none" stroke="#acd1be" opacity=".75" /><ellipse cx="1241.3" cy="374.2" rx="6" ry="17" transform="rotate(102.9 1241.3 374.2)" fill="none" stroke="#acd1be" opacity=".75" /><ellipse cx="1228.4" cy="363.9" rx="6" ry="17" transform="rotate(154.3 1228.4 363.9)" fill="none" stroke="#acd1be" opacity=".75" /><ellipse cx="1228.4" cy="347.4" rx="6" ry="17" transform="rotate(205.7 1228.4 347.4)" fill="none" stroke="#acd1be" opacity=".75" /><ellipse cx="1241.3" cy="337.1" rx="6" ry="17" transform="rotate(257.1 1241.3 337.1)" fill="none" stroke="#acd1be" opacity=".75" /><ellipse cx="1257.4" cy="340.8" rx="6" ry="17" transform="rotate(308.6 1257.4 340.8)" fill="none" stroke="#acd1be" opacity=".75" /><circle cx="1245.6" cy="355.6" r="5" fill="#acd1be" /><path d="M 1230.0 895 C 1150.0 710 1145.0 530 1145.0 496.3" fill="none" stroke="#e4c388" stroke-width="1" opacity=".7" /><ellipse cx="1164.0" cy="496.3" rx="6" ry="17" transform="rotate(0.0 1164.0 496.3)" fill="none" stroke="#e4c388" opacity=".75" /><ellipse cx="1156.9" cy="511.1" rx="6" ry="17" transform="rotate(51.4 1156.9 511.1)" fill="none" stroke="#e4c388" opacity=".75" /><ellipse cx="1140.8" cy="514.8" rx="6" ry="17" transform="rotate(102.9 1140.8 514.8)" fill="none" stroke="#e4c388" opacity=".75" /><ellipse cx="1127.9" cy="504.5" rx="6" ry="17" transform="rotate(154.3 1127.9 504.5)" fill="none" stroke="#e4c388" opacity=".75" /><ellipse cx="1127.9" cy="488.0" rx="6" ry="17" transform="rotate(205.7 1127.9 488.0)" fill="none" stroke="#e4c388" opacity=".75" /><ellipse cx="1140.8" cy="477.7" rx="6" ry="17" transform="rotate(257.1 1140.8 477.7)" fill="none" stroke="#e4c388" opacity=".75" /><ellipse cx="1156.9" cy="481.4" rx="6" ry="17" transform="rotate(308.6 1156.9 481.4)" fill="none" stroke="#e4c388" opacity=".75" /><circle cx="1145.0" cy="496.3" r="5" fill="#e4c388" /><path d="M 1304.5 895 C 1224.5 710 1295.1 530 1295.1 536.7" fill="none" stroke="#ece5d3" stroke-width="1" opacity=".7" /><ellipse cx="1314.1" cy="536.7" rx="6" ry="17" transform="rotate(0.0 1314.1 536.7)" fill="none" stroke="#ece5d3" opacity=".75" /><ellipse cx="1307.0" cy="551.5" rx="6" ry="17" transform="rotate(51.4 1307.0 551.5)" fill="none" stroke="#ece5d3" opacity=".75" /><ellipse cx="1290.9" cy="555.2" rx="6" ry="17" transform="rotate(102.9 1290.9 555.2)" fill="none" stroke="#ece5d3" opacity=".75" /><ellipse cx="1278.0" cy="544.9" rx="6" ry="17" transform="rotate(154.3 1278.0 544.9)" fill="none" stroke="#ece5d3" opacity=".75" /><ellipse cx="1278.0" cy="528.4" rx="6" ry="17" transform="rotate(205.7 1278.0 528.4)" fill="none" stroke="#ece5d3" opacity=".75" /><ellipse cx="1290.9" cy="518.2" rx="6" ry="17" transform="rotate(257.1 1290.9 518.2)" fill="none" stroke="#ece5d3" opacity=".75" /><ellipse cx="1307.0" cy="521.8" rx="6" ry="17" transform="rotate(308.6 1307.0 521.8)" fill="none" stroke="#ece5d3" opacity=".75" /><circle cx="1295.1" cy="536.7" r="5" fill="#ece5d3" /><path d="M 1330.1 895 C 1250.1 710 1403.3 530 1403.3 379.9" fill="none" stroke="#6fa49e" stroke-width="1" opacity=".7" /><ellipse cx="1422.3" cy="379.9" rx="6" ry="17" transform="rotate(0.0 1422.3 379.9)" fill="none" stroke="#6fa49e" opacity=".75" /><ellipse cx="1415.1" cy="394.8" rx="6" ry="17" transform="rotate(51.4 1415.1 394.8)" fill="none" stroke="#6fa49e" opacity=".75" /><ellipse cx="1399.1" cy="398.4" rx="6" ry="17" transform="rotate(102.9 1399.1 398.4)" fill="none" stroke="#6fa49e" opacity=".75" /><ellipse cx="1386.2" cy="388.2" rx="6" ry="17" transform="rotate(154.3 1386.2 388.2)" fill="none" stroke="#6fa49e" opacity=".75" /><ellipse cx="1386.2" cy="371.7" rx="6" ry="17" transform="rotate(205.7 1386.2 371.7)" fill="none" stroke="#6fa49e" opacity=".75" /><ellipse cx="1399.1" cy="361.4" rx="6" ry="17" transform="rotate(257.1 1399.1 361.4)" fill="none" stroke="#6fa49e" opacity=".75" /><ellipse cx="1415.1" cy="365.1" rx="6" ry="17" transform="rotate(308.6 1415.1 365.1)" fill="none" stroke="#6fa49e" opacity=".75" /><circle cx="1403.3" cy="379.9" r="5" fill="#6fa49e" /><path d="M 1362.4 895 C 1282.4 710 1405.3 530 1405.3 735.2" fill="none" stroke="#acd1be" stroke-width="1" opacity=".7" /><ellipse cx="1424.3" cy="735.2" rx="6" ry="17" transform="rotate(0.0 1424.3 735.2)" fill="none" stroke="#acd1be" opacity=".75" /><ellipse cx="1417.2" cy="750.1" rx="6" ry="17" transform="rotate(51.4 1417.2 750.1)" fill="none" stroke="#acd1be" opacity=".75" /><ellipse cx="1401.1" cy="753.8" rx="6" ry="17" transform="rotate(102.9 1401.1 753.8)" fill="none" stroke="#acd1be" opacity=".75" /><ellipse cx="1388.2" cy="743.5" rx="6" ry="17" transform="rotate(154.3 1388.2 743.5)" fill="none" stroke="#acd1be" opacity=".75" /><ellipse cx="1388.2" cy="727.0" rx="6" ry="17" transform="rotate(205.7 1388.2 727.0)" fill="none" stroke="#acd1be" opacity=".75" /><ellipse cx="1401.1" cy="716.7" rx="6" ry="17" transform="rotate(257.1 1401.1 716.7)" fill="none" stroke="#acd1be" opacity=".75" /><ellipse cx="1417.2" cy="720.4" rx="6" ry="17" transform="rotate(308.6 1417.2 720.4)" fill="none" stroke="#acd1be" opacity=".75" /><circle cx="1405.3" cy="735.2" r="5" fill="#acd1be" /><path d="M 1417.5 895 C 1337.5 710 1310.4 530 1310.4 552.9" fill="none" stroke="#e4c388" stroke-width="1" opacity=".7" /><ellipse cx="1329.4" cy="552.9" rx="6" ry="17" transform="rotate(0.0 1329.4 552.9)" fill="none" stroke="#e4c388" opacity=".75" /><ellipse cx="1322.3" cy="567.8" rx="6" ry="17" transform="rotate(51.4 1322.3 567.8)" fill="none" stroke="#e4c388" opacity=".75" /><ellipse cx="1306.2" cy="571.5" rx="6" ry="17" transform="rotate(102.9 1306.2 571.5)" fill="none" stroke="#e4c388" opacity=".75" /><ellipse cx="1293.3" cy="561.2" rx="6" ry="17" transform="rotate(154.3 1293.3 561.2)" fill="none" stroke="#e4c388" opacity=".75" /><ellipse cx="1293.3" cy="544.7" rx="6" ry="17" transform="rotate(205.7 1293.3 544.7)" fill="none" stroke="#e4c388" opacity=".75" /><ellipse cx="1306.2" cy="534.4" rx="6" ry="17" transform="rotate(257.1 1306.2 534.4)" fill="none" stroke="#e4c388" opacity=".75" /><ellipse cx="1322.3" cy="538.1" rx="6" ry="17" transform="rotate(308.6 1322.3 538.1)" fill="none" stroke="#e4c388" opacity=".75" /><circle cx="1310.4" cy="552.9" r="5" fill="#e4c388" /></svg>