<?xml version='1.0' encoding='utf-8'?>
<svg width="1600" height="1000" viewBox="0 0 1600 1000" xmlns="http://www.w3.org/2000/svg"><defs><radialGradient id="paint0"><stop stop-color="#234746" /><stop offset="1" stop-color="#091f25" /></radialGradient></defs><rect width="1600" height="1000" fill="url(#paint0)" /><rect x="32" y="32" width="1536" height="936" rx="3" fill="none" stroke="#b4a277" stroke-opacity=".45" /><circle cx="962.3" cy="506.9" r="1.0" fill="#e4c388" opacity="0.36" /><circle cx="1472.5" cy="752.4" r="0.7" fill="#e4c388" opacity="0.46" /><circle cx="987.4" cy="376.3" r="1.3" fill="#e4c388" opacity="0.37" /><circle cx="986.0" cy="489.7" r="1.0" fill="#e4c388" opacity="0.15" /><circle cx="537.5" cy="112.1" r="1.0" fill="#e4c388" opacity="0.39" /><circle cx="426.0" cy="861.5" r="1.3" fill="#e4c388" opacity="0.27" /><circle cx="516.8" cy="721.4" r="1.3" fill="#e4c388" opacity="0.23" /><circle cx="1043.0" cy="828.9" r="1.0" fill="#e4c388" opacity="0.58" /><circle cx="175.1" cy="349.2" r="1.4" fill="#e4c388" opacity="0.13" /><circle cx="822.4" cy="643.6" r="1.6" fill="#e4c388" opacity="0.39" /><circle cx="1198.2" cy="619.9" r="1.6" fill="#e4c388" opacity="0.50" /><circle cx="753.0" cy="811.6" r="1.5" fill="#e4c388" opacity="0.23" /><circle cx="464.0" cy="624.7" r="1.4" fill="#e4c388" opacity="0.53" /><circle cx="307.4" cy="699.6" r="0.9" fill="#e4c388" opacity="0.43" /><circle cx="106.6" cy="449.9" r="1.0" fill="#e4c388" opacity="0.35" /><circle cx="984.3" cy="352.8" r="1.6" fill="#e4c388" opacity="0.38" /><circle cx="714.0" cy="229.6" r="1.3" fill="#e4c388" opacity="0.33" /><circle cx="137.0" cy="407.1" r="0.8" fill="#e4c388" opacity="0.32" /><circle cx="675.5" cy="100.2" r="0.5" fill="#e4c388" opacity="0.14" /><circle cx="173.1" cy="557.9" r="1.3" fill="#e4c388" opacity="0.40" /><circle cx="312.8" cy="123.7" r="1.2" fill="#e4c388" opacity="0.48" /><circle cx="818.3" cy="736.6" r="0.9" fill="#e4c388" opacity="0.15" /><circle cx="455.9" cy="130.8" r="1.6" fill="#e4c388" opacity="0.30" /><circle cx="858.0" cy="535.8" r="0.9" fill="#e4c388" opacity="0.31" /><circle cx="907.2" cy="711.3" r="1.6" fill="#e4c388" opacity="0.27" /><circle cx="332.7" cy="508.2" r="0.8" fill="#e4c388" opacity="0.19" /><circle cx="228.4" cy="321.0" r="1.0" fill="#e4c388" opacity="0.40" /><circle cx="1146.2" cy="517.5" r="0.6" fill="#e4c388" opacity="0.19" /><circle cx="1120.2" cy="649.7" r="0.4" fill="#e4c388" opacity="0.35" /><circle cx="1262.3" cy="83.9" r="1.4" fill="#e4c388" opacity="0.45" /><circle cx="1032.4" cy="424.1" r="1.4" fill="#e4c388" opacity="0.41" /><circle cx="99.8" cy="503.9" r="0.9" fill="#e4c388" opacity="0.32" /><circle cx="1079.8" cy="443.5" r="1.4" fill="#e4c388" opacity="0.43" /><circle cx="845.2" cy="369.0" r="0.4" fill="#e4c388" opacity="0.60" /><circle cx="543.6" cy="423.2" r="1.4" fill="#e4c388" opacity="0.49" /><circle cx="1298.4" cy="195.1" r="0.6" fill="#e4c388" opacity="0.19" /><circle cx="369.4" cy="860.2" r="1.5" fill="#e4c388" opacity="0.31" /><circle cx="1361.8" cy="474.2" r="0.7" fill="#e4c388" opacity="0.16" /><circle cx="1358.6" cy="239.2" r="1.1" fill="#e4c388" opacity="0.58" /><circle cx="1393.7" cy="522.8" r="0.9" fill="#e4c388" opacity="0.20" /><circle cx="769.5" cy="502.3" r="1.5" fill="#e4c388" opacity="0.34" /><circle cx="624.5" cy="116.1" r="0.8" fill="#e4c388" opacity="0.54" /><circle cx="1141.3" cy="229.5" r="0.5" fill="#e4c388" opacity="0.17" /><circle cx="1061.8" cy="544.0" r="0.5" fill="#e4c388" opacity="0.54" /><circle cx="1410.4" cy="594.1" r="0.7" fill="#e4c388" opacity="0.32" /><circle cx="1064.0" cy="354.6" r="1.3" fill="#e4c388" opacity="0.43" /><circle cx="891.9" cy="791.3" r="1.1" fill="#e4c388" opacity="0.17" /><circle cx="160.7" cy="810.7" r="0.5" fill="#e4c388" opacity="0.20" /><circle cx="911.3" cy="513.9" r="1.4" fill="#e4c388" opacity="0.47" /><circle cx="1091.4" cy="239.4" r="0.7" fill="#e4c388" opacity="0.56" /><circle cx="1189.5" cy="578.7" r="0.6" fill="#e4c388" opacity="0.41" /><circle cx="1041.9" cy="820.6" r="0.8" fill="#e4c388" opacity="0.57" /><circle cx="533.8" cy="447.7" r="0.4" fill="#e4c388" opacity="0.37" /><circle cx="1295.5" cy="79.7" r="0.6" fill="#e4c388" opacity="0.56" /><circle cx="541.5" cy="256.3" r="1.1" fill="#e4c388" opacity="0.49" /><circle cx="898.5" cy="482.6" r="1.3" fill="#e4c388" opacity="0.47" /><circle cx="448.4" cy="609.4" r="1.0" fill="#e4c388" opacity="0.54" /><circle cx="1312.1" cy="677.5" r="1.3" fill="#e4c388" opacity="0.51" /><circle cx="102.9" cy="450.4" r="0.8" fill="#e4c388" opacity="0.34" /><circle cx="617.3" cy="596.0" r="1.4" fill="#e4c388" opacity="0.48" /><circle cx="238.9" cy="764.0" r="1.2" fill="#e4c388" opacity="0.50" /><circle cx="1321.7" cy="447.1" r="0.8" fill="#e4c388" opacity="0.26" /><circle cx="1337.9" cy="73.2" r="1.5" fill="#e4c388" opacity="0.56" /><circle cx="1427.5" cy="415.9" r="0.5" fill="#e4c388" opacity="0.16" /><circle cx="455.3" cy="834.0" r="0.4" fill="#e4c388" opacity="0.51" /><circle cx="1353.6" cy="665.4" r="1.5" fill="#e4c388" opacity="0.48" /><circle cx="1203.0" cy="223.7" r="1.1" fill="#e4c388" opacity="0.26" /><circle cx="1240.6" cy="155.3" r="1.4" fill="#e4c388" opacity="0.13" /><circle cx="246.5" cy="366.1" r="1.1" fill="#e4c388" opacity="0.22" /><circle cx="134.7" cy="449.6" r="1.1" fill="#e4c388" opacity="0.41" /><circle cx="334.8" cy="599.0" r="0.9" fill="#e4c388" opacity="0.24" /><circle cx="1312.5" cy="504.2" r="1.4" fill="#e4c388" opacity="0.49" /><circle cx="402.9" cy="615.4" r="0.9" fill="#e4c388" opacity="0.18" /><circle cx="422.4" cy="859.1" r="1.4" fill="#e4c388" opacity="0.43" /><circle cx="392.1" cy="759.8" r="1.3" fill="#e4c388" opacity="0.39" /><circle cx="189.0" cy="165.9" r="0.9" fill="#e4c388" opacity="0.57" /><circle cx="580.7" cy="792.6" r="1.1" fill="#e4c388" opacity="0.47" /><circle cx="337.6" cy="823.5" r="0.5" fill="#e4c388" opacity="0.44" /><circle cx="523.3" cy="569.1" r="1.2" fill="#e4c388" opacity="0.49" /><circle cx="202.5" cy="783.9" r="0.6" fill="#e4c388" opacity="0.22" /><circle cx="748.2" cy="677.9" r="1.4" fill="#e4c388" opacity="0.47" /><circle cx="210.6" cy="313.6" r="1.0" fill="#e4c388" opacity="0.27" /><circle cx="261.1" cy="673.7" r="1.3" fill="#e4c388" opacity="0.46" /><circle cx="1091.2" cy="390.3" r="1.1" fill="#e4c388" opacity="0.34" /><circle cx="1094.2" cy="423.0" r="1.3" fill="#e4c388" opacity="0.56" /><circle cx="1049.7" cy="686.4" r="1.2" fill="#e4c388" opacity="0.28" /><circle cx="1016.6" cy="850.9" r="1.1" fill="#e4c388" opacity="0.49" /><circle cx="95.6" cy="787.5" r="0.7" fill="#e4c388" opacity="0.32" /><circle cx="347.4" cy="421.0" r="1.1" fill="#e4c388" opacity="0.17" /><circle cx="1437.4" cy="833.8" r="1.5" fill="#e4c388" opacity="0.25" /><circle cx="76.8" cy="748.3" r="0.9" fill="#e4c388" opacity="0.27" /><circle cx="405.1" cy="461.4" r="1.2" fill="#e4c388" opacity="0.48" /><circle cx="460.9" cy="409.4" r="1.4" fill="#e4c388" opacity="0.28" /><circle cx="143.0" cy="496.5" r="0.5" fill="#e4c388" opacity="0.55" /><circle cx="1423.4" cy="259.2" r="1.4" fill="#e4c388" opacity="0.38" /><circle cx="559.4" cy="314.9" r="0.5" fill="#e4c388" opacity="0.15" /><circle cx="568.6" cy="697.4" r="0.6" fill="#e4c388" opacity="0.21" /><circle cx="1345.9" cy="489.9" r="1.4" fill="#e4c388" opacity="0.16" /><circle cx="483.5" cy="850.5" r="1.0" fill="#e4c388" opacity="0.58" /><circle cx="1074.2" cy="338.8" r="0.7" fill="#e4c388" opacity="0.31" /><circle cx="83.8" cy="364.3" r="0.8" fill="#e4c388" opacity="0.53" /><circle cx="789.0" cy="667.3" r="0.6" fill="#e4c388" opacity="0.20" /><circle cx="328.1" cy="701.4" r="0.4" fill="#e4c388" opacity="0.39" /><circle cx="1106.9" cy="763.4" r="1.3" fill="#e4c388" opacity="0.24" /><circle cx="813.3" cy="613.3" r="1.1" fill="#e4c388" opacity="0.23" /><circle cx="1104.3" cy="724.3" r="1.1" fill="#e4c388" opacity="0.21" /><circle cx="1289.9" cy="751.3" r="1.2" fill="#e4c388" opacity="0.35" /><circle cx="703.7" cy="395.1" r="1.4" fill="#e4c388" opacity="0.58" /><circle cx="1036.8" cy="502.2" r="1.1" fill="#e4c388" opacity="0.49" /><circle cx="726.7" cy="333.9" r="1.3" fill="#e4c388" opacity="0.35" /><circle cx="138.0" cy="509.3" r="0.5" fill="#e4c388" opacity="0.14" /><circle cx="141.1" cy="565.1" r="1.1" fill="#e4c388" opacity="0.23" /><circle cx="227.8" cy="541.8" r="1.3" fill="#e4c388" opacity="0.36" /><circle cx="558.7" cy="363.8" r="1.6" fill="#e4c388" opacity="0.15" /><circle cx="1425.3" cy="575.3" r="1.4" fill="#e4c388" opacity="0.39" /><circle cx="227.1" cy="625.4" r="1.1" fill="#e4c388" opacity="0.32" /><circle cx="840.6" cy="82.8" r="0.5" fill="#e4c388" opacity="0.20" /><circle cx="860.6" cy="605.6" r="0.7" fill="#e4c388" opacity="0.46" /><circle cx="1386.8" cy="634.3" r="1.0" fill="#e4c388" opacity="0.47" /><circle cx="995.0" cy="855.7" r="1.5" fill="#e4c388" opacity="0.37" /><circle cx="535.3" cy="206.6" r="1.3" fill="#e4c388" opacity="0.22" /><circle cx="871.3" cy="140.5" r="0.4" fill="#e4c388" opacity="0.34" /><circle cx="750.1" cy="705.5" r="0.8" fill="#e4c388" opacity="0.30" /><circle cx="1445.8" cy="751.6" r="0.5" fill="#e4c388" opacity="0.53" /><circle cx="1108.9" cy="696.9" r="0.5" fill="#e4c388" opacity="0.44" /><circle cx="775.2" cy="432.4" r="1.1" fill="#e4c388" opacity="0.56" /><circle cx="617.4" cy="805.0" r="1.1" fill="#e4c388" opacity="0.13" /><circle cx="432.6" cy="290.3" r="1.3" fill="#e4c388" opacity="0.58" /><circle cx="578.9" cy="857.4" r="1.3" fill="#e4c388" opacity="0.58" /><circle cx="687.7" cy="341.7" r="1.6" fill="#e4c388" opacity="0.58" /><circle cx="1537.6" cy="780.0" r="1.3" fill="#e4c388" opacity="0.34" /><circle cx="397.7" cy="665.0" r="1.0" fill="#e4c388" opacity="0.18" /><circle cx="781.0" cy="459.3" r="1.2" fill="#e4c388" opacity="0.39" /><circle cx="1202.5" cy="80.8" r="1.1" fill="#e4c388" opacity="0.26" /><circle cx="944.7" cy="536.1" r="0.9" fill="#e4c388" opacity="0.58" /><circle cx="500.2" cy="390.2" r="0.9" fill="#e4c388" opacity="0.26" /><circle cx="303.7" cy="351.0" r="1.0" fill="#e4c388" opacity="0.40" /><circle cx="1106.4" cy="211.5" r="0.8" fill="#e4c388" opacity="0.24" /><circle cx="1303.5" cy="521.6" r="1.3" fill="#e4c388" opacity="0.54" /><circle cx="168.2" cy="657.4" r="0.8" fill="#e4c388" opacity="0.26" /><circle cx="748.7" cy="168.9" r="0.5" fill="#e4c388" opacity="0.22" /><circle cx="1170.6" cy="157.3" r="0.7" fill="#e4c388" opacity="0.22" /><circle cx="76.6" cy="834.2" r="0.8" fill="#e4c388" opacity="0.40" /><circle cx="1258.8" cy="752.2" r="1.1" fill="#e4c388" opacity="0.45" /><circle cx="711.1" cy="282.7" r="1.3" fill="#e4c388" opacity="0.18" /><circle cx="815.2" cy="483.3" r="1.3" fill="#e4c388" opacity="0.17" /><circle cx="1466.1" cy="125.3" r="1.1" fill="#e4c388" opacity="0.25" /><circle cx="728.8" cy="88.9" r="0.4" fill="#e4c388" opacity="0.18" /><circle cx="580.9" cy="92.8" r="0.5" fill="#e4c388" opacity="0.56" /><circle cx="443.8" cy="667.4" r="1.1" fill="#e4c388" opacity="0.53" /><circle cx="1453.3" cy="391.2" r="1.0" fill="#e4c388" opacity="0.39" /><circle cx="411.0" cy="396.3" r="0.7" fill="#e4c388" opacity="0.15" /><circle cx="1355.4" cy="453.3" r="1.3" fill="#e4c388" opacity="0.49" /><circle cx="1136.7" cy="688.7" r="1.1" fill="#e4c388" opacity="0.56" /><circle cx="970.0" cy="113.8" r="0.8" fill="#e4c388" opacity="0.23" /><circle cx="291.4" cy="585.5" r="1.0" fill="#e4c388" opacity="0.37" /><circle cx="1380.4" cy="744.7" r="1.4" fill="#e4c388" opacity="0.33" /><circle cx="1342.2" cy="821.6" r="1.2" fill="#e4c388" opacity="0.26" /><circle cx="1012.1" cy="383.6" r="0.9" fill="#e4c388" opacity="0.28" /><circle cx="569.1" cy="759.6" r="1.1" fill="#e4c388" opacity="0.51" /><circle cx="1360.6" cy="663.1" r="1.6" fill="#e4c388" opacity="0.40" /><circle cx="532.6" cy="293.0" r="1.0" fill="#e4c388" opacity="0.50" /><circle cx="391.7" cy="692.0" r="1.3" fill="#e4c388" opacity="0.32" /><circle cx="181.6" cy="182.7" r="0.7" fill="#e4c388" opacity="0.42" /><circle cx="1030.3" cy="405.4" r="1.0" fill="#e4c388" opacity="0.54" /><circle cx="1424.1" cy="556.8" r="1.5" fill="#e4c388" opacity="0.24" /><circle cx="780.6" cy="387.1" r="1.2" fill="#e4c388" opacity="0.55" /><circle cx="628.6" cy="706.1" r="1.5" fill="#e4c388" opacity="0.20" /><circle cx="77.8" cy="401.1" r="1.4" fill="#e4c388" opacity="0.45" /><circle cx="443.5" cy="798.0" r="0.9" fill="#e4c388" opacity="0.31" /><circle cx="575.8" cy="772.7" r="1.2" fill="#e4c388" opacity="0.59" /><circle cx="714.4" cy="155.8" r="0.7" fill="#e4c388" opacity="0.52" /><circle cx="1014.8" cy="319.9" r="1.2" fill="#e4c388" opacity="0.18" /><circle cx="275.7" cy="359.6" r="1.4" fill="#e4c388" opacity="0.49" /><circle cx="1018.7" cy="390.7" r="1.5" fill="#e4c388" opacity="0.59" /><circle cx="426.5" cy="787.4" r="0.9" fill="#e4c388" opacity="0.60" /><circle cx="889.0" cy="95.0" r="1.1" fill="#e4c388" opacity="0.57" /><circle cx="1120.3" cy="582.4" r="0.8" fill="#e4c388" opacity="0.39" /><circle cx="909.4" cy="449.7" r="0.7" fill="#e4c388" opacity="0.47" /><circle cx="1161.9" cy="488.7" r="1.0" fill="#e4c388" opacity="0.55" /><path d="M 492.7 895 C 412.7 710 481.1 530 481.1 328.4" fill="none" stroke="#acd1be" stroke-width="1" opacity=".7" /><ellipse cx="500.1" cy="328.4" rx="6" ry="17" transform="rotate(0.0 500.1 328.4)" fill="none" stroke="#acd1be" opacity=".75" /><ellipse cx="493.0" cy="343.2" rx="6" ry="17" transform="rotate(51.4 493.0 343.2)" fill="none" stroke="#acd1be" opacity=".75" /><ellipse cx="476.9" cy="346.9" rx="6" ry="17" transform="rotate(102.9 476.9 346.9)" fill="none" stroke="#acd1be" opacity=".75" /><ellipse cx="464.0" cy="336.6" rx="6" ry="17" transform="rotate(154.3 464.0 336.6)" fill="none" stroke="#acd1be" opacity=".75" /><ellipse cx="464.0" cy="320.1" rx="6" ry="17" transform="rotate(205.7 464.0 320.1)" fill="none" stroke="#acd1be" opacity=".75" /><ellipse cx="476.9" cy="309.8" rx="6" ry="17" transform="rotate(257.1 476.9 309.8)" fill="none" stroke="#acd1be" opacity=".75" /><ellipse cx="493.0" cy="313.5" rx="6" ry="17" transform="rotate(308.6 493.0 313.5)" fill="none" stroke="#acd1be" opacity=".75" /><circle cx="481.1" cy="328.4" r="5" fill="#acd1be" /><path d="M 513.9 895 C 433.9 710 598.8 530 598.8 609.9" fill="none" stroke="#e4c388" stroke-width="1" opacity=".7" /><ellipse cx="617.8" cy="609.9" rx="6" ry="17" transform="rotate(0.0 617.8 609.9)" fill="none" stroke="#e4c388" opacity=".75" /><ellipse cx="610.7" cy="624.8" rx="6" ry="17" transform="rotate(51.4 610.7 624.8)" fill="none" stroke="#e4c388" opacity=".75" /><ellipse cx="594.6" cy="628.5" rx="6" ry="17" transform="rotate(102.9 594.6 628.5)" fill="none" stroke="#e4c388" opacity=".75" /><ellipse cx="581.7" cy="618.2" rx="6" ry="17" transform="rotate(154.3 581.7 618.2)" fill="none" stroke="#e4c388" opacity=".75" /><ellipse cx="581.7" cy="601.7" rx="6" ry="17" transform="rotate(205.7 581.7 601.7)" fill="none" stroke="#e4c388" opacity=".75" /><ellipse cx="594.6" cy="591.4" rx="6" ry="17" transform="rotate(257.1 594.6 591.4)" fill="none" stroke="#e4c388" opacity=".75" /><ellipse cx="610.7" cy="595.1" rx="6" ry="17" transform="rotate(308.6 610.7 595.1)" fill="none" stroke="#e4c388" opacity=".75" /><circle cx="598.8" cy="609.9" r="5" fill="#e4c388" /><path d="M 574.2 895 C 494.2 710 493.1 530 493.1 234.3" fill="none" stroke="#ece5d3" stroke-width="1" opacity=".7" /><ellipse cx="512.1" cy="234.3" rx="6" ry="17" transform="rotate(0.0 512.1 234.3)" fill="none" stroke="#ece5d3" opacity=".75" /><ellipse cx="505.0" cy="249.2" rx="6" ry="17" transform="rotate(51.4 505.0 249.2)" fill="none" stroke="#ece5d3" opacity=".75" /><ellipse cx="488.9" cy="252.8" rx="6" ry="17" transform="rotate(102.9 488.9 252.8)" fill="none" stroke="#ece5d3" opacity=".75" /><ellipse cx="476.0" cy="242.5" rx="6" ry="17" transform="rotate(154.3 476.0 242.5)" fill="none" stroke="#ece5d3" opacity=".75" /><ellipse cx="476.0" cy="226.1" rx="6" ry="17" transform="rotate(205.7 476.0 226.1)" fill="none" stroke="#ece5d3" opacity=".75" /><ellipse cx="488.9" cy="215.8" rx="6" ry="17" transform="rotate(257.1 488.9 215.8)" fill="none" stroke="#ece5d3" opacity=".75" /><ellipse cx="505.0" cy="219.4" rx="6" ry="17" transform="rotate(308.6 505.0 219.4)" fill="none" stroke="#ece5d3" opacity=".75" /><circle cx="493.1" cy="234.3" r="5" fill="#ece5d3" /><path d="M 628.7 895 C 548.7 710 632.0 530 632.0 689.5" fill="none" stroke="#6fa49e" stroke-width="1" opacity=".7" /><ellipse cx="651.0" cy="689.5" rx="6" ry="17" transform="rotate(0.0 651.0 689.5)" fill="none" stroke="#6fa49e" opacity=".75" /><ellipse cx="643.9" cy="704.3" rx="6" ry="17" transform="rotate(51.4 643.9 704.3)" fill="none" stroke="#6fa49e" opacity=".75" /><ellipse cx="627.8" cy="708.0" rx="6" ry="17" transform="rotate(102.9 627.8 708.0)" fill="none" stroke="#6fa49e" opacity=".75" /><ellipse cx="614.9" cy="697.7" rx="6" ry="17" transform="rotate(154.3 614.9 697.7)" fill="none" stroke="#6fa49e" opacity=".75" /><ellipse cx="614.9" cy="681.2" rx="6" ry="17" transform="rotate(205.7 614.9 681.2)" fill="none" stroke="#6fa49e" opacity=".75" /><ellipse cx="627.8" cy="671.0" rx="6" ry="17" transform="rotate(257.1 627.8 671.0)" fill="none" stroke="#6fa49e" opacity=".75" /><ellipse cx="643.9" cy="674.6" rx="6" ry="17" transform="rotate(308.6 643.9 674.6)" fill="none" stroke="#6fa49e" opacity=".75" /><circle cx="632.0" cy="689.5" r="5" fill="#6fa49e" /><path d="M 669.4 895 C 589.4 710 634.1 530 634.1 241.7" fill="none" stroke="#acd1be" stroke-width="1" opacity=".7" /><ellipse cx="653.1" cy="241.7" rx="6" ry="17" transform="rotate(0.0 653.1 241.7)" fill="none" stroke="#acd1be" opacity=".75" /><ellipse cx="646.0" cy="256.5" rx="6" ry="17" transform="rotate(51.4 646.0 256.5)" fill="none" stroke="#acd1be" opacity=".75" /><ellipse cx="629.9" cy="260.2" rx="6" ry="17" transform="rotate(102.9 629.9 260.2)" fill="none" stroke="#acd1be" opacity=".75" /><ellipse cx="617.0" cy="249.9" rx="6" ry="17" transform="rotate(154.3 617.0 249.9)" fill="none" stroke="#acd1be" opacity=".75" /><ellipse cx="617.0" cy="233.4" rx="6" ry="17" transform="rotate(205.7 617.0 233.4)" fill="none" stroke="#acd1be" opacity=".75" /><ellipse cx="629.9" cy="223.1" rx="6" ry="17" transform="rotate(257.1 629.9 223.1)" fill="none" stroke="#acd1be" opacity=".75" /><ellipse cx="646.0" cy="226.8" rx="6" ry="17" transform="rotate(308.6 646.0 226.8)" fill="none" stroke="#acd1be" opacity=".75" /><circle cx="634.1" cy="241.7" r="5" fill="#acd1be" /><path d="M 699.7 895 C 619.7 710 633.0 530 633.0 641.5" fill="none" stroke="#e4c388" stroke-width="1" opacity=".7" /><ellipse cx="652.0" cy="641.5" rx="6" ry="17" transform="rotate(0.0 652.0 641.5)" fill="none" stroke="#e4c388" opacity=".75" /><ellipse cx="644.9" cy="656.4" rx="6" ry="17" transform="rotate(51.4 644.9 656.4)" fill="none" stroke="#e4c388" opacity=".75" /><ellipse cx="628.8" cy="660.1" rx="6" ry="17" transform="rotate(102.9 628.8 660.1)" fill="none" stroke="#e4c388" opacity=".75" /><ellipse cx="615.9" cy="649.8" rx="6" ry="17" transform="rotate(154.3 615.9 649.8)" fill="none" stroke="#e4c388" opacity=".75" /><ellipse cx="615.9" cy="633.3" rx="6" ry="17" transform="rotate(205.7 615.9 633.3)" fill="none" stroke="#e4c388" opacity=".75" /><ellipse cx="628.8" cy="623.0" rx="6" ry="17" transform="rotate(257.1 628.8 623.0)" fill="none" stroke="#e4c388" opacity=".75" /><ellipse cx="644.9" cy="626.7" rx="6" ry="17" transform="rotate(308.6 644.9 626.7)" fill="none" stroke="#e4c388" opacity=".75" /><circle cx="633.0" cy="641.5" r="5" fill="#e4c388" /><path d="M 763.0 895 C 683.0 710 715.7 530 715.7 337.0" fill="none" stroke="#ece5d3" stroke-width="1" opacity=".7" /><ellipse cx="734.7" cy="337.0" rx="6" ry="17" transform="rotate(0.0 734.7 337.0)" fill="none" stroke="#ece5d3" opacity=".75" /><ellipse cx="727.6" cy="351.8" rx="6" ry="17" transform="rotate(51.4 727.6 351.8)" fill="none" stroke="#ece5d3" opacity=".75" /><ellipse cx="711.5" cy="355.5" rx="6" ry="17" transform="rotate(102.9 711.5 355.5)" fill="none" stroke="#ece5d3" opacity=".75" /><ellipse cx="698.6" cy="345.2" rx="6" ry="17" transform="rotate(154.3 698.6 345.2)" fill="none" stroke="#ece5d3" opacity=".75" /><ellipse cx="698.6" cy="328.8" rx="6" ry="17" transform="rotate(205.7 698.6 328.8)" fill="none" stroke="#ece5d3" opacity=".75" /><ellipse cx="711.5" cy="318.5" rx="6" ry="17" transform="rotate(257.1 711.5 318.5)" fill="none" stroke="#ece5d3" opacity=".75" /><ellipse cx="727.6" cy="322.1" rx="6" ry="17" transform="rotate(308.6 727.6 322.1)" fill="none" stroke="#ece5d3" opacity=".75" /><circle cx="715.7" cy="337.0" r="5" fill="#ece5d3" /><path d="M 804.7 895 C 724.7 710 794.0 530 794.0 326.5" fill="none" stroke="#6fa49e" stroke-width="1" opacity=".7" /><ellipse cx="813.0" cy="326.5" rx="6" ry="17" transform="rotate(0.0 813.0 326.5)" fill="none" stroke="#6fa49e" opacity=".75" /><ellipse cx="805.8" cy="341.3" rx="6" ry="17" transform="rotate(51.4 805.8 341.3)" fill="none" stroke="#6fa49e" opacity=".75" /><ellipse cx="789.7" cy="345.0" rx="6" ry="17" transform="rotate(102.9 789.7 345.0)" fill="none" stroke="#6fa49e" opacity=".75" /><ellipse cx="776.8" cy="334.7" rx="6" ry="17" transform="rotate(154.3 776.8 334.7)" fill="none" stroke="#6fa49e" opacity=".75" /><ellipse cx="776.8" cy="318.2" rx="6" ry="17" transform="rotate(205.7 776.8 318.2)" fill="none" stroke="#6fa49e" opacity=".75" /><ellipse cx="789.7" cy="308.0" rx="6" ry="17" transform="rotate(257.1 789.7 308.0)" fill="none" stroke="#6fa49e" opacity=".75" /><ellipse cx="805.8" cy="311.6" rx="6" ry="17" transform="rotate(308.6 805.8 311.6)" fill="none" stroke="#6fa49e" opacity=".75" /><circle cx="794.0" cy="326.5" r="5" fill="#6fa49e" /><path d="M 854.6 895 C 774.6 710 941.5 530 941.5 606.2" fill="none" stroke="#acd1be" stroke-width="1" opacity=".7" /><ellipse cx="960.5" cy="606.2" rx="6" ry="17" transform="rotate(0.0 960.5 606.2)" fill="none" stroke="#acd1be" opacity=".75" /><ellipse cx="953.4" cy="621.1" rx="6" ry="17" transform="rotate(51.4 953.4 621.1)" fill="none" stroke="#acd1be" opacity=".75" /><ellipse cx="937.3" cy="624.7" rx="6" ry="17" transform="rotate(102.9 937.3 624.7)" fill="none" stroke="#acd1be" opacity=".75" /><ellipse cx="924.4" cy="614.5" rx="6" ry="17" transform="rotate(154.3 924.4 614.5)" fill="none" stroke="#acd1be" opacity=".75" /><ellipse cx="924.4" cy="598.0" rx="6" ry="17" transform="rotate(205.7 924.4 598.0)" fill="none" stroke="#acd1be" opacity=".75" /><ellipse cx="937.3" cy="587.7" rx="6" ry="17" transform="rotate(257.1 937.3 587.7)" fill="none" stroke="#acd1be" opacity=".75" /><ellipse cx="953.4" cy="591.4" rx="6" ry="17" transform="rotate(308.6 953.4 591.4)" fill="none" stroke="#acd1be" opacity=".75" /><circle cx="941.5" cy="606.2" r="5" fill="#acd1be" /><path d="M 886.8 895 C 806.8 710 839.4 530 839.4 710.8" fill="none" stroke="#e4c388" stroke-width="1" opacity=".7" /><ellipse cx="858.4" cy="710.8" rx="6" ry="17" transform="rotate(0.0 858.4 710.8)" fill="none" stroke="#e4c388" opacity=".75" /><ellipse cx="851.3" cy="725.7" rx="6" ry="17" transform="rotate(51.4 851.3 725.7)" fill="none" stroke="#e4c388" opacity=".75" /><ellipse cx="835.2" cy="729.3" rx="6" ry="17" transform="rotate(102.9 835.2 729.3)" fill="none" stroke="#e4c388" opacity=".75" /><ellipse cx="822.3" cy="719.1" rx="6" ry="17" transform="rotate(154.3 822.3 719.1)" fill="none" stroke="#e4c388" opacity=".75" /><ellipse cx="822.3" cy="702.6" rx="6" ry="17" transform="rotate(205.7 822.3 702.6)" fill="none" stroke="#e4c388" opacity=".75" /><ellipse cx="835.2" cy="692.3" rx="6" ry="17" transform="rotate(257.1 835.2 692.3)" fill="none" stroke="#e4c388" opacity=".75" /><ellipse cx="851.3" cy="696.0" rx="6" ry="17" transform="rotate(308.6 851.3 696.0)" fill="none" stroke="#e4c388" opacity=".75" /><circle cx="839.4" cy="710.8" r="5" fill="#e4c388" /><path d="M 929.3 895 C 849.3 710 904.6 530 904.6 751.2" fill="none" stroke="#ece5d3" stroke-width="1" opacity=".7" /><ellipse cx="923.6" cy="751.2" rx="6" ry="17" transform="rotate(0.0 923.6 751.2)" fill="none" stroke="#ece5d3" opacity=".75" /><ellipse cx="916.4" cy="766.1" rx="6" ry="17" transform="rotate(51.4 916.4 766.1)" fill="none" stroke="#ece5d3" opacity=".75" /><ellipse cx="900.4" cy="769.7" rx="6" ry="17" transform="rotate(102.9 900.4 769.7)" fill="none" stroke="#ece5d3" opacity=".75" /><ellipse cx="887.5" cy="759.4" rx="6" ry="17" transform="rotate(154.3 887.5 759.4)" fill="none" stroke="#ece5d3" opacity=".75" /><ellipse cx="887.5" cy="743.0" rx="6" ry="17" transform="rotate(205.7 887.5 743.0)" fill="none" stroke="#ece5d3" opacity=".75" /><ellipse cx="900.4" cy="732.7" rx="6" ry="17" transform="rotate(257.1 900.4 732.7)" fill="none" stroke="#ece5d3" opacity=".75" /><ellipse cx="916.4" cy="736.4" rx="6" ry="17" transform="rotate(308.6 916.4 736.4)" fill="none" stroke="#ece5d3" opacity=".75" /><circle cx="904.6" cy="751.2" r="5" fill="#ece5d3" /><path d="M 981.3 895 C 901.3 710 894.5 530 894.5 170.9" fill="none" stroke="#6fa49e" stroke-width="1" opacity=".7" /><ellipse cx="913.5" cy="170.9" rx="6" ry="17" transform="rotate(0.0 913.5 170.9)" fill="none" stroke="#6fa49e" opacity=".75" /><ellipse cx="906.3" cy="185.7" rx="6" ry="17" transform="rotate(51.4 906.3 185.7)" fill="none" stroke="#6fa49e" opacity=".75" /><ellipse cx="890.2" cy="189.4" rx="6" ry="17" transform="rotate(102.9 890.2 189.4)" fill="none" stroke="#6fa49e" opacity=".75" /><ellipse cx="877.3" cy="179.1" rx="6" ry="17" transform="rotate(154.3 877.3 179.1)" fill="none" stroke="#6fa49e" opacity=".75" /><ellipse cx="877.3" cy="162.6" rx="6" ry="17" transform="rotate(205.7 877.3 162.6)" fill="none" stroke="#6fa49e" opacity=".75" /><ellipse cx="890.2" cy="152.4" rx="6" ry="17" transform="rotate(257.1 890.2 152.4)" fill="none" stroke="#6fa49e" opacity=".75" /><ellipse cx="906.3" cy="156.0" rx="6" ry="17" transform="rotate(308.6 906.3 156.0)" fill="none" stroke="#6fa49e" opacity=".75" /><circle cx="894.5" cy="170.9" r="5" fill="#6fa49e" /><path d="M 1002.7 895 C 922.7 710 896.0 530 896.0 234.8" fill="none" stroke="#acd1be" stroke-width="1" opacity=".7" /><ellipse cx="915.0" cy="234.8" rx="6" ry="17" transform="rotate(0.0 915.0 234.8)" fill="none" stroke="#acd1be" opacity=".75" /><ellipse cx="907.8" cy="249.7" rx="6" ry="17" transform="rotate(51.4 907.8 249.7)" fill="none" stroke="#acd1be" opacity=".75" /><ellipse cx="891.8" cy="253.3" rx="6" ry="17" transform="rotate(102.9 891.8 253.3)" fill="none" stroke="#acd1be" opacity=".75" /><ellipse cx="878.9" cy="243.0" rx="6" ry="17" transform="rotate(154.3 878.9 243.0)" fill="none" stroke="#acd1be" opacity=".75" /><ellipse cx="878.9" cy="226.6" rx="6" ry="17" transform="rotate(205.7 878.9 226.6)" fill="none" stroke="#acd1be" opacity=".75" /><ellipse cx="891.8" cy="216.3" rx="6" ry="17" transform="rotate(257.1 891.8 216.3)" fill="none" stroke="#acd1be" opacity=".75" /><ellipse cx="907.8" cy="219.9" rx="6" ry="17" transform="rotate(308.6 907.8 219.9)" fill="none" stroke="#acd1be" opacity=".75" /><circle cx="896.0" cy="234.8" r="5" fill="#acd1be" /><path d="M 1045.9 895 C 965.9 710 956.5 530 956.5 338.3" fill="none" stroke="#e4c388" stroke-width="1" opacity=".7" /><ellipse cx="975.5" cy="338.3" rx="6" ry="17" transform="rotate(0.0 975.5 338.3)" fill="none" stroke="#e4c388" opacity=".75" /><ellipse cx="968.4" cy="353.2" rx="6" ry="17" transform="rotate(51.4 968.4 353.2)" fill="none" stroke="#e4c388" opacity=".75" /><ellipse cx="952.3" cy="356.9" rx="6" ry="17" transform="rotate(102.9 952.3 356.9)" fill="none" stroke="#e4c388" opacity=".75" /><ellipse cx="939.4" cy="346.6" rx="6" ry="17" transform="rotate(154.3 939.4 346.6)" fill="none" stroke="#e4c388" opacity=".75" /><ellipse cx="939.4" cy="330.1" rx="6" ry="17" transform="rotate(205.7 939.4 330.1)" fill="none" stroke="#e4c388" opacity=".75" /><ellipse cx="952.3" cy="319.8" rx="6" ry="17" transform="rotate(257.1 952.3 319.8)" fill="none" stroke="#e4c388" opacity=".75" /><ellipse cx="968.4" cy="323.5" rx="6" ry="17" transform="rotate(308.6 968.4 323.5)" fill="none" stroke="#e4c388" opacity=".75" /><circle cx="956.5" cy="338.3" r="5" fill="#e4c388" /><path d="M 1109.1 895 C 1029.1 710 1073.2 530 1073.2 377.2" fill="none" stroke="#ece5d3" stroke-width="1" opacity=".7" /><ellipse cx="1092.2" cy="377.2" rx="6" ry="17" transform="rotate(0.0 1092.2 377.2)" fill="none" stroke="#ece5d3" opacity=".75" /><ellipse cx="1085.0" cy="392.1" rx="6" ry="17" transform="rotate(51.4 1085.0 392.1)" fill="none" stroke="#ece5d3" opacity=".75" /><ellipse cx="1069.0" cy="395.8" rx="6" ry="17" transform="rotate(102.9 1069.0 395.8)" fill="none" stroke="#ece5d3" opacity=".75" /><ellipse cx="1056.1" cy="385.5" rx="6" ry="17" transform="rotate(154.3 1056.1 385.5)" fill="none" stroke="#ece5d3" opacity=".75" /><ellipse cx="1056.1" cy="369.0" rx="6" ry="17" transform="rotate(205.7 1056.1 369.0)" fill="none" stroke="#ece5d3" opacity=".75" /><ellipse cx="1069.0" cy="358.7" rx="6" ry="17" transform="rotate(257.1 1069.0 358.7)" fill="none" stroke="#ece5d3" opacity=".75" /><ellipse cx="1085.0" cy="362.4" rx="6" ry="17" transform="rotate(308.6 1085.0 362.4)" fill="none" stroke="#ece5d3" opacity=".75" /><circle cx="1073.2" cy="377.2" r="5" fill="#ece5d3" /><path d="M 1156.8 895 C 1076.8 710 1127.0 530 1127.0 749.2" fill="none" stroke="#6fa49e" stroke-width="1" opacity=".7" /><ellipse cx="1146.0" cy="749.2" rx="6" ry="17" transform="rotate(0.0 1146.0 749.2)" fill="none" stroke="#6fa49e" opacity=".75" /><ellipse cx="1138.8" cy="764.1" rx="6" ry="17" transform="rotate(51.4 1138.8 764.1)" fill="none" stroke="#6fa49e" opacity=".75" /><ellipse cx="1122.7" cy="767.7" rx="6" ry="17" transform="rotate(102.9 1122.7 767.7)" fill="none" stroke="#6fa49e" opacity=".75" /><ellipse cx="1109.8" cy="757.5" rx="6" ry="17" transform="rotate(154.3 1109.8 757.5)" fill="none" stroke="#6fa49e" opacity=".75" /><ellipse cx="1109.8" cy="741.0" rx="6" ry="17" transform="rotate(205.7 1109.8 741.0)" fill="none" stroke="#6fa49e" opacity=".75" /><ellipse cx="1122.7" cy="730.7" rx="6" ry="17" transform="rotate(257.1 1122.7 730.7)" fill="none" stroke="#6fa49e" opacity=".75" /><ellipse cx="1138.8" cy="734.4" rx="6" ry="17" transform="rotate(308.6 1138.8 734.4)" fill="none" stroke="#6fa49e" opacity=".75" /><circle cx="1127.0" cy="749.2" r="5" fill="#6fa49e" /><path d="M 1193.1 895 C 1113.1 710 1211.9 530 1211.9 527.0" fill="none" stroke="#acd1be" stroke-width="1" opacity=".7" /><ellipse cx="1230.9" cy="527.0" rx="6" ry="17" transform="rotate(0.0 1230.9 527.0)" fill="none" stroke="#acd1be" opacity=".75" /><ellipse cx="1223.8" cy="541.8" rx="6" ry="17" transform="rotate(51.4 1223.8 541.8)" fill="none" stroke="#acd1be" opacity=".75" /><ellipse cx="1207.7" cy="545.5" rx="6" ry="17" transform="rotate(102.9 1207.7 545.5)" fill="none" stroke="#acd1be" opacity=".75" /><ellipse cx="1194.8" cy="535.2" rx="6" ry="17" transform="rotate(154.3 1194.8 535.2)" fill="none" stroke="#acd1be" opacity=".75" /><ellipse cx="1194.8" cy="518.7" rx="6" ry="17" transform="rotate(205.7 1194.8 518.7)" fill="none" stroke="#acd1be" opacity=".75" /><ellipse cx="1207.7" cy="508.4" rx="6" ry="17" transform="rotate(257.1 1207.7 508.4)" fill="none" stroke="#acd1be" opacity=".75" /><ellipse cx="1223.8" cy="512.1" rx="6" ry="17" transform="rotate(308.6 1223.8 512.1)" fill="none" stroke="#acd1be" opacity=".75" /><circle cx="1211.9" cy="527.0" r="5" fill="#acd1be" /><path d="M 1252.3 895 C 1172.3 710 1264.7 530 1264.7 261.8" fill="none" stroke="#e4c388" stroke-width="1" opacity=".7" /><ellipse cx="1283.7" cy="261.8" rx="6" ry="17" transform="rotate(0.0 1283.7 261.8)" fill="none" stroke="#e4c388" opacity=".75" /><ellipse cx="1276.6" cy="276.6" rx="6" ry="17" transform="rotate(51.4 1276.6 276.6)" fill="none" stroke="#e4c388" opacity=".75" /><ellipse cx="1260.5" cy="280.3" rx="6" ry="17" transform="rotate(102.9 1260.5 280.3)" fill="none" stroke="#e4c388" opacity=".75" /><ellipse cx="1247.6" cy="270.0" rx="6" ry="17" transform="rotate(154.3 1247.6 270.0)" fill="none" stroke="#e4c388" opacity=".75" /><ellipse cx="1247.6" cy="253.5" rx="6" ry="17" transform="rotate(205.7 1247.6 253.5)" fill="none" stroke="#e4c388" opacity=".75" /><ellipse cx="1260.5" cy="243.3" rx="6" ry="17" transform="rotate(257.1 1260.5 243.3)" fill="none" stroke="#e4c388" opacity=".75" /><ellipse cx="1276.6" cy="246.9" rx="6" ry="17" transform="rotate(308.6 1276.6 246.9)" fill="none" stroke="#e4c388" opacity=".75" /><circle cx="1264.7" cy="261.8" r="5" fill="#e4c388" /><path d="M 1303.5 895 C 1223.5 710 1385.3 530 1385.3 578.8" fill="none" stroke="#ece5d3" stroke-width="1" opacity=".7" /><ellipse cx="1404.3" cy="578.8" rx="6" ry="17" transform="rotate(0.0 1404.3 578.8)" fill="none" stroke="#ece5d3" opacity=".75" /><ellipse cx="1397.1" cy="593.7" rx="6" ry="17" transform="rotate(51.4 1397.1 593.7)" fill="none" stroke="#ece5d3" opacity=".75" /><ellipse cx="1381.0" cy="597.3" rx="6" ry="17" transform="rotate(102.9 1381.0 597.3)" fill="none" stroke="#ece5d3" opacity=".75" /><ellipse cx="1368.1" cy="587.1" rx="6" ry="17" transform="rotate(154.3 1368.1 587.1)" fill="none" stroke="#ece5d3" opacity=".75" /><ellipse cx="1368.1" cy="570.6" rx="6" ry="17" transform="rotate(205.7 1368.1 570.6)" fill="none" stroke="#ece5d3" opacity=".75" /><ellipse cx="1381.0" cy="560.3" rx="6" ry="17" transform="rotate(257.1 1381.0 560.3)" fill="none" stroke="#ece5d3" opacity=".75" /><ellipse cx="1397.1" cy="564.0" rx="6" ry="17" transform="rotate(308.6 1397.1 564.0)" fill="none" stroke="#ece5d3" opacity=".75" /><circle cx="1385.3" cy="578.8" r="5" fill="#ece5d3" /><path d="M 1349.5 895 C 1269.5 710 1281.8 530 1281.8 196.0" fill="none" stroke="#6fa49e" stroke-width="1" opacity=".7" /><ellipse cx="1300.8" cy="196.0" rx="6" ry="17" transform="rotate(0.0 1300.8 196.0)" fill="none" stroke="#6fa49e" opacity=".75" /><ellipse cx="1293.6" cy="210.8" rx="6" ry="17" transform="rotate(51.4 1293.6 210.8)" fill="none" stroke="#6fa49e" opacity=".75" /><ellipse cx="1277.6" cy="214.5" rx="6" ry="17" transform="rotate(102.9 1277.6 214.5)" fill="none" stroke="#6fa49e" opacity=".75" /><ellipse cx="1264.7" cy="204.2" rx="6" ry="17" transform="rotate(154.3 1264.7 204.2)" fill="none" stroke="#6fa49e" opacity=".75" /><ellipse cx="1264.7" cy="187.7" rx="6" ry="17" transform="rotate(205.7 1264.7 187.7)" fill="none" stroke="#6fa49e" opacity=".75" /><ellipse cx="1277.6" cy="177.5" rx="6" ry="17" transform="rotate(257.1 1277.6 177.5)" fill="none" stroke="#6fa49e" opacity=".75" /><ellipse cx="1293.6" cy="181.1" rx="6" ry="17" transform="rotate(308.6 1293.6 181.1)" fill="none" stroke="#6fa49e" opacity=".75" /><circle cx="1281.8" cy="196.0" r="5" fill="#6fa49e" /><path d="M 1365.7 895 C 1285.7 710 1371.3 530 1371.3 430.4" fill="none" stroke="#acd1be" stroke-width="1" opacity=".7" /><ellipse cx="1390.3" cy="430.4" rx="6" ry="17" transform="rotate(0.0 1390.3 430.4)" fill="none" stroke="#acd1be" opacity=".75" /><ellipse cx="1383.2" cy="445.3" rx="6" ry="17" transform="rotate(51.4 1383.2 445.3)" fill="none" stroke="#acd1be" opacity=".75" /><ellipse cx="1367.1" cy="448.9" rx="6" ry="17" transform="rotate(102.9 1367.1 448.9)" fill="none" stroke="#acd1be" opacity=".75" /><ellipse cx="1354.2" cy="438.7" rx="6" ry="17" transform="rotate(154.3 1354.2 438.7)" fill="none" stroke="#acd1be" opacity=".75" /><ellipse cx="1354.2" cy="422.2" rx="6" ry="17" transform="rotate(205.7 1354.2 422.2)" fill="none" stroke="#acd1be" opacity=".75" /><ellipse cx="1367.1" cy="411.9" rx="6" ry="17" transform="rotate(257.1 1367.1 411.9)" fill="none" stroke="#acd1be" opacity=".75" /><ellipse cx="1383.2" cy="415.6" rx="6" ry="17" transform="rotate(308.6 1383.2 415.6)" fill="none" stroke="#acd1be" opacity=".75" /><circle cx="1371.3" cy="430.4" r="5" fill="#acd1be" /><path d="M 1435.2 895 C 1355.2 710 1339.4 530 1339.4 220.2" fill="none" stroke="#e4c388" stroke-width="1" opacity=".7" /><ellipse cx="1358.4" cy="220.2" rx="6" ry="17" transform="rotate(0.0 1358.4 220.2)" fill="none" stroke="#e4c388" opacity=".75" /><ellipse cx="1351.2" cy="235.1" rx="6" ry="17" transform="rotate(51.4 1351.2 235.1)" fill="none" stroke="#e4c388" opacity=".75" /><ellipse cx="1335.1" cy="238.8" rx="6" ry="17" transform="rotate(102.9 1335.1 238.8)" fill="none" stroke="#e4c388" opacity=".75" /><ellipse cx="1322.2" cy="228.5" rx="6" ry="17" transform="rotate(154.3 1322.2 228.5)" fill="none" stroke="#e4c388" opacity=".75" /><ellipse cx="1322.2" cy="212.0" rx="6" ry="17" transform="rotate(205.7 1322.2 212.0)" fill="none" stroke="#e4c388" opacity=".75" /><ellipse cx="1335.1" cy="201.7" rx="6" ry="17" transform="rotate(257.1 1335.1 201.7)" fill="none" stroke="#e4c388" opacity=".75" /><ellipse cx="1351.2" cy="205.4" rx="6" ry="17" transform="rotate(308.6 1351.2 205.4)" fill="none" stroke="#e4c388" opacity=".75" /><circle cx="1339.4" cy="220.2" r="5" fill="#e4c388" /></svg>