<?xml version='1.0' encoding='utf-8'?>
<svg width="1600" height="1000" viewBox="0 0 1600 1000" xmlns="http://www.w3.org/2000/svg"><defs><radialGradient id="paint0"><stop stop-color="#234746" /><stop offset="1" stop-color="#091f25" /></radialGradient></defs><rect width="1600" height="1000" fill="url(#paint0)" /><rect x="32" y="32" width="1536" height="936" rx="3" fill="none" stroke="#b4a277" stroke-opacity=".45" /><circle cx="1375.2" cy="764.8" r="0.9" fill="#e4c388" opacity="0.30" /><circle cx="339.4" cy="528.5" r="0.9" fill="#e4c388" opacity="0.39" /><circle cx="75.2" cy="103.7" r="0.6" fill="#e4c388" opacity="0.38" /><circle cx="1358.1" cy="75.9" r="1.5" fill="#e4c388" opacity="0.30" /><circle cx="1397.8" cy="743.9" r="1.3" fill="#e4c388" opacity="0.44" /><circle cx="1195.1" cy="681.4" r="0.6" fill="#e4c388" opacity="0.15" /><circle cx="912.9" cy="146.3" r="1.6" fill="#e4c388" opacity="0.41" /><circle cx="1155.1" cy="387.3" r="0.5" fill="#e4c388" opacity="0.34" /><circle cx="632.9" cy="545.5" r="0.8" fill="#e4c388" opacity="0.22" /><circle cx="425.4" cy="170.7" r="1.5" fill="#e4c388" opacity="0.19" /><circle cx="1257.2" cy="196.7" r="0.9" fill="#e4c388" opacity="0.36" /><circle cx="600.3" cy="146.9" r="1.5" fill="#e4c388" opacity="0.56" /><circle cx="416.6" cy="334.7" r="1.4" fill="#e4c388" opacity="0.58" /><circle cx="855.2" cy="820.7" r="1.0" fill="#e4c388" opacity="0.59" /><circle cx="815.7" cy="783.1" r="1.2" fill="#e4c388" opacity="0.34" /><circle cx="395.8" cy="427.0" r="1.6" fill="#e4c388" opacity="0.56" /><circle cx="1252.0" cy="699.7" r="1.0" fill="#e4c388" opacity="0.46" /><circle cx="403.9" cy="560.1" r="0.9" fill="#e4c388" opacity="0.33" /><circle cx="670.2" cy="583.2" r="0.7" fill="#e4c388" opacity="0.57" /><circle cx="429.2" cy="676.2" r="0.7" fill="#e4c388" opacity="0.26" /><circle cx="994.6" cy="802.7" r="0.7" fill="#e4c388" opacity="0.35" /><circle cx="1535.3" cy="287.8" r="1.0" fill="#e4c388" opacity="0.39" /><circle cx="688.3" cy="388.6" r="1.1" fill="#e4c388" opacity="0.31" /><circle cx="1370.1" cy="141.7" r="1.1" fill="#e4c388" opacity="0.39" /><circle cx="296.1" cy="514.2" r="1.3" fill="#e4c388" opacity="0.48" /><circle cx="485.0" cy="593.1" r="0.9" fill="#e4c388" opacity="0.58" /><circle cx="672.1" cy="867.3" r="0.5" fill="#e4c388" opacity="0.52" /><circle cx="766.1" cy="499.0" r="0.5" fill="#e4c388" opacity="0.33" /><circle cx="1085.0" cy="700.7" r="0.9" fill="#e4c388" opacity="0.17" /><circle cx="863.8" cy="721.8" r="0.8" fill="#e4c388" opacity="0.21" /><circle cx="674.4" cy="771.0" r="0.5" fill="#e4c388" opacity="0.37" /><circle cx="189.5" cy="634.1" r="1.4" fill="#e4c388" opacity="0.23" /><circle cx="1324.4" cy="78.9" r="0.9" fill="#e4c388" opacity="0.37" /><circle cx="688.4" cy="706.4" r="0.6" fill="#e4c388" opacity="0.17" /><circle cx="1327.6" cy="109.9" r="1.0" fill="#e4c388" opacity="0.15" /><circle cx="963.1" cy="427.3" r="1.1" fill="#e4c388" opacity="0.27" /><circle cx="586.5" cy="109.0" r="1.4" fill="#e4c388" opacity="0.34" /><circle cx="256.3" cy="294.8" r="0.5" fill="#e4c388" opacity="0.40" /><circle cx="1432.4" cy="850.1" r="0.5" fill="#e4c388" opacity="0.55" /><circle cx="1261.1" cy="668.0" r="0.6" fill="#e4c388" opacity="0.31" /><circle cx="1496.0" cy="720.4" r="0.5" fill="#e4c388" opacity="0.41" /><circle cx="449.3" cy="104.3" r="0.6" fill="#e4c388" opacity="0.22" /><circle cx="828.3" cy="802.1" r="0.7" fill="#e4c388" opacity="0.52" /><circle cx="578.9" cy="687.2" r="0.6" fill="#e4c388" opacity="0.46" /><circle cx="488.1" cy="543.0" r="0.8" fill="#e4c388" opacity="0.37" /><circle cx="820.0" cy="863.2" r="0.5" fill="#e4c388" opacity="0.32" /><circle cx="346.9" cy="262.1" r="1.5" fill="#e4c388" opacity="0.59" /><circle cx="635.5" cy="581.2" r="0.9" fill="#e4c388" opacity="0.55" /><circle cx="878.7" cy="841.7" r="1.5" fill="#e4c388" opacity="0.60" /><circle cx="950.7" cy="642.5" r="1.5" fill="#e4c388" opacity="0.35" /><circle cx="409.4" cy="833.0" r="0.9" fill="#e4c388" opacity="0.45" /><circle cx="994.7" cy="667.4" r="1.1" fill="#e4c388" opacity="0.44" /><circle cx="963.3" cy="436.4" r="0.8" fill="#e4c388" opacity="0.37" /><circle cx="1399.9" cy="594.6" r="1.2" fill="#e4c388" opacity="0.42" /><circle cx="349.3" cy="414.0" r="1.5" fill="#e4c388" opacity="0.35" /><circle cx="1122.2" cy="734.5" r="0.7" fill="#e4c388" opacity="0.13" /><circle cx="1505.3" cy="772.8" r="1.4" fill="#e4c388" opacity="0.47" /><circle cx="1333.9" cy="832.0" r="0.7" fill="#e4c388" opacity="0.38" /><circle cx="1223.7" cy="557.7" r="0.8" fill="#e4c388" opacity="0.49" /><circle cx="690.5" cy="157.7" r="1.4" fill="#e4c388" opacity="0.15" /><circle cx="533.1" cy="530.1" r="1.1" fill="#e4c388" opacity="0.12" /><circle cx="1054.4" cy="430.7" r="0.6" fill="#e4c388" opacity="0.24" /><circle cx="1448.4" cy="701.2" r="0.7" fill="#e4c388" opacity="0.59" /><circle cx="1089.2" cy="587.6" r="1.1" fill="#e4c388" opacity="0.52" /><circle cx="1082.0" cy="838.5" r="1.0" fill="#e4c388" opacity="0.46" /><circle cx="522.8" cy="126.4" r="0.4" fill="#e4c388" opacity="0.47" /><circle cx="76.5" cy="733.9" r="1.5" fill="#e4c388" opacity="0.23" /><circle cx="883.1" cy="521.1" r="1.1" fill="#e4c388" opacity="0.49" /><circle cx="771.5" cy="819.6" r="0.4" fill="#e4c388" opacity="0.22" /><circle cx="826.3" cy="88.4" r="1.1" fill="#e4c388" opacity="0.47" /><circle cx="1106.6" cy="696.1" r="0.8" fill="#e4c388" opacity="0.29" /><circle cx="1065.7" cy="473.9" r="0.9" fill="#e4c388" opacity="0.29" /><circle cx="263.4" cy="682.3" r="1.2" fill="#e4c388" opacity="0.38" /><circle cx="823.7" cy="838.6" r="0.6" fill="#e4c388" opacity="0.19" /><circle cx="1518.5" cy="456.8" r="1.1" fill="#e4c388" opacity="0.41" /><circle cx="803.9" cy="344.4" r="1.4" fill="#e4c388" opacity="0.30" /><circle cx="692.6" cy="827.4" r="1.5" fill="#e4c388" opacity="0.17" /><circle cx="915.6" cy="125.5" r="0.4" fill="#e4c388" opacity="0.29" /><circle cx="858.8" cy="738.7" r="1.6" fill="#e4c388" opacity="0.40" /><circle cx="297.3" cy="294.2" r="0.4" fill="#e4c388" opacity="0.45" /><circle cx="330.3" cy="270.3" r="0.5" fill="#e4c388" opacity="0.41" /><circle cx="1007.5" cy="816.6" r="1.3" fill="#e4c388" opacity="0.51" /><circle cx="298.0" cy="450.6" r="0.5" fill="#e4c388" opacity="0.46" /><circle cx="521.5" cy="127.8" r="1.5" fill="#e4c388" opacity="0.25" /><circle cx="619.3" cy="367.9" r="0.6" fill="#e4c388" opacity="0.57" /><circle cx="752.8" cy="457.1" r="1.1" fill="#e4c388" opacity="0.51" /><circle cx="704.7" cy="432.9" r="1.5" fill="#e4c388" opacity="0.32" /><circle cx="451.7" cy="747.4" r="0.5" fill="#e4c388" opacity="0.51" /><circle cx="1176.8" cy="719.2" r="0.9" fill="#e4c388" opacity="0.19" /><circle cx="1217.2" cy="343.9" r="1.5" fill="#e4c388" opacity="0.13" /><circle cx="754.1" cy="684.6" r="1.2" fill="#e4c388" opacity="0.50" /><circle cx="1291.9" cy="477.0" r="1.0" fill="#e4c388" opacity="0.27" /><circle cx="569.3" cy="702.3" r="1.1" fill="#e4c388" opacity="0.56" /><circle cx="74.2" cy="253.7" r="1.1" fill="#e4c388" opacity="0.55" /><circle cx="92.7" cy="546.8" r="1.0" fill="#e4c388" opacity="0.22" /><circle cx="705.9" cy="815.9" r="0.7" fill="#e4c388" opacity="0.57" /><circle cx="496.6" cy="410.8" r="0.5" fill="#e4c388" opacity="0.25" /><circle cx="655.0" cy="110.2" r="0.9" fill="#e4c388" opacity="0.53" /><circle cx="1423.4" cy="820.4" r="0.5" fill="#e4c388" opacity="0.41" /><circle cx="268.7" cy="595.8" r="1.6" fill="#e4c388" opacity="0.31" /><circle cx="310.6" cy="184.8" r="0.6" fill="#e4c388" opacity="0.26" /><circle cx="750.7" cy="742.2" r="0.7" fill="#e4c388" opacity="0.33" /><circle cx="1389.3" cy="822.8" r="1.1" fill="#e4c388" opacity="0.49" /><circle cx="1108.3" cy="285.9" r="1.0" fill="#e4c388" opacity="0.20" /><circle cx="1122.7" cy="577.9" r="0.8" fill="#e4c388" opacity="0.54" /><circle cx="98.7" cy="257.7" r="0.8" fill="#e4c388" opacity="0.21" /><circle cx="1160.7" cy="608.0" r="0.8" fill="#e4c388" opacity="0.28" /><circle cx="444.3" cy="556.8" r="0.9" fill="#e4c388" opacity="0.18" /><circle cx="1424.9" cy="412.2" r="1.1" fill="#e4c388" opacity="0.19" /><circle cx="1163.2" cy="566.8" r="0.8" fill="#e4c388" opacity="0.22" /><circle cx="114.5" cy="212.5" r="1.0" fill="#e4c388" opacity="0.31" /><circle cx="1201.3" cy="255.5" r="1.1" fill="#e4c388" opacity="0.59" /><circle cx="248.5" cy="534.2" r="0.5" fill="#e4c388" opacity="0.45" /><circle cx="1436.7" cy="487.9" r="1.5" fill="#e4c388" opacity="0.53" /><circle cx="1247.1" cy="581.8" r="1.3" fill="#e4c388" opacity="0.28" /><circle cx="1205.0" cy="757.8" r="1.3" fill="#e4c388" opacity="0.46" /><circle cx="555.9" cy="620.8" r="1.3" fill="#e4c388" opacity="0.48" /><circle cx="164.2" cy="302.4" r="1.1" fill="#e4c388" opacity="0.44" /><circle cx="280.8" cy="203.1" r="0.5" fill="#e4c388" opacity="0.45" /><circle cx="624.9" cy="632.5" r="0.4" fill="#e4c388" opacity="0.50" /><circle cx="561.0" cy="94.0" r="0.6" fill="#e4c388" opacity="0.40" /><circle cx="888.6" cy="787.1" r="0.6" fill="#e4c388" opacity="0.43" /><circle cx="368.9" cy="137.8" r="1.1" fill="#e4c388" opacity="0.27" /><circle cx="1139.3" cy="796.1" r="1.4" fill="#e4c388" opacity="0.14" /><circle cx="338.6" cy="209.8" r="0.9" fill="#e4c388" opacity="0.50" /><circle cx="512.5" cy="293.7" r="0.5" fill="#e4c388" opacity="0.51" /><circle cx="1223.0" cy="111.1" r="0.6" fill="#e4c388" opacity="0.48" /><circle cx="1539.2" cy="707.1" r="0.6" fill="#e4c388" opacity="0.18" /><circle cx="1174.0" cy="503.8" r="0.6" fill="#e4c388" opacity="0.17" /><circle cx="787.3" cy="499.5" r="1.1" fill="#e4c388" opacity="0.54" /><circle cx="726.1" cy="672.9" r="1.4" fill="#e4c388" opacity="0.18" /><circle cx="915.2" cy="821.1" r="1.3" fill="#e4c388" opacity="0.46" /><circle cx="519.0" cy="361.6" r="0.6" fill="#e4c388" opacity="0.34" /><circle cx="1085.2" cy="823.2" r="1.1" fill="#e4c388" opacity="0.58" /><circle cx="1222.1" cy="654.8" r="1.0" fill="#e4c388" opacity="0.29" /><circle cx="1211.1" cy="367.1" r="1.3" fill="#e4c388" opacity="0.29" /><circle cx="1399.3" cy="830.1" r="1.2" fill="#e4c388" opacity="0.23" /><circle cx="892.4" cy="290.3" r="0.6" fill="#e4c388" opacity="0.31" /><circle cx="85.7" cy="735.0" r="1.6" fill="#e4c388" opacity="0.24" /><circle cx="205.6" cy="737.5" r="0.4" fill="#e4c388" opacity="0.15" /><circle cx="249.4" cy="186.0" r="1.4" fill="#e4c388" opacity="0.50" /><circle cx="588.8" cy="247.5" r="1.1" fill="#e4c388" opacity="0.50" /><circle cx="1421.9" cy="824.4" r="0.6" fill="#e4c388" opacity="0.19" /><circle cx="1539.4" cy="84.6" r="0.9" fill="#e4c388" opacity="0.13" /><circle cx="88.4" cy="427.2" r="0.5" fill="#e4c388" opacity="0.12" /><circle cx="503.8" cy="588.7" r="0.9" fill="#e4c388" opacity="0.17" /><circle cx="238.8" cy="97.3" r="0.5" fill="#e4c388" opacity="0.53" /><circle cx="584.6" cy="414.7" r="0.7" fill="#e4c388" opacity="0.38" /><circle cx="1089.1" cy="792.6" r="0.9" fill="#e4c388" opacity="0.19" /><circle cx="227.5" cy="179.8" r="0.7" fill="#e4c388" opacity="0.46" /><circle cx="372.6" cy="492.1" r="0.6" fill="#e4c388" opacity="0.32" /><circle cx="847.8" cy="272.7" r="0.8" fill="#e4c388" opacity="0.56" /><circle cx="186.4" cy="655.6" r="0.9" fill="#e4c388" opacity="0.13" /><circle cx="846.2" cy="737.1" r="1.6" fill="#e4c388" opacity="0.30" /><circle cx="699.9" cy="243.2" r="1.3" fill="#e4c388" opacity="0.25" /><circle cx="965.4" cy="560.6" r="1.4" fill="#e4c388" opacity="0.16" /><circle cx="689.4" cy="863.5" r="1.0" fill="#e4c388" opacity="0.50" /><circle cx="1008.0" cy="650.5" r="0.5" fill="#e4c388" opacity="0.56" /><circle cx="1421.5" cy="237.7" r="1.4" fill="#e4c388" opacity="0.56" /><circle cx="502.9" cy="586.5" r="0.4" fill="#e4c388" opacity="0.46" /><circle cx="575.6" cy="845.4" r="0.7" fill="#e4c388" opacity="0.50" /><circle cx="914.4" cy="481.8" r="0.8" fill="#e4c388" opacity="0.25" /><circle cx="1146.7" cy="804.1" r="1.4" fill="#e4c388" opacity="0.13" /><circle cx="147.4" cy="308.3" r="0.7" fill="#e4c388" opacity="0.44" /><circle cx="176.0" cy="699.6" r="1.2" fill="#e4c388" opacity="0.57" /><circle cx="1182.9" cy="587.4" r="0.6" fill="#e4c388" opacity="0.52" /><circle cx="1372.3" cy="82.5" r="0.5" fill="#e4c388" opacity="0.47" /><circle cx="583.1" cy="703.2" r="1.3" fill="#e4c388" opacity="0.39" /><circle cx="1368.9" cy="574.2" r="0.8" fill="#e4c388" opacity="0.41" /><circle cx="1279.0" cy="825.9" r="0.6" fill="#e4c388" opacity="0.40" /><circle cx="200.0" cy="420.7" r="1.2" fill="#e4c388" opacity="0.35" /><circle cx="1459.4" cy="408.6" r="0.9" fill="#e4c388" opacity="0.41" /><circle cx="974.8" cy="274.6" r="1.5" fill="#e4c388" opacity="0.33" /><circle cx="1334.7" cy="263.3" r="0.4" fill="#e4c388" opacity="0.14" /><circle cx="357.4" cy="329.8" r="0.4" fill="#e4c388" opacity="0.58" /><circle cx="1372.5" cy="634.9" r="1.5" fill="#e4c388" opacity="0.35" /><circle cx="884.7" cy="825.7" r="0.4" fill="#e4c388" opacity="0.21" /><circle cx="1080.4" cy="295.6" r="1.4" fill="#e4c388" opacity="0.25" /><circle cx="994.7" cy="753.5" r="1.5" fill="#e4c388" opacity="0.14" /><circle cx="102.4" cy="501.1" r="0.4" fill="#e4c388" opacity="0.20" /><path d="M 486.0 895 C 406.0 710 419.7 530 419.7 477.5" fill="none" stroke="#acd1be" stroke-width="1" opacity=".7" /><ellipse cx="438.7" cy="477.5" rx="6" ry="17" transform="rotate(0.0 438.7 477.5)" fill="none" stroke="#acd1be" opacity=".75" /><ellipse cx="431.5" cy="492.3" rx="6" ry="17" transform="rotate(51.4 431.5 492.3)" fill="none" stroke="#acd1be" opacity=".75" /><ellipse cx="415.5" cy="496.0" rx="6" ry="17" transform="rotate(102.9 415.5 496.0)" fill="none" stroke="#acd1be" opacity=".75" /><ellipse cx="402.6" cy="485.7" rx="6" ry="17" transform="rotate(154.3 402.6 485.7)" fill="none" stroke="#acd1be" opacity=".75" /><ellipse cx="402.6" cy="469.2" rx="6" ry="17" transform="rotate(205.7 402.6 469.2)" fill="none" stroke="#acd1be" opacity=".75" /><ellipse cx="415.5" cy="458.9" rx="6" ry="17" transform="rotate(257.1 415.5 458.9)" fill="none" stroke="#acd1be" opacity=".75" /><ellipse cx="431.5" cy="462.6" rx="6" ry="17" transform="rotate(308.6 431.5 462.6)" fill="none" stroke="#acd1be" opacity=".75" /><circle cx="419.7" cy="477.5" r="5" fill="#acd1be" /><path d="M 535.9 895 C 455.9 710 455.5 530 455.5 164.9" fill="none" stroke="#e4c388" stroke-width="1" opacity=".7" /><ellipse cx="474.5" cy="164.9" rx="6" ry="17" transform="rotate(0.0 474.5 164.9)" fill="none" stroke="#e4c388" opacity=".75" /><ellipse cx="467.4" cy="179.7" rx="6" ry="17" transform="rotate(51.4 467.4 179.7)" fill="none" stroke="#e4c388" opacity=".75" /><ellipse cx="451.3" cy="183.4" rx="6" ry="17" transform="rotate(102.9 451.3 183.4)" fill="none" stroke="#e4c388" opacity=".75" /><ellipse cx="438.4" cy="173.1" rx="6" ry="17" transform="rotate(154.3 438.4 173.1)" fill="none" stroke="#e4c388" opacity=".75" /><ellipse cx="438.4" cy="156.6" rx="6" ry="17" transform="rotate(205.7 438.4 156.6)" fill="none" stroke="#e4c388" opacity=".75" /><ellipse cx="451.3" cy="146.3" rx="6" ry="17" transform="rotate(257.1 451.3 146.3)" fill="none" stroke="#e4c388" opacity=".75" /><ellipse cx="467.4" cy="150.0" rx="6" ry="17" transform="rotate(308.6 467.4 150.0)" fill="none" stroke="#e4c388" opacity=".75" /><circle cx="455.5" cy="164.9" r="5" fill="#e4c388" /><path d="M 575.5 895 C 495.5 710 603.5 530 603.5 708.0" fill="none" stroke="#ece5d3" stroke-width="1" opacity=".7" /><ellipse cx="622.5" cy="708.0" rx="6" ry="17" transform="rotate(0.0 622.5 708.0)" fill="none" stroke="#ece5d3" opacity=".75" /><ellipse cx="615.4" cy="722.9" rx="6" ry="17" transform="rotate(51.4 615.4 722.9)" fill="none" stroke="#ece5d3" opacity=".75" /><ellipse cx="599.3" cy="726.6" rx="6" ry="17" transform="rotate(102.9 599.3 726.6)" fill="none" stroke="#ece5d3" opacity=".75" /><ellipse cx="586.4" cy="716.3" rx="6" ry="17" transform="rotate(154.3 586.4 716.3)" fill="none" stroke="#ece5d3" opacity=".75" /><ellipse cx="586.4" cy="699.8" rx="6" ry="17" transform="rotate(205.7 586.4 699.8)" fill="none" stroke="#ece5d3" opacity=".75" /><ellipse cx="599.3" cy="689.5" rx="6" ry="17" transform="rotate(257.1 599.3 689.5)" fill="none" stroke="#ece5d3" opacity=".75" /><ellipse cx="615.4" cy="693.2" rx="6" ry="17" transform="rotate(308.6 615.4 693.2)" fill="none" stroke="#ece5d3" opacity=".75" /><circle cx="603.5" cy="708.0" r="5" fill="#ece5d3" /><path d="M 623.9 895 C 543.9 710 675.3 530 675.3 344.8" fill="none" stroke="#6fa49e" stroke-width="1" opacity=".7" /><ellipse cx="694.3" cy="344.8" rx="6" ry="17" transform="rotate(0.0 694.3 344.8)" fill="none" stroke="#6fa49e" opacity=".75" /><ellipse cx="687.1" cy="359.7" rx="6" ry="17" transform="rotate(51.4 687.1 359.7)" fill="none" stroke="#6fa49e" opacity=".75" /><ellipse cx="671.1" cy="363.3" rx="6" ry="17" transform="rotate(102.9 671.1 363.3)" fill="none" stroke="#6fa49e" opacity=".75" /><ellipse cx="658.2" cy="353.1" rx="6" ry="17" transform="rotate(154.3 658.2 353.1)" fill="none" stroke="#6fa49e" opacity=".75" /><ellipse cx="658.2" cy="336.6" rx="6" ry="17" transform="rotate(205.7 658.2 336.6)" fill="none" stroke="#6fa49e" opacity=".75" /><ellipse cx="671.1" cy="326.3" rx="6" ry="17" transform="rotate(257.1 671.1 326.3)" fill="none" stroke="#6fa49e" opacity=".75" /><ellipse cx="687.1" cy="330.0" rx="6" ry="17" transform="rotate(308.6 687.1 330.0)" fill="none" stroke="#6fa49e" opacity=".75" /><circle cx="675.3" cy="344.8" r="5" fill="#6fa49e" /><path d="M 671.4 895 C 591.4 710 587.5 530 587.5 425.0" fill="none" stroke="#acd1be" stroke-width="1" opacity=".7" /><ellipse cx="606.5" cy="425.0" rx="6" ry="17" transform="rotate(0.0 606.5 425.0)" fill="none" stroke="#acd1be" opacity=".75" /><ellipse cx="599.3" cy="439.8" rx="6" ry="17" transform="rotate(51.4 599.3 439.8)" fill="none" stroke="#acd1be" opacity=".75" /><ellipse cx="583.3" cy="443.5" rx="6" ry="17" transform="rotate(102.9 583.3 443.5)" fill="none" stroke="#acd1be" opacity=".75" /><ellipse cx="570.4" cy="433.2" rx="6" ry="17" transform="rotate(154.3 570.4 433.2)" fill="none" stroke="#acd1be" opacity=".75" /><ellipse cx="570.4" cy="416.7" rx="6" ry="17" transform="rotate(205.7 570.4 416.7)" fill="none" stroke="#acd1be" opacity=".75" /><ellipse cx="583.3" cy="406.4" rx="6" ry="17" transform="rotate(257.1 583.3 406.4)" fill="none" stroke="#acd1be" opacity=".75" /><ellipse cx="599.3" cy="410.1" rx="6" ry="17" transform="rotate(308.6 599.3 410.1)" fill="none" stroke="#acd1be" opacity=".75" /><circle cx="587.5" cy="425.0" r="5" fill="#acd1be" /><path d="M 708.9 895 C 628.9 710 723.2 530 723.2 595.0" fill="none" stroke="#e4c388" stroke-width="1" opacity=".7" /><ellipse cx="742.2" cy="595.0" rx="6" ry="17" transform="rotate(0.0 742.2 595.0)" fill="none" stroke="#e4c388" opacity=".75" /><ellipse cx="735.1" cy="609.8" rx="6" ry="17" transform="rotate(51.4 735.1 609.8)" fill="none" stroke="#e4c388" opacity=".75" /><ellipse cx="719.0" cy="613.5" rx="6" ry="17" transform="rotate(102.9 719.0 613.5)" fill="none" stroke="#e4c388" opacity=".75" /><ellipse cx="706.1" cy="603.2" rx="6" ry="17" transform="rotate(154.3 706.1 603.2)" fill="none" stroke="#e4c388" opacity=".75" /><ellipse cx="706.1" cy="586.7" rx="6" ry="17" transform="rotate(205.7 706.1 586.7)" fill="none" stroke="#e4c388" opacity=".75" /><ellipse cx="719.0" cy="576.4" rx="6" ry="17" transform="rotate(257.1 719.0 576.4)" fill="none" stroke="#e4c388" opacity=".75" /><ellipse cx="735.1" cy="580.1" rx="6" ry="17" transform="rotate(308.6 735.1 580.1)" fill="none" stroke="#e4c388" opacity=".75" /><circle cx="723.2" cy="595.0" r="5" fill="#e4c388" /><path d="M 762.3 895 C 682.3 710 693.7 530 693.7 318.5" fill="none" stroke="#ece5d3" stroke-width="1" opacity=".7" /><ellipse cx="712.7" cy="318.5" rx="6" ry="17" transform="rotate(0.0 712.7 318.5)" fill="none" stroke="#ece5d3" opacity=".75" /><ellipse cx="705.5" cy="333.4" rx="6" ry="17" transform="rotate(51.4 705.5 333.4)" fill="none" stroke="#ece5d3" opacity=".75" /><ellipse cx="689.5" cy="337.1" rx="6" ry="17" transform="rotate(102.9 689.5 337.1)" fill="none" stroke="#ece5d3" opacity=".75" /><ellipse cx="676.6" cy="326.8" rx="6" ry="17" transform="rotate(154.3 676.6 326.8)" fill="none" stroke="#ece5d3" opacity=".75" /><ellipse cx="676.6" cy="310.3" rx="6" ry="17" transform="rotate(205.7 676.6 310.3)" fill="none" stroke="#ece5d3" opacity=".75" /><ellipse cx="689.5" cy="300.0" rx="6" ry="17" transform="rotate(257.1 689.5 300.0)" fill="none" stroke="#ece5d3" opacity=".75" /><ellipse cx="705.5" cy="303.7" rx="6" ry="17" transform="rotate(308.6 705.5 303.7)" fill="none" stroke="#ece5d3" opacity=".75" /><circle cx="693.7" cy="318.5" r="5" fill="#ece5d3" /><path d="M 784.9 895 C 704.9 710 709.7 530 709.7 732.4" fill="none" stroke="#6fa49e" stroke-width="1" opacity=".7" /><ellipse cx="728.7" cy="732.4" rx="6" ry="17" transform="rotate(0.0 728.7 732.4)" fill="none" stroke="#6fa49e" opacity=".75" /><ellipse cx="721.5" cy="747.3" rx="6" ry="17" transform="rotate(51.4 721.5 747.3)" fill="none" stroke="#6fa49e" opacity=".75" /><ellipse cx="705.5" cy="751.0" rx="6" ry="17" transform="rotate(102.9 705.5 751.0)" fill="none" stroke="#6fa49e" opacity=".75" /><ellipse cx="692.6" cy="740.7" rx="6" ry="17" transform="rotate(154.3 692.6 740.7)" fill="none" stroke="#6fa49e" opacity=".75" /><ellipse cx="692.6" cy="724.2" rx="6" ry="17" transform="rotate(205.7 692.6 724.2)" fill="none" stroke="#6fa49e" opacity=".75" /><ellipse cx="705.5" cy="713.9" rx="6" ry="17" transform="rotate(257.1 705.5 713.9)" fill="none" stroke="#6fa49e" opacity=".75" /><ellipse cx="721.5" cy="717.6" rx="6" ry="17" transform="rotate(308.6 721.5 717.6)" fill="none" stroke="#6fa49e" opacity=".75" /><circle cx="709.7" cy="732.4" r="5" fill="#6fa49e" /><path d="M 859.7 895 C 779.7 710 922.1 530 922.1 485.8" fill="none" stroke="#acd1be" stroke-width="1" opacity=".7" /><ellipse cx="941.1" cy="485.8" rx="6" ry="17" transform="rotate(0.0 941.1 485.8)" fill="none" stroke="#acd1be" opacity=".75" /><ellipse cx="934.0" cy="500.7" rx="6" ry="17" transform="rotate(51.4 934.0 500.7)" fill="none" stroke="#acd1be" opacity=".75" /><ellipse cx="917.9" cy="504.3" rx="6" ry="17" transform="rotate(102.9 917.9 504.3)" fill="none" stroke="#acd1be" opacity=".75" /><ellipse cx="905.0" cy="494.0" rx="6" ry="17" transform="rotate(154.3 905.0 494.0)" fill="none" stroke="#acd1be" opacity=".75" /><ellipse cx="905.0" cy="477.6" rx="6" ry="17" transform="rotate(205.7 905.0 477.6)" fill="none" stroke="#acd1be" opacity=".75" /><ellipse cx="917.9" cy="467.3" rx="6" ry="17" transform="rotate(257.1 917.9 467.3)" fill="none" stroke="#acd1be" opacity=".75" /><ellipse cx="934.0" cy="470.9" rx="6" ry="17" transform="rotate(308.6 934.0 470.9)" fill="none" stroke="#acd1be" opacity=".75" /><circle cx="922.1" cy="485.8" r="5" fill="#acd1be" /><path d="M 880.7 895 C 800.7 710 845.2 530 845.2 166.7" fill="none" stroke="#e4c388" stroke-width="1" opacity=".7" /><ellipse cx="864.2" cy="166.7" rx="6" ry="17" transform="rotate(0.0 864.2 166.7)" fill="none" stroke="#e4c388" opacity=".75" /><ellipse cx="857.1" cy="181.6" rx="6" ry="17" transform="rotate(51.4 857.1 181.6)" fill="none" stroke="#e4c388" opacity=".75" /><ellipse cx="841.0" cy="185.2" rx="6" ry="17" transform="rotate(102.9 841.0 185.2)" fill="none" stroke="#e4c388" opacity=".75" /><ellipse cx="828.1" cy="174.9" rx="6" ry="17" transform="rotate(154.3 828.1 174.9)" fill="none" stroke="#e4c388" opacity=".75" /><ellipse cx="828.1" cy="158.5" rx="6" ry="17" transform="rotate(205.7 828.1 158.5)" fill="none" stroke="#e4c388" opacity=".75" /><ellipse cx="841.0" cy="148.2" rx="6" ry="17" transform="rotate(257.1 841.0 148.2)" fill="none" stroke="#e4c388" opacity=".75" /><ellipse cx="857.1" cy="151.8" rx="6" ry="17" transform="rotate(308.6 857.1 151.8)" fill="none" stroke="#e4c388" opacity=".75" /><circle cx="845.2" cy="166.7" r="5" fill="#e4c388" /><path d="M 910.7 895 C 830.7 710 905.6 530 905.6 394.2" fill="none" stroke="#ece5d3" stroke-width="1" opacity=".7" /><ellipse cx="924.6" cy="394.2" rx="6" ry="17" transform="rotate(0.0 924.6 394.2)" fill="none" stroke="#ece5d3" opacity=".75" /><ellipse cx="917.5" cy="409.0" rx="6" ry="17" transform="rotate(51.4 917.5 409.0)" fill="none" stroke="#ece5d3" opacity=".75" /><ellipse cx="901.4" cy="412.7" rx="6" ry="17" transform="rotate(102.9 901.4 412.7)" fill="none" stroke="#ece5d3" opacity=".75" /><ellipse cx="888.5" cy="402.4" rx="6" ry="17" transform="rotate(154.3 888.5 402.4)" fill="none" stroke="#ece5d3" opacity=".75" /><ellipse cx="888.5" cy="385.9" rx="6" ry="17" transform="rotate(205.7 888.5 385.9)" fill="none" stroke="#ece5d3" opacity=".75" /><ellipse cx="901.4" cy="375.7" rx="6" ry="17" transform="rotate(257.1 901.4 375.7)" fill="none" stroke="#ece5d3" opacity=".75" /><ellipse cx="917.5" cy="379.3" rx="6" ry="17" transform="rotate(308.6 917.5 379.3)" fill="none" stroke="#ece5d3" opacity=".75" /><circle cx="905.6" cy="394.2" r="5" fill="#ece5d3" /><path d="M 976.1 895 C 896.1 710 1007.0 530 1007.0 211.0" fill="none" stroke="#6fa49e" stroke-width="1" opacity=".7" /><ellipse cx="1026.0" cy="211.0" rx="6" ry="17" transform="rotate(0.0 1026.0 211.0)" fill="none" stroke="#6fa49e" opacity=".75" /><ellipse cx="1018.8" cy="225.9" rx="6" ry="17" transform="rotate(51.4 1018.8 225.9)" fill="none" stroke="#6fa49e" opacity=".75" /><ellipse cx="1002.8" cy="229.6" rx="6" ry="17" transform="rotate(102.9 1002.8 229.6)" fill="none" stroke="#6fa49e" opacity=".75" /><ellipse cx="989.9" cy="219.3" rx="6" ry="17" transform="rotate(154.3 989.9 219.3)" fill="none" stroke="#6fa49e" opacity=".75" /><ellipse cx="989.9" cy="202.8" rx="6" ry="17" transform="rotate(205.7 989.9 202.8)" fill="none" stroke="#6fa49e" opacity=".75" /><ellipse cx="1002.8" cy="192.5" rx="6" ry="17" transform="rotate(257.1 1002.8 192.5)" fill="none" stroke="#6fa49e" opacity=".75" /><ellipse cx="1018.8" cy="196.2" rx="6" ry="17" transform="rotate(308.6 1018.8 196.2)" fill="none" stroke="#6fa49e" opacity=".75" /><circle cx="1007.0" cy="211.0" r="5" fill="#6fa49e" /><path d="M 1009.8 895 C 929.8 710 1096.3 530 1096.3 196.0" fill="none" stroke="#acd1be" stroke-width="1" opacity=".7" /><ellipse cx="1115.3" cy="196.0" rx="6" ry="17" transform="rotate(0.0 1115.3 196.0)" fill="none" stroke="#acd1be" opacity=".75" /><ellipse cx="1108.1" cy="210.9" rx="6" ry="17" transform="rotate(51.4 1108.1 210.9)" fill="none" stroke="#acd1be" opacity=".75" /><ellipse cx="1092.0" cy="214.5" rx="6" ry="17" transform="rotate(102.9 1092.0 214.5)" fill="none" stroke="#acd1be" opacity=".75" /><ellipse cx="1079.1" cy="204.3" rx="6" ry="17" transform="rotate(154.3 1079.1 204.3)" fill="none" stroke="#acd1be" opacity=".75" /><ellipse cx="1079.1" cy="187.8" rx="6" ry="17" transform="rotate(205.7 1079.1 187.8)" fill="none" stroke="#acd1be" opacity=".75" /><ellipse cx="1092.0" cy="177.5" rx="6" ry="17" transform="rotate(257.1 1092.0 177.5)" fill="none" stroke="#acd1be" opacity=".75" /><ellipse cx="1108.1" cy="181.2" rx="6" ry="17" transform="rotate(308.6 1108.1 181.2)" fill="none" stroke="#acd1be" opacity=".75" /><circle cx="1096.3" cy="196.0" r="5" fill="#acd1be" /><path d="M 1065.5 895 C 985.5 710 1086.9 530 1086.9 163.0" fill="none" stroke="#e4c388" stroke-width="1" opacity=".7" /><ellipse cx="1105.9" cy="163.0" rx="6" ry="17" transform="rotate(0.0 1105.9 163.0)" fill="none" stroke="#e4c388" opacity=".75" /><ellipse cx="1098.7" cy="177.8" rx="6" ry="17" transform="rotate(51.4 1098.7 177.8)" fill="none" stroke="#e4c388" opacity=".75" /><ellipse cx="1082.6" cy="181.5" rx="6" ry="17" transform="rotate(102.9 1082.6 181.5)" fill="none" stroke="#e4c388" opacity=".75" /><ellipse cx="1069.7" cy="171.2" rx="6" ry="17" transform="rotate(154.3 1069.7 171.2)" fill="none" stroke="#e4c388" opacity=".75" /><ellipse cx="1069.7" cy="154.7" rx="6" ry="17" transform="rotate(205.7 1069.7 154.7)" fill="none" stroke="#e4c388" opacity=".75" /><ellipse cx="1082.6" cy="144.4" rx="6" ry="17" transform="rotate(257.1 1082.6 144.4)" fill="none" stroke="#e4c388" opacity=".75" /><ellipse cx="1098.7" cy="148.1" rx="6" ry="17" transform="rotate(308.6 1098.7 148.1)" fill="none" stroke="#e4c388" opacity=".75" /><circle cx="1086.9" cy="163.0" r="5" fill="#e4c388" /><path d="M 1100.9 895 C 1020.9 710 996.7 530 996.7 245.7" fill="none" stroke="#ece5d3" stroke-width="1" opacity=".7" /><ellipse cx="1015.7" cy="245.7" rx="6" ry="17" transform="rotate(0.0 1015.7 245.7)" fill="none" stroke="#ece5d3" opacity=".75" /><ellipse cx="1008.5" cy="260.6" rx="6" ry="17" transform="rotate(51.4 1008.5 260.6)" fill="none" stroke="#ece5d3" opacity=".75" /><ellipse cx="992.4" cy="264.2" rx="6" ry="17" transform="rotate(102.9 992.4 264.2)" fill="none" stroke="#ece5d3" opacity=".75" /><ellipse cx="979.5" cy="254.0" rx="6" ry="17" transform="rotate(154.3 979.5 254.0)" fill="none" stroke="#ece5d3" opacity=".75" /><ellipse cx="979.5" cy="237.5" rx="6" ry="17" transform="rotate(205.7 979.5 237.5)" fill="none" stroke="#ece5d3" opacity=".75" /><ellipse cx="992.4" cy="227.2" rx="6" ry="17" transform="rotate(257.1 992.4 227.2)" fill="none" stroke="#ece5d3" opacity=".75" /><ellipse cx="1008.5" cy="230.9" rx="6" ry="17" transform="rotate(308.6 1008.5 230.9)" fill="none" stroke="#ece5d3" opacity=".75" /><circle cx="996.7" cy="245.7" r="5" fill="#ece5d3" /><path d="M 1174.7 895 C 1094.7 710 1246.9 530 1246.9 396.2" fill="none" stroke="#6fa49e" stroke-width="1" opacity=".7" /><ellipse cx="1265.9" cy="396.2" rx="6" ry="17" transform="rotate(0.0 1265.9 396.2)" fill="none" stroke="#6fa49e" opacity=".75" /><ellipse cx="1258.8" cy="411.1" rx="6" ry="17" transform="rotate(51.4 1258.8 411.1)" fill="none" stroke="#6fa49e" opacity=".75" /><ellipse cx="1242.7" cy="414.8" rx="6" ry="17" transform="rotate(102.9 1242.7 414.8)" fill="none" stroke="#6fa49e" opacity=".75" /><ellipse cx="1229.8" cy="404.5" rx="6" ry="17" transform="rotate(154.3 1229.8 404.5)" fill="none" stroke="#6fa49e" opacity=".75" /><ellipse cx="1229.8" cy="388.0" rx="6" ry="17" transform="rotate(205.7 1229.8 388.0)" fill="none" stroke="#6fa49e" opacity=".75" /><ellipse cx="1242.7" cy="377.7" rx="6" ry="17" transform="rotate(257.1 1242.7 377.7)" fill="none" stroke="#6fa49e" opacity=".75" /><ellipse cx="1258.8" cy="381.4" rx="6" ry="17" transform="rotate(308.6 1258.8 381.4)" fill="none" stroke="#6fa49e" opacity=".75" /><circle cx="1246.9" cy="396.2" r="5" fill="#6fa49e" /><path d="M 1211.8 895 C 1131.8 710 1197.0 530 1197.0 339.0" fill="none" stroke="#acd1be" stroke-width="1" opacity=".7" /><ellipse cx="1216.0" cy="339.0" rx="6" ry="17" transform="rotate(0.0 1216.0 339.0)" fill="none" stroke="#acd1be" opacity=".75" /><ellipse cx="1208.8" cy="353.9" rx="6" ry="17" transform="rotate(51.4 1208.8 353.9)" fill="none" stroke="#acd1be" opacity=".75" /><ellipse cx="1192.8" cy="357.6" rx="6" ry="17" transform="rotate(102.9 1192.8 357.6)" fill="none" stroke="#acd1be" opacity=".75" /><ellipse cx="1179.9" cy="347.3" rx="6" ry="17" transform="rotate(154.3 1179.9 347.3)" fill="none" stroke="#acd1be" opacity=".75" /><ellipse cx="1179.9" cy="330.8" rx="6" ry="17" transform="rotate(205.7 1179.9 330.8)" fill="none" stroke="#acd1be" opacity=".75" /><ellipse cx="1192.8" cy="320.5" rx="6" ry="17" transform="rotate(257.1 1192.8 320.5)" fill="none" stroke="#acd1be" opacity=".75" /><ellipse cx="1208.8" cy="324.2" rx="6" ry="17" transform="rotate(308.6 1208.8 324.2)" fill="none" stroke="#acd1be" opacity=".75" /><circle cx="1197.0" cy="339.0" r="5" fill="#acd1be" /><path d="M 1243.2 895 C 1163.2 710 1322.9 530 1322.9 398.3" fill="none" stroke="#e4c388" stroke-width="1" opacity=".7" /><ellipse cx="1341.9" cy="398.3" rx="6" ry="17" transform="rotate(0.0 1341.9 398.3)" fill="none" stroke="#e4c388" opacity=".75" /><ellipse cx="1334.7" cy="413.2" rx="6" ry="17" transform="rotate(51.4 1334.7 413.2)" fill="none" stroke="#e4c388" opacity=".75" /><ellipse cx="1318.6" cy="416.9" rx="6" ry="17" transform="rotate(102.9 1318.6 416.9)" fill="none" stroke="#e4c388" opacity=".75" /><ellipse cx="1305.7" cy="406.6" rx="6" ry="17" transform="rotate(154.3 1305.7 406.6)" fill="none" stroke="#e4c388" opacity=".75" /><ellipse cx="1305.7" cy="390.1" rx="6" ry="17" transform="rotate(205.7 1305.7 390.1)" fill="none" stroke="#e4c388" opacity=".75" /><ellipse cx="1318.6" cy="379.8" rx="6" ry="17" transform="rotate(257.1 1318.6 379.8)" fill="none" stroke="#e4c388" opacity=".75" /><ellipse cx="1334.7" cy="383.5" rx="6" ry="17" transform="rotate(308.6 1334.7 383.5)" fill="none" stroke="#e4c388" opacity=".75" /><circle cx="1322.9" cy="398.3" r="5" fill="#e4c388" /><path d="M 1284.2 895 C 1204.2 710 1317.0 530 1317.0 160.2" fill="none" stroke="#ece5d3" stroke-width="1" opacity=".7" /><ellipse cx="1336.0" cy="160.2" rx="6" ry="17" transform="rotate(0.0 1336.0 160.2)" fill="none" stroke="#ece5d3" opacity=".75" /><ellipse cx="1328.8" cy="175.0" rx="6" ry="17" transform="rotate(51.4 1328.8 175.0)" fill="none" stroke="#ece5d3" opacity=".75" /><ellipse cx="1312.7" cy="178.7" rx="6" ry="17" transform="rotate(102.9 1312.7 178.7)" fill="none" stroke="#ece5d3" opacity=".75" /><ellipse cx="1299.8" cy="168.4" rx="6" ry="17" transform="rotate(154.3 1299.8 168.4)" fill="none" stroke="#ece5d3" opacity=".75" /><ellipse cx="1299.8" cy="152.0" rx="6" ry="17" transform="rotate(205.7 1299.8 152.0)" fill="none" stroke="#ece5d3" opacity=".75" /><ellipse cx="1312.7" cy="141.7" rx="6" ry="17" transform="rotate(257.1 1312.7 141.7)" fill="none" stroke="#ece5d3" opacity=".75" /><ellipse cx="1328.8" cy="145.3" rx="6" ry="17" transform="rotate(308.6 1328.8 145.3)" fill="none" stroke="#ece5d3" opacity=".75" /><circle cx="1317.0" cy="160.2" r="5" fill="#ece5d3" /><path d="M 1317.4 895 C 1237.4 710 1420.8 530 1420.8 574.3" fill="none" stroke="#6fa49e" stroke-width="1" opacity=".7" /><ellipse cx="1439.8" cy="574.3" rx="6" ry="17" transform="rotate(0.0 1439.8 574.3)" fill="none" stroke="#6fa49e" opacity=".75" /><ellipse cx="1432.6" cy="589.2" rx="6" ry="17" transform="rotate(51.4 1432.6 589.2)" fill="none" stroke="#6fa49e" opacity=".75" /><ellipse cx="1416.6" cy="592.8" rx="6" ry="17" transform="rotate(102.9 1416.6 592.8)" fill="none" stroke="#6fa49e" opacity=".75" /><ellipse cx="1403.7" cy="582.6" rx="6" ry="17" transform="rotate(154.3 1403.7 582.6)" fill="none" stroke="#6fa49e" opacity=".75" /><ellipse cx="1403.7" cy="566.1" rx="6" ry="17" transform="rotate(205.7 1403.7 566.1)" fill="none" stroke="#6fa49e" opacity=".75" /><ellipse cx="1416.6" cy="555.8" rx="6" ry="17" transform="rotate(257.1 1416.6 555.8)" fill="none" stroke="#6fa49e" opacity=".75" /><ellipse cx="1432.6" cy="559.5" rx="6" ry="17" transform="rotate(308.6 1432.6 559.5)" fill="none" stroke="#6fa49e" opacity=".75" /><circle cx="1420.8" cy="574.3" r="5" fill="#6fa49e" /><path d="M 1392.1 895 C 1312.1 710 1291.2 530 1291.2 579.6" fill="none" stroke="#acd1be" stroke-width="1" opacity=".7" /><ellipse cx="1310.2" cy="579.6" rx="6" ry="17" transform="rotate(0.0 1310.2 579.6)" fill="none" stroke="#acd1be" opacity=".75" /><ellipse cx="1303.1" cy="594.5" rx="6" ry="17" transform="rotate(51.4 1303.1 594.5)" fill="none" stroke="#acd1be" opacity=".75" /><ellipse cx="1287.0" cy="598.1" rx="6" ry="17" transform="rotate(102.9 1287.0 598.1)" fill="none" stroke="#acd1be" opacity=".75" /><ellipse cx="1274.1" cy="587.8" rx="6" ry="17" transform="rotate(154.3 1274.1 587.8)" fill="none" stroke="#acd1be" opacity=".75" /><ellipse cx="1274.1" cy="571.4" rx="6" ry="17" transform="rotate(205.7 1274.1 571.4)" fill="none" stroke="#acd1be" opacity=".75" /><ellipse cx="1287.0" cy="561.1" rx="6" ry="17" transform="rotate(257.1 1287.0 561.1)" fill="none" stroke="#acd1be" opacity=".75" /><ellipse cx="1303.1" cy="564.8" rx="6" ry="17" transform="rotate(308.6 1303.1 564.8)" fill="none" stroke="#acd1be" opacity=".75" /><circle cx="1291.2" cy="579.6" r="5" fill="#acd1be" /><path d="M 1433.5 895 C 1353.5 710 1477.0 530 1477.0 676.8" fill="none" stroke="#e4c388" stroke-width="1" opacity=".7" /><ellipse cx="1496.0" cy="676.8" rx="6" ry="17" transform="rotate(0.0 1496.0 676.8)" fill="none" stroke="#e4c388" opacity=".75" /><ellipse cx="1488.8" cy="691.7" rx="6" ry="17" transform="rotate(51.4 1488.8 691.7)" fill="none" stroke="#e4c388" opacity=".75" /><ellipse cx="1472.7" cy="695.3" rx="6" ry="17" transform="rotate(102.9 1472.7 695.3)" fill="none" stroke="#e4c388" opacity=".75" /><ellipse cx="1459.9" cy="685.1" rx="6" ry="17" transform="rotate(154.3 1459.9 685.1)" fill="none" stroke="#e4c388" opacity=".75" /><ellipse cx="1459.9" cy="668.6" rx="6" ry="17" transform="rotate(205.7 1459.9 668.6)" fill="none" stroke="#e4c388" opacity=".75" /><ellipse cx="1472.7" cy="658.3" rx="6" ry="17" transform="rotate(257.1 1472.7 658.3)" fill="none" stroke="#e4c388" opacity=".75" /><ellipse cx="1488.8" cy="662.0" rx="6" ry="17" transform="rotate(308.6 1488.8 662.0)" fill="none" stroke="#e4c388" opacity=".75" /><circle cx="1477.0" cy="676.8" r="5" fill="#e4c388" /></svg>