<?xml version='1.0' encoding='utf-8'?>
<svg width="1600" height="1000" viewBox="0 0 1600 1000" xmlns="http://www.w3.org/2000/svg"><defs><radialGradient id="paint0"><stop stop-color="#234746" /><stop offset="1" stop-color="#091f25" /></radialGradient></defs><rect width="1600" height="1000" fill="url(#paint0)" /><rect x="32" y="32" width="1536" height="936" rx="3" fill="none" stroke="#b4a277" stroke-opacity=".45" /><circle cx="1300.0" cy="629.6" r="1.2" fill="#e4c388" opacity="0.28" /><circle cx="1402.9" cy="598.6" r="1.3" fill="#e4c388" opacity="0.44" /><circle cx="129.1" cy="278.1" r="0.6" fill="#e4c388" opacity="0.41" /><circle cx="336.1" cy="852.5" r="0.5" fill="#e4c388" opacity="0.23" /><circle cx="1344.6" cy="838.3" r="1.3" fill="#e4c388" opacity="0.33" /><circle cx="1524.0" cy="197.4" r="0.6" fill="#e4c388" opacity="0.21" /><circle cx="1302.7" cy="533.4" r="1.1" fill="#e4c388" opacity="0.20" /><circle cx="223.2" cy="634.2" r="1.0" fill="#e4c388" opacity="0.14" /><circle cx="491.1" cy="753.6" r="1.1" fill="#e4c388" opacity="0.27" /><circle cx="285.4" cy="534.8" r="1.2" fill="#e4c388" opacity="0.58" /><circle cx="1145.3" cy="214.2" r="1.6" fill="#e4c388" opacity="0.22" /><circle cx="687.7" cy="388.5" r="1.2" fill="#e4c388" opacity="0.27" /><circle cx="1347.0" cy="580.8" r="1.2" fill="#e4c388" opacity="0.44" /><circle cx="744.8" cy="468.7" r="0.5" fill="#e4c388" opacity="0.30" /><circle cx="1009.4" cy="152.9" r="0.9" fill="#e4c388" opacity="0.56" /><circle cx="1384.9" cy="503.7" r="1.6" fill="#e4c388" opacity="0.25" /><circle cx="258.1" cy="184.8" r="0.6" fill="#e4c388" opacity="0.23" /><circle cx="729.3" cy="469.8" r="0.6" fill="#e4c388" opacity="0.35" /><circle cx="1248.0" cy="534.3" r="0.9" fill="#e4c388" opacity="0.41" /><circle cx="766.7" cy="163.9" r="1.6" fill="#e4c388" opacity="0.55" /><circle cx="1167.8" cy="357.3" r="0.7" fill="#e4c388" opacity="0.20" /><circle cx="591.0" cy="591.5" r="0.6" fill="#e4c388" opacity="0.14" /><circle cx="1200.7" cy="351.9" r="1.4" fill="#e4c388" opacity="0.52" /><circle cx="710.6" cy="818.8" r="1.5" fill="#e4c388" opacity="0.36" /><circle cx="164.7" cy="582.6" r="1.4" fill="#e4c388" opacity="0.23" /><circle cx="999.5" cy="228.5" r="1.4" fill="#e4c388" opacity="0.53" /><circle cx="1240.9" cy="126.1" r="0.7" fill="#e4c388" opacity="0.13" /><circle cx="98.3" cy="347.5" r="1.5" fill="#e4c388" opacity="0.56" /><circle cx="834.4" cy="560.4" r="0.9" fill="#e4c388" opacity="0.13" /><circle cx="560.2" cy="232.3" r="0.8" fill="#e4c388" opacity="0.52" /><circle cx="283.9" cy="640.2" r="0.8" fill="#e4c388" opacity="0.15" /><circle cx="157.2" cy="473.6" r="0.8" fill="#e4c388" opacity="0.57" /><circle cx="359.6" cy="179.5" r="0.8" fill="#e4c388" opacity="0.31" /><circle cx="180.0" cy="426.7" r="1.3" fill="#e4c388" opacity="0.57" /><circle cx="1069.0" cy="366.3" r="1.5" fill="#e4c388" opacity="0.18" /><circle cx="656.1" cy="585.3" r="1.0" fill="#e4c388" opacity="0.44" /><circle cx="204.8" cy="125.2" r="1.0" fill="#e4c388" opacity="0.39" /><circle cx="1493.8" cy="304.4" r="0.7" fill="#e4c388" opacity="0.40" /><circle cx="281.9" cy="500.9" r="0.9" fill="#e4c388" opacity="0.45" /><circle cx="806.0" cy="239.9" r="1.6" fill="#e4c388" opacity="0.53" /><circle cx="548.7" cy="410.9" r="1.4" fill="#e4c388" opacity="0.16" /><circle cx="817.6" cy="669.3" r="0.8" fill="#e4c388" opacity="0.19" /><circle cx="1171.2" cy="246.4" r="1.3" fill="#e4c388" opacity="0.23" /><circle cx="1258.4" cy="249.8" r="0.7" fill="#e4c388" opacity="0.33" /><circle cx="1468.0" cy="846.3" r="1.3" fill="#e4c388" opacity="0.48" /><circle cx="929.4" cy="457.0" r="1.2" fill="#e4c388" opacity="0.28" /><circle cx="1176.2" cy="655.4" r="0.8" fill="#e4c388" opacity="0.39" /><circle cx="1378.4" cy="174.7" r="0.7" fill="#e4c388" opacity="0.25" /><circle cx="1066.2" cy="440.2" r="1.3" fill="#e4c388" opacity="0.52" /><circle cx="168.2" cy="400.2" r="1.6" fill="#e4c388" opacity="0.44" /><circle cx="1325.8" cy="528.4" r="1.5" fill="#e4c388" opacity="0.17" /><circle cx="1222.3" cy="463.0" r="0.4" fill="#e4c388" opacity="0.34" /><circle cx="297.1" cy="734.4" r="1.1" fill="#e4c388" opacity="0.18" /><circle cx="1002.2" cy="163.0" r="1.3" fill="#e4c388" opacity="0.58" /><circle cx="1040.5" cy="789.0" r="1.0" fill="#e4c388" opacity="0.40" /><circle cx="1082.6" cy="729.5" r="1.0" fill="#e4c388" opacity="0.60" /><circle cx="1389.6" cy="479.4" r="1.0" fill="#e4c388" opacity="0.56" /><circle cx="1443.6" cy="637.5" r="1.1" fill="#e4c388" opacity="0.22" /><circle cx="565.5" cy="854.3" r="1.5" fill="#e4c388" opacity="0.19" /><circle cx="366.4" cy="167.0" r="1.1" fill="#e4c388" opacity="0.38" /><circle cx="281.2" cy="313.1" r="1.4" fill="#e4c388" opacity="0.50" /><circle cx="1149.1" cy="256.6" r="1.0" fill="#e4c388" opacity="0.44" /><circle cx="666.9" cy="499.9" r="0.6" fill="#e4c388" opacity="0.54" /><circle cx="268.9" cy="263.8" r="0.7" fill="#e4c388" opacity="0.39" /><circle cx="1193.7" cy="151.9" r="0.8" fill="#e4c388" opacity="0.50" /><circle cx="278.8" cy="308.0" r="0.9" fill="#e4c388" opacity="0.36" /><circle cx="1363.9" cy="343.6" r="0.6" fill="#e4c388" opacity="0.30" /><circle cx="79.2" cy="395.7" r="0.9" fill="#e4c388" opacity="0.57" /><circle cx="501.0" cy="216.3" r="1.3" fill="#e4c388" opacity="0.28" /><circle cx="378.7" cy="632.8" r="0.9" fill="#e4c388" opacity="0.58" /><circle cx="1379.7" cy="454.8" r="0.7" fill="#e4c388" opacity="0.56" /><circle cx="279.8" cy="671.4" r="0.5" fill="#e4c388" opacity="0.13" /><circle cx="227.6" cy="204.1" r="0.8" fill="#e4c388" opacity="0.27" /><circle cx="358.5" cy="271.7" r="0.6" fill="#e4c388" opacity="0.42" /><circle cx="1409.2" cy="837.3" r="1.1" fill="#e4c388" opacity="0.12" /><circle cx="686.9" cy="342.4" r="0.5" fill="#e4c388" opacity="0.14" /><circle cx="993.7" cy="810.8" r="0.7" fill="#e4c388" opacity="0.16" /><circle cx="1137.1" cy="499.8" r="0.7" fill="#e4c388" opacity="0.42" /><circle cx="893.1" cy="521.6" r="1.0" fill="#e4c388" opacity="0.25" /><circle cx="1263.3" cy="751.5" r="0.6" fill="#e4c388" opacity="0.44" /><circle cx="617.8" cy="384.1" r="1.4" fill="#e4c388" opacity="0.57" /><circle cx="1492.3" cy="458.9" r="1.4" fill="#e4c388" opacity="0.15" /><circle cx="1268.0" cy="452.9" r="0.8" fill="#e4c388" opacity="0.51" /><circle cx="790.6" cy="533.9" r="0.7" fill="#e4c388" opacity="0.30" /><circle cx="1482.5" cy="270.8" r="1.3" fill="#e4c388" opacity="0.58" /><circle cx="1359.7" cy="210.4" r="1.3" fill="#e4c388" opacity="0.24" /><circle cx="234.1" cy="411.8" r="0.7" fill="#e4c388" opacity="0.59" /><circle cx="343.7" cy="413.5" r="1.1" fill="#e4c388" opacity="0.57" /><circle cx="96.2" cy="197.2" r="0.8" fill="#e4c388" opacity="0.27" /><circle cx="891.6" cy="722.0" r="1.0" fill="#e4c388" opacity="0.25" /><circle cx="885.1" cy="72.4" r="1.5" fill="#e4c388" opacity="0.59" /><circle cx="581.5" cy="845.2" r="1.3" fill="#e4c388" opacity="0.14" /><circle cx="1329.1" cy="539.1" r="0.7" fill="#e4c388" opacity="0.44" /><circle cx="268.1" cy="238.8" r="1.5" fill="#e4c388" opacity="0.22" /><circle cx="72.4" cy="403.9" r="0.7" fill="#e4c388" opacity="0.56" /><circle cx="1394.9" cy="407.1" r="1.0" fill="#e4c388" opacity="0.47" /><circle cx="1364.4" cy="820.8" r="0.5" fill="#e4c388" opacity="0.56" /><circle cx="1335.7" cy="470.2" r="0.5" fill="#e4c388" opacity="0.26" /><circle cx="1456.8" cy="206.6" r="0.6" fill="#e4c388" opacity="0.44" /><circle cx="1282.1" cy="111.7" r="1.4" fill="#e4c388" opacity="0.28" /><circle cx="913.8" cy="793.3" r="1.0" fill="#e4c388" opacity="0.20" /><circle cx="1296.6" cy="760.4" r="1.1" fill="#e4c388" opacity="0.58" /><circle cx="65.6" cy="826.0" r="1.6" fill="#e4c388" opacity="0.50" /><circle cx="1351.5" cy="693.8" r="1.2" fill="#e4c388" opacity="0.56" /><circle cx="591.8" cy="308.7" r="1.1" fill="#e4c388" opacity="0.19" /><circle cx="617.2" cy="762.5" r="0.4" fill="#e4c388" opacity="0.23" /><circle cx="693.9" cy="268.9" r="1.0" fill="#e4c388" opacity="0.38" /><circle cx="562.7" cy="809.1" r="0.5" fill="#e4c388" opacity="0.34" /><circle cx="607.8" cy="371.5" r="0.8" fill="#e4c388" opacity="0.27" /><circle cx="904.1" cy="163.4" r="0.7" fill="#e4c388" opacity="0.29" /><circle cx="1212.9" cy="575.3" r="1.4" fill="#e4c388" opacity="0.22" /><circle cx="348.9" cy="649.3" r="1.2" fill="#e4c388" opacity="0.13" /><circle cx="176.5" cy="385.7" r="0.8" fill="#e4c388" opacity="0.35" /><circle cx="704.1" cy="761.3" r="0.4" fill="#e4c388" opacity="0.38" /><circle cx="873.8" cy="755.9" r="1.1" fill="#e4c388" opacity="0.25" /><circle cx="1275.8" cy="775.3" r="1.1" fill="#e4c388" opacity="0.30" /><circle cx="1046.0" cy="422.7" r="0.9" fill="#e4c388" opacity="0.19" /><circle cx="921.6" cy="313.4" r="1.3" fill="#e4c388" opacity="0.16" /><circle cx="1414.0" cy="568.6" r="0.5" fill="#e4c388" opacity="0.55" /><circle cx="1116.3" cy="555.8" r="1.6" fill="#e4c388" opacity="0.16" /><circle cx="407.2" cy="691.2" r="0.7" fill="#e4c388" opacity="0.13" /><circle cx="1063.9" cy="582.3" r="1.3" fill="#e4c388" opacity="0.37" /><circle cx="1497.6" cy="96.6" r="1.6" fill="#e4c388" opacity="0.55" /><circle cx="771.4" cy="514.4" r="1.3" fill="#e4c388" opacity="0.32" /><circle cx="607.1" cy="603.3" r="1.3" fill="#e4c388" opacity="0.39" /><circle cx="1205.0" cy="269.4" r="1.1" fill="#e4c388" opacity="0.45" /><circle cx="319.4" cy="781.3" r="0.6" fill="#e4c388" opacity="0.58" /><circle cx="614.2" cy="725.4" r="1.5" fill="#e4c388" opacity="0.38" /><circle cx="849.9" cy="669.7" r="0.5" fill="#e4c388" opacity="0.49" /><circle cx="1152.1" cy="303.6" r="0.6" fill="#e4c388" opacity="0.54" /><circle cx="1048.0" cy="398.1" r="1.5" fill="#e4c388" opacity="0.23" /><circle cx="1218.9" cy="435.2" r="1.6" fill="#e4c388" opacity="0.23" /><circle cx="1181.3" cy="699.3" r="0.7" fill="#e4c388" opacity="0.32" /><circle cx="223.4" cy="361.3" r="0.5" fill="#e4c388" opacity="0.16" /><circle cx="1245.7" cy="309.2" r="0.7" fill="#e4c388" opacity="0.13" /><circle cx="1135.0" cy="465.5" r="0.8" fill="#e4c388" opacity="0.17" /><circle cx="1225.6" cy="239.6" r="1.3" fill="#e4c388" opacity="0.48" /><circle cx="778.2" cy="514.4" r="1.1" fill="#e4c388" opacity="0.29" /><circle cx="699.3" cy="753.2" r="1.1" fill="#e4c388" opacity="0.15" /><circle cx="908.7" cy="204.2" r="1.5" fill="#e4c388" opacity="0.30" /><circle cx="1013.6" cy="73.0" r="1.4" fill="#e4c388" opacity="0.31" /><circle cx="1167.4" cy="321.0" r="0.8" fill="#e4c388" opacity="0.39" /><circle cx="567.4" cy="764.2" r="0.4" fill="#e4c388" opacity="0.19" /><circle cx="1069.8" cy="481.4" r="0.7" fill="#e4c388" opacity="0.23" /><circle cx="1476.9" cy="532.2" r="1.6" fill="#e4c388" opacity="0.27" /><circle cx="546.1" cy="858.7" r="1.5" fill="#e4c388" opacity="0.26" /><circle cx="935.3" cy="122.6" r="1.0" fill="#e4c388" opacity="0.49" /><circle cx="176.4" cy="782.0" r="0.5" fill="#e4c388" opacity="0.18" /><circle cx="461.5" cy="421.4" r="0.6" fill="#e4c388" opacity="0.28" /><circle cx="861.8" cy="568.1" r="1.4" fill="#e4c388" opacity="0.48" /><circle cx="481.4" cy="642.2" r="0.9" fill="#e4c388" opacity="0.53" /><circle cx="1135.4" cy="593.3" r="1.0" fill="#e4c388" opacity="0.27" /><circle cx="577.6" cy="809.1" r="1.1" fill="#e4c388" opacity="0.45" /><circle cx="699.4" cy="664.2" r="1.5" fill="#e4c388" opacity="0.22" /><circle cx="521.9" cy="98.7" r="1.3" fill="#e4c388" opacity="0.49" /><circle cx="1352.8" cy="795.5" r="0.8" fill="#e4c388" opacity="0.20" /><circle cx="407.7" cy="605.8" r="1.0" fill="#e4c388" opacity="0.49" /><circle cx="1534.1" cy="226.4" r="0.6" fill="#e4c388" opacity="0.51" /><circle cx="101.8" cy="817.2" r="1.1" fill="#e4c388" opacity="0.17" /><circle cx="1002.1" cy="533.1" r="1.3" fill="#e4c388" opacity="0.35" /><circle cx="486.5" cy="290.8" r="0.4" fill="#e4c388" opacity="0.50" /><circle cx="907.1" cy="819.5" r="0.6" fill="#e4c388" opacity="0.40" /><circle cx="734.4" cy="469.7" r="0.8" fill="#e4c388" opacity="0.33" /><circle cx="178.7" cy="544.0" r="0.6" fill="#e4c388" opacity="0.26" /><circle cx="1107.7" cy="257.9" r="1.4" fill="#e4c388" opacity="0.57" /><circle cx="1501.3" cy="633.5" r="0.5" fill="#e4c388" opacity="0.23" /><circle cx="1035.5" cy="156.3" r="1.5" fill="#e4c388" opacity="0.53" /><circle cx="879.6" cy="737.2" r="1.0" fill="#e4c388" opacity="0.40" /><circle cx="1371.9" cy="854.0" r="0.5" fill="#e4c388" opacity="0.26" /><circle cx="1012.9" cy="377.9" r="1.5" fill="#e4c388" opacity="0.43" /><circle cx="201.3" cy="147.2" r="0.8" fill="#e4c388" opacity="0.31" /><circle cx="1309.9" cy="724.2" r="1.2" fill="#e4c388" opacity="0.48" /><circle cx="659.8" cy="370.2" r="0.5" fill="#e4c388" opacity="0.18" /><circle cx="678.6" cy="244.8" r="1.1" fill="#e4c388" opacity="0.14" /><circle cx="819.4" cy="659.0" r="1.5" fill="#e4c388" opacity="0.43" /><circle cx="1329.1" cy="221.2" r="1.0" fill="#e4c388" opacity="0.13" /><circle cx="204.2" cy="166.9" r="1.0" fill="#e4c388" opacity="0.16" /><circle cx="146.2" cy="252.8" r="0.6" fill="#e4c388" opacity="0.36" /><circle cx="863.4" cy="478.4" r="0.6" fill="#e4c388" opacity="0.16" /><circle cx="452.9" cy="549.1" r="0.5" fill="#e4c388" opacity="0.28" /><path d="M 496.8 895 C 416.8 710 446.0 530 446.0 709.6" fill="none" stroke="#acd1be" stroke-width="1" opacity=".7" /><ellipse cx="465.0" cy="709.6" rx="6" ry="17" transform="rotate(0.0 465.0 709.6)" fill="none" stroke="#acd1be" opacity=".75" /><ellipse cx="457.9" cy="724.4" rx="6" ry="17" transform="rotate(51.4 457.9 724.4)" fill="none" stroke="#acd1be" opacity=".75" /><ellipse cx="441.8" cy="728.1" rx="6" ry="17" transform="rotate(102.9 441.8 728.1)" fill="none" stroke="#acd1be" opacity=".75" /><ellipse cx="428.9" cy="717.8" rx="6" ry="17" transform="rotate(154.3 428.9 717.8)" fill="none" stroke="#acd1be" opacity=".75" /><ellipse cx="428.9" cy="701.3" rx="6" ry="17" transform="rotate(205.7 428.9 701.3)" fill="none" stroke="#acd1be" opacity=".75" /><ellipse cx="441.8" cy="691.1" rx="6" ry="17" transform="rotate(257.1 441.8 691.1)" fill="none" stroke="#acd1be" opacity=".75" /><ellipse cx="457.9" cy="694.7" rx="6" ry="17" transform="rotate(308.6 457.9 694.7)" fill="none" stroke="#acd1be" opacity=".75" /><circle cx="446.0" cy="709.6" r="5" fill="#acd1be" /><path d="M 521.1 895 C 441.1 710 516.4 530 516.4 515.1" fill="none" stroke="#e4c388" stroke-width="1" opacity=".7" /><ellipse cx="535.4" cy="515.1" rx="6" ry="17" transform="rotate(0.0 535.4 515.1)" fill="none" stroke="#e4c388" opacity=".75" /><ellipse cx="528.3" cy="529.9" rx="6" ry="17" transform="rotate(51.4 528.3 529.9)" fill="none" stroke="#e4c388" opacity=".75" /><ellipse cx="512.2" cy="533.6" rx="6" ry="17" transform="rotate(102.9 512.2 533.6)" fill="none" stroke="#e4c388" opacity=".75" /><ellipse cx="499.3" cy="523.3" rx="6" ry="17" transform="rotate(154.3 499.3 523.3)" fill="none" stroke="#e4c388" opacity=".75" /><ellipse cx="499.3" cy="506.9" rx="6" ry="17" transform="rotate(205.7 499.3 506.9)" fill="none" stroke="#e4c388" opacity=".75" /><ellipse cx="512.2" cy="496.6" rx="6" ry="17" transform="rotate(257.1 512.2 496.6)" fill="none" stroke="#e4c388" opacity=".75" /><ellipse cx="528.3" cy="500.2" rx="6" ry="17" transform="rotate(308.6 528.3 500.2)" fill="none" stroke="#e4c388" opacity=".75" /><circle cx="516.4" cy="515.1" r="5" fill="#e4c388" /><path d="M 563.7 895 C 483.7 710 605.8 530 605.8 450.3" fill="none" stroke="#ece5d3" stroke-width="1" opacity=".7" /><ellipse cx="624.8" cy="450.3" rx="6" ry="17" transform="rotate(0.0 624.8 450.3)" fill="none" stroke="#ece5d3" opacity=".75" /><ellipse cx="617.6" cy="465.1" rx="6" ry="17" transform="rotate(51.4 617.6 465.1)" fill="none" stroke="#ece5d3" opacity=".75" /><ellipse cx="601.6" cy="468.8" rx="6" ry="17" transform="rotate(102.9 601.6 468.8)" fill="none" stroke="#ece5d3" opacity=".75" /><ellipse cx="588.7" cy="458.5" rx="6" ry="17" transform="rotate(154.3 588.7 458.5)" fill="none" stroke="#ece5d3" opacity=".75" /><ellipse cx="588.7" cy="442.0" rx="6" ry="17" transform="rotate(205.7 588.7 442.0)" fill="none" stroke="#ece5d3" opacity=".75" /><ellipse cx="601.6" cy="431.7" rx="6" ry="17" transform="rotate(257.1 601.6 431.7)" fill="none" stroke="#ece5d3" opacity=".75" /><ellipse cx="617.6" cy="435.4" rx="6" ry="17" transform="rotate(308.6 617.6 435.4)" fill="none" stroke="#ece5d3" opacity=".75" /><circle cx="605.8" cy="450.3" r="5" fill="#ece5d3" /><path d="M 605.0 895 C 525.0 710 498.8 530 498.8 660.7" fill="none" stroke="#6fa49e" stroke-width="1" opacity=".7" /><ellipse cx="517.8" cy="660.7" rx="6" ry="17" transform="rotate(0.0 517.8 660.7)" fill="none" stroke="#6fa49e" opacity=".75" /><ellipse cx="510.7" cy="675.6" rx="6" ry="17" transform="rotate(51.4 510.7 675.6)" fill="none" stroke="#6fa49e" opacity=".75" /><ellipse cx="494.6" cy="679.3" rx="6" ry="17" transform="rotate(102.9 494.6 679.3)" fill="none" stroke="#6fa49e" opacity=".75" /><ellipse cx="481.7" cy="669.0" rx="6" ry="17" transform="rotate(154.3 481.7 669.0)" fill="none" stroke="#6fa49e" opacity=".75" /><ellipse cx="481.7" cy="652.5" rx="6" ry="17" transform="rotate(205.7 481.7 652.5)" fill="none" stroke="#6fa49e" opacity=".75" /><ellipse cx="494.6" cy="642.2" rx="6" ry="17" transform="rotate(257.1 494.6 642.2)" fill="none" stroke="#6fa49e" opacity=".75" /><ellipse cx="510.7" cy="645.9" rx="6" ry="17" transform="rotate(308.6 510.7 645.9)" fill="none" stroke="#6fa49e" opacity=".75" /><circle cx="498.8" cy="660.7" r="5" fill="#6fa49e" /><path d="M 649.0 895 C 569.0 710 740.5 530 740.5 185.8" fill="none" stroke="#acd1be" stroke-width="1" opacity=".7" /><ellipse cx="759.5" cy="185.8" rx="6" ry="17" transform="rotate(0.0 759.5 185.8)" fill="none" stroke="#acd1be" opacity=".75" /><ellipse cx="752.4" cy="200.6" rx="6" ry="17" transform="rotate(51.4 752.4 200.6)" fill="none" stroke="#acd1be" opacity=".75" /><ellipse cx="736.3" cy="204.3" rx="6" ry="17" transform="rotate(102.9 736.3 204.3)" fill="none" stroke="#acd1be" opacity=".75" /><ellipse cx="723.4" cy="194.0" rx="6" ry="17" transform="rotate(154.3 723.4 194.0)" fill="none" stroke="#acd1be" opacity=".75" /><ellipse cx="723.4" cy="177.5" rx="6" ry="17" transform="rotate(205.7 723.4 177.5)" fill="none" stroke="#acd1be" opacity=".75" /><ellipse cx="736.3" cy="167.2" rx="6" ry="17" transform="rotate(257.1 736.3 167.2)" fill="none" stroke="#acd1be" opacity=".75" /><ellipse cx="752.4" cy="170.9" rx="6" ry="17" transform="rotate(308.6 752.4 170.9)" fill="none" stroke="#acd1be" opacity=".75" /><circle cx="740.5" cy="185.8" r="5" fill="#acd1be" /><path d="M 708.4 895 C 628.4 710 749.4 530 749.4 251.4" fill="none" stroke="#e4c388" stroke-width="1" opacity=".7" /><ellipse cx="768.4" cy="251.4" rx="6" ry="17" transform="rotate(0.0 768.4 251.4)" fill="none" stroke="#e4c388" opacity=".75" /><ellipse cx="761.3" cy="266.2" rx="6" ry="17" transform="rotate(51.4 761.3 266.2)" fill="none" stroke="#e4c388" opacity=".75" /><ellipse cx="745.2" cy="269.9" rx="6" ry="17" transform="rotate(102.9 745.2 269.9)" fill="none" stroke="#e4c388" opacity=".75" /><ellipse cx="732.3" cy="259.6" rx="6" ry="17" transform="rotate(154.3 732.3 259.6)" fill="none" stroke="#e4c388" opacity=".75" /><ellipse cx="732.3" cy="243.1" rx="6" ry="17" transform="rotate(205.7 732.3 243.1)" fill="none" stroke="#e4c388" opacity=".75" /><ellipse cx="745.2" cy="232.8" rx="6" ry="17" transform="rotate(257.1 745.2 232.8)" fill="none" stroke="#e4c388" opacity=".75" /><ellipse cx="761.3" cy="236.5" rx="6" ry="17" transform="rotate(308.6 761.3 236.5)" fill="none" stroke="#e4c388" opacity=".75" /><circle cx="749.4" cy="251.4" r="5" fill="#e4c388" /><path d="M 758.6 895 C 678.6 710 755.9 530 755.9 590.0" fill="none" stroke="#ece5d3" stroke-width="1" opacity=".7" /><ellipse cx="774.9" cy="590.0" rx="6" ry="17" transform="rotate(0.0 774.9 590.0)" fill="none" stroke="#ece5d3" opacity=".75" /><ellipse cx="767.8" cy="604.8" rx="6" ry="17" transform="rotate(51.4 767.8 604.8)" fill="none" stroke="#ece5d3" opacity=".75" /><ellipse cx="751.7" cy="608.5" rx="6" ry="17" transform="rotate(102.9 751.7 608.5)" fill="none" stroke="#ece5d3" opacity=".75" /><ellipse cx="738.8" cy="598.2" rx="6" ry="17" transform="rotate(154.3 738.8 598.2)" fill="none" stroke="#ece5d3" opacity=".75" /><ellipse cx="738.8" cy="581.7" rx="6" ry="17" transform="rotate(205.7 738.8 581.7)" fill="none" stroke="#ece5d3" opacity=".75" /><ellipse cx="751.7" cy="571.4" rx="6" ry="17" transform="rotate(257.1 751.7 571.4)" fill="none" stroke="#ece5d3" opacity=".75" /><ellipse cx="767.8" cy="575.1" rx="6" ry="17" transform="rotate(308.6 767.8 575.1)" fill="none" stroke="#ece5d3" opacity=".75" /><circle cx="755.9" cy="590.0" r="5" fill="#ece5d3" /><path d="M 790.3 895 C 710.3 710 689.8 530 689.8 564.5" fill="none" stroke="#6fa49e" stroke-width="1" opacity=".7" /><ellipse cx="708.8" cy="564.5" rx="6" ry="17" transform="rotate(0.0 708.8 564.5)" fill="none" stroke="#6fa49e" opacity=".75" /><ellipse cx="701.7" cy="579.4" rx="6" ry="17" transform="rotate(51.4 701.7 579.4)" fill="none" stroke="#6fa49e" opacity=".75" /><ellipse cx="685.6" cy="583.1" rx="6" ry="17" transform="rotate(102.9 685.6 583.1)" fill="none" stroke="#6fa49e" opacity=".75" /><ellipse cx="672.7" cy="572.8" rx="6" ry="17" transform="rotate(154.3 672.7 572.8)" fill="none" stroke="#6fa49e" opacity=".75" /><ellipse cx="672.7" cy="556.3" rx="6" ry="17" transform="rotate(205.7 672.7 556.3)" fill="none" stroke="#6fa49e" opacity=".75" /><ellipse cx="685.6" cy="546.0" rx="6" ry="17" transform="rotate(257.1 685.6 546.0)" fill="none" stroke="#6fa49e" opacity=".75" /><ellipse cx="701.7" cy="549.7" rx="6" ry="17" transform="rotate(308.6 701.7 549.7)" fill="none" stroke="#6fa49e" opacity=".75" /><circle cx="689.8" cy="564.5" r="5" fill="#6fa49e" /><path d="M 835.9 895 C 755.9 710 869.9 530 869.9 668.5" fill="none" stroke="#acd1be" stroke-width="1" opacity=".7" /><ellipse cx="888.9" cy="668.5" rx="6" ry="17" transform="rotate(0.0 888.9 668.5)" fill="none" stroke="#acd1be" opacity=".75" /><ellipse cx="881.7" cy="683.4" rx="6" ry="17" transform="rotate(51.4 881.7 683.4)" fill="none" stroke="#acd1be" opacity=".75" /><ellipse cx="865.7" cy="687.0" rx="6" ry="17" transform="rotate(102.9 865.7 687.0)" fill="none" stroke="#acd1be" opacity=".75" /><ellipse cx="852.8" cy="676.8" rx="6" ry="17" transform="rotate(154.3 852.8 676.8)" fill="none" stroke="#acd1be" opacity=".75" /><ellipse cx="852.8" cy="660.3" rx="6" ry="17" transform="rotate(205.7 852.8 660.3)" fill="none" stroke="#acd1be" opacity=".75" /><ellipse cx="865.7" cy="650.0" rx="6" ry="17" transform="rotate(257.1 865.7 650.0)" fill="none" stroke="#acd1be" opacity=".75" /><ellipse cx="881.7" cy="653.7" rx="6" ry="17" transform="rotate(308.6 881.7 653.7)" fill="none" stroke="#acd1be" opacity=".75" /><circle cx="869.9" cy="668.5" r="5" fill="#acd1be" /><path d="M 887.2 895 C 807.2 710 948.8 530 948.8 592.9" fill="none" stroke="#e4c388" stroke-width="1" opacity=".7" /><ellipse cx="967.8" cy="592.9" rx="6" ry="17" transform="rotate(0.0 967.8 592.9)" fill="none" stroke="#e4c388" opacity=".75" /><ellipse cx="960.7" cy="607.8" rx="6" ry="17" transform="rotate(51.4 960.7 607.8)" fill="none" stroke="#e4c388" opacity=".75" /><ellipse cx="944.6" cy="611.5" rx="6" ry="17" transform="rotate(102.9 944.6 611.5)" fill="none" stroke="#e4c388" opacity=".75" /><ellipse cx="931.7" cy="601.2" rx="6" ry="17" transform="rotate(154.3 931.7 601.2)" fill="none" stroke="#e4c388" opacity=".75" /><ellipse cx="931.7" cy="584.7" rx="6" ry="17" transform="rotate(205.7 931.7 584.7)" fill="none" stroke="#e4c388" opacity=".75" /><ellipse cx="944.6" cy="574.4" rx="6" ry="17" transform="rotate(257.1 944.6 574.4)" fill="none" stroke="#e4c388" opacity=".75" /><ellipse cx="960.7" cy="578.1" rx="6" ry="17" transform="rotate(308.6 960.7 578.1)" fill="none" stroke="#e4c388" opacity=".75" /><circle cx="948.8" cy="592.9" r="5" fill="#e4c388" /><path d="M 928.8 895 C 848.8 710 948.6 530 948.6 379.3" fill="none" stroke="#ece5d3" stroke-width="1" opacity=".7" /><ellipse cx="967.6" cy="379.3" rx="6" ry="17" transform="rotate(0.0 967.6 379.3)" fill="none" stroke="#ece5d3" opacity=".75" /><ellipse cx="960.5" cy="394.1" rx="6" ry="17" transform="rotate(51.4 960.5 394.1)" fill="none" stroke="#ece5d3" opacity=".75" /><ellipse cx="944.4" cy="397.8" rx="6" ry="17" transform="rotate(102.9 944.4 397.8)" fill="none" stroke="#ece5d3" opacity=".75" /><ellipse cx="931.5" cy="387.5" rx="6" ry="17" transform="rotate(154.3 931.5 387.5)" fill="none" stroke="#ece5d3" opacity=".75" /><ellipse cx="931.5" cy="371.0" rx="6" ry="17" transform="rotate(205.7 931.5 371.0)" fill="none" stroke="#ece5d3" opacity=".75" /><ellipse cx="944.4" cy="360.8" rx="6" ry="17" transform="rotate(257.1 944.4 360.8)" fill="none" stroke="#ece5d3" opacity=".75" /><ellipse cx="960.5" cy="364.4" rx="6" ry="17" transform="rotate(308.6 960.5 364.4)" fill="none" stroke="#ece5d3" opacity=".75" /><circle cx="948.6" cy="379.3" r="5" fill="#ece5d3" /><path d="M 968.2 895 C 888.2 710 950.3 530 950.3 189.5" fill="none" stroke="#6fa49e" stroke-width="1" opacity=".7" /><ellipse cx="969.3" cy="189.5" rx="6" ry="17" transform="rotate(0.0 969.3 189.5)" fill="none" stroke="#6fa49e" opacity=".75" /><ellipse cx="962.1" cy="204.4" rx="6" ry="17" transform="rotate(51.4 962.1 204.4)" fill="none" stroke="#6fa49e" opacity=".75" /><ellipse cx="946.0" cy="208.0" rx="6" ry="17" transform="rotate(102.9 946.0 208.0)" fill="none" stroke="#6fa49e" opacity=".75" /><ellipse cx="933.1" cy="197.7" rx="6" ry="17" transform="rotate(154.3 933.1 197.7)" fill="none" stroke="#6fa49e" opacity=".75" /><ellipse cx="933.1" cy="181.3" rx="6" ry="17" transform="rotate(205.7 933.1 181.3)" fill="none" stroke="#6fa49e" opacity=".75" /><ellipse cx="946.0" cy="171.0" rx="6" ry="17" transform="rotate(257.1 946.0 171.0)" fill="none" stroke="#6fa49e" opacity=".75" /><ellipse cx="962.1" cy="174.6" rx="6" ry="17" transform="rotate(308.6 962.1 174.6)" fill="none" stroke="#6fa49e" opacity=".75" /><circle cx="950.3" cy="189.5" r="5" fill="#6fa49e" /><path d="M 1032.8 895 C 952.8 710 950.5 530 950.5 574.7" fill="none" stroke="#acd1be" stroke-width="1" opacity=".7" /><ellipse cx="969.5" cy="574.7" rx="6" ry="17" transform="rotate(0.0 969.5 574.7)" fill="none" stroke="#acd1be" opacity=".75" /><ellipse cx="962.3" cy="589.6" rx="6" ry="17" transform="rotate(51.4 962.3 589.6)" fill="none" stroke="#acd1be" opacity=".75" /><ellipse cx="946.3" cy="593.2" rx="6" ry="17" transform="rotate(102.9 946.3 593.2)" fill="none" stroke="#acd1be" opacity=".75" /><ellipse cx="933.4" cy="583.0" rx="6" ry="17" transform="rotate(154.3 933.4 583.0)" fill="none" stroke="#acd1be" opacity=".75" /><ellipse cx="933.4" cy="566.5" rx="6" ry="17" transform="rotate(205.7 933.4 566.5)" fill="none" stroke="#acd1be" opacity=".75" /><ellipse cx="946.3" cy="556.2" rx="6" ry="17" transform="rotate(257.1 946.3 556.2)" fill="none" stroke="#acd1be" opacity=".75" /><ellipse cx="962.3" cy="559.9" rx="6" ry="17" transform="rotate(308.6 962.3 559.9)" fill="none" stroke="#acd1be" opacity=".75" /><circle cx="950.5" cy="574.7" r="5" fill="#acd1be" /><path d="M 1068.8 895 C 988.8 710 1091.3 530 1091.3 199.9" fill="none" stroke="#e4c388" stroke-width="1" opacity=".7" /><ellipse cx="1110.3" cy="199.9" rx="6" ry="17" transform="rotate(0.0 1110.3 199.9)" fill="none" stroke="#e4c388" opacity=".75" /><ellipse cx="1103.1" cy="214.7" rx="6" ry="17" transform="rotate(51.4 1103.1 214.7)" fill="none" stroke="#e4c388" opacity=".75" /><ellipse cx="1087.1" cy="218.4" rx="6" ry="17" transform="rotate(102.9 1087.1 218.4)" fill="none" stroke="#e4c388" opacity=".75" /><ellipse cx="1074.2" cy="208.1" rx="6" ry="17" transform="rotate(154.3 1074.2 208.1)" fill="none" stroke="#e4c388" opacity=".75" /><ellipse cx="1074.2" cy="191.6" rx="6" ry="17" transform="rotate(205.7 1074.2 191.6)" fill="none" stroke="#e4c388" opacity=".75" /><ellipse cx="1087.1" cy="181.3" rx="6" ry="17" transform="rotate(257.1 1087.1 181.3)" fill="none" stroke="#e4c388" opacity=".75" /><ellipse cx="1103.1" cy="185.0" rx="6" ry="17" transform="rotate(308.6 1103.1 185.0)" fill="none" stroke="#e4c388" opacity=".75" /><circle cx="1091.3" cy="199.9" r="5" fill="#e4c388" /><path d="M 1127.2 895 C 1047.2 710 1046.5 530 1046.5 667.4" fill="none" stroke="#ece5d3" stroke-width="1" opacity=".7" /><ellipse cx="1065.5" cy="667.4" rx="6" ry="17" transform="rotate(0.0 1065.5 667.4)" fill="none" stroke="#ece5d3" opacity=".75" /><ellipse cx="1058.4" cy="682.3" rx="6" ry="17" transform="rotate(51.4 1058.4 682.3)" fill="none" stroke="#ece5d3" opacity=".75" /><ellipse cx="1042.3" cy="686.0" rx="6" ry="17" transform="rotate(102.9 1042.3 686.0)" fill="none" stroke="#ece5d3" opacity=".75" /><ellipse cx="1029.4" cy="675.7" rx="6" ry="17" transform="rotate(154.3 1029.4 675.7)" fill="none" stroke="#ece5d3" opacity=".75" /><ellipse cx="1029.4" cy="659.2" rx="6" ry="17" transform="rotate(205.7 1029.4 659.2)" fill="none" stroke="#ece5d3" opacity=".75" /><ellipse cx="1042.3" cy="648.9" rx="6" ry="17" transform="rotate(257.1 1042.3 648.9)" fill="none" stroke="#ece5d3" opacity=".75" /><ellipse cx="1058.4" cy="652.6" rx="6" ry="17" transform="rotate(308.6 1058.4 652.6)" fill="none" stroke="#ece5d3" opacity=".75" /><circle cx="1046.5" cy="667.4" r="5" fill="#ece5d3" /><path d="M 1136.4 895 C 1056.4 710 1046.6 530 1046.6 484.2" fill="none" stroke="#6fa49e" stroke-width="1" opacity=".7" /><ellipse cx="1065.6" cy="484.2" rx="6" ry="17" transform="rotate(0.0 1065.6 484.2)" fill="none" stroke="#6fa49e" opacity=".75" /><ellipse cx="1058.4" cy="499.0" rx="6" ry="17" transform="rotate(51.4 1058.4 499.0)" fill="none" stroke="#6fa49e" opacity=".75" /><ellipse cx="1042.3" cy="502.7" rx="6" ry="17" transform="rotate(102.9 1042.3 502.7)" fill="none" stroke="#6fa49e" opacity=".75" /><ellipse cx="1029.4" cy="492.4" rx="6" ry="17" transform="rotate(154.3 1029.4 492.4)" fill="none" stroke="#6fa49e" opacity=".75" /><ellipse cx="1029.4" cy="475.9" rx="6" ry="17" transform="rotate(205.7 1029.4 475.9)" fill="none" stroke="#6fa49e" opacity=".75" /><ellipse cx="1042.3" cy="465.7" rx="6" ry="17" transform="rotate(257.1 1042.3 465.7)" fill="none" stroke="#6fa49e" opacity=".75" /><ellipse cx="1058.4" cy="469.3" rx="6" ry="17" transform="rotate(308.6 1058.4 469.3)" fill="none" stroke="#6fa49e" opacity=".75" /><circle cx="1046.6" cy="484.2" r="5" fill="#6fa49e" /><path d="M 1194.1 895 C 1114.1 710 1226.6 530 1226.6 625.5" fill="none" stroke="#acd1be" stroke-width="1" opacity=".7" /><ellipse cx="1245.6" cy="625.5" rx="6" ry="17" transform="rotate(0.0 1245.6 625.5)" fill="none" stroke="#acd1be" opacity=".75" /><ellipse cx="1238.4" cy="640.4" rx="6" ry="17" transform="rotate(51.4 1238.4 640.4)" fill="none" stroke="#acd1be" opacity=".75" /><ellipse cx="1222.4" cy="644.0" rx="6" ry="17" transform="rotate(102.9 1222.4 644.0)" fill="none" stroke="#acd1be" opacity=".75" /><ellipse cx="1209.5" cy="633.8" rx="6" ry="17" transform="rotate(154.3 1209.5 633.8)" fill="none" stroke="#acd1be" opacity=".75" /><ellipse cx="1209.5" cy="617.3" rx="6" ry="17" transform="rotate(205.7 1209.5 617.3)" fill="none" stroke="#acd1be" opacity=".75" /><ellipse cx="1222.4" cy="607.0" rx="6" ry="17" transform="rotate(257.1 1222.4 607.0)" fill="none" stroke="#acd1be" opacity=".75" /><ellipse cx="1238.4" cy="610.7" rx="6" ry="17" transform="rotate(308.6 1238.4 610.7)" fill="none" stroke="#acd1be" opacity=".75" /><circle cx="1226.6" cy="625.5" r="5" fill="#acd1be" /><path d="M 1233.0 895 C 1153.0 710 1204.8 530 1204.8 598.8" fill="none" stroke="#e4c388" stroke-width="1" opacity=".7" /><ellipse cx="1223.8" cy="598.8" rx="6" ry="17" transform="rotate(0.0 1223.8 598.8)" fill="none" stroke="#e4c388" opacity=".75" /><ellipse cx="1216.6" cy="613.7" rx="6" ry="17" transform="rotate(51.4 1216.6 613.7)" fill="none" stroke="#e4c388" opacity=".75" /><ellipse cx="1200.5" cy="617.4" rx="6" ry="17" transform="rotate(102.9 1200.5 617.4)" fill="none" stroke="#e4c388" opacity=".75" /><ellipse cx="1187.6" cy="607.1" rx="6" ry="17" transform="rotate(154.3 1187.6 607.1)" fill="none" stroke="#e4c388" opacity=".75" /><ellipse cx="1187.6" cy="590.6" rx="6" ry="17" transform="rotate(205.7 1187.6 590.6)" fill="none" stroke="#e4c388" opacity=".75" /><ellipse cx="1200.5" cy="580.3" rx="6" ry="17" transform="rotate(257.1 1200.5 580.3)" fill="none" stroke="#e4c388" opacity=".75" /><ellipse cx="1216.6" cy="584.0" rx="6" ry="17" transform="rotate(308.6 1216.6 584.0)" fill="none" stroke="#e4c388" opacity=".75" /><circle cx="1204.8" cy="598.8" r="5" fill="#e4c388" /><path d="M 1308.7 895 C 1228.7 710 1316.9 530 1316.9 272.3" fill="none" stroke="#ece5d3" stroke-width="1" opacity=".7" /><ellipse cx="1335.9" cy="272.3" rx="6" ry="17" transform="rotate(0.0 1335.9 272.3)" fill="none" stroke="#ece5d3" opacity=".75" /><ellipse cx="1328.7" cy="287.2" rx="6" ry="17" transform="rotate(51.4 1328.7 287.2)" fill="none" stroke="#ece5d3" opacity=".75" /><ellipse cx="1312.7" cy="290.9" rx="6" ry="17" transform="rotate(102.9 1312.7 290.9)" fill="none" stroke="#ece5d3" opacity=".75" /><ellipse cx="1299.8" cy="280.6" rx="6" ry="17" transform="rotate(154.3 1299.8 280.6)" fill="none" stroke="#ece5d3" opacity=".75" /><ellipse cx="1299.8" cy="264.1" rx="6" ry="17" transform="rotate(205.7 1299.8 264.1)" fill="none" stroke="#ece5d3" opacity=".75" /><ellipse cx="1312.7" cy="253.8" rx="6" ry="17" transform="rotate(257.1 1312.7 253.8)" fill="none" stroke="#ece5d3" opacity=".75" /><ellipse cx="1328.7" cy="257.5" rx="6" ry="17" transform="rotate(308.6 1328.7 257.5)" fill="none" stroke="#ece5d3" opacity=".75" /><circle cx="1316.9" cy="272.3" r="5" fill="#ece5d3" /><path d="M 1317.0 895 C 1237.0 710 1297.7 530 1297.7 482.3" fill="none" stroke="#6fa49e" stroke-width="1" opacity=".7" /><ellipse cx="1316.7" cy="482.3" rx="6" ry="17" transform="rotate(0.0 1316.7 482.3)" fill="none" stroke="#6fa49e" opacity=".75" /><ellipse cx="1309.5" cy="497.2" rx="6" ry="17" transform="rotate(51.4 1309.5 497.2)" fill="none" stroke="#6fa49e" opacity=".75" /><ellipse cx="1293.5" cy="500.9" rx="6" ry="17" transform="rotate(102.9 1293.5 500.9)" fill="none" stroke="#6fa49e" opacity=".75" /><ellipse cx="1280.6" cy="490.6" rx="6" ry="17" transform="rotate(154.3 1280.6 490.6)" fill="none" stroke="#6fa49e" opacity=".75" /><ellipse cx="1280.6" cy="474.1" rx="6" ry="17" transform="rotate(205.7 1280.6 474.1)" fill="none" stroke="#6fa49e" opacity=".75" /><ellipse cx="1293.5" cy="463.8" rx="6" ry="17" transform="rotate(257.1 1293.5 463.8)" fill="none" stroke="#6fa49e" opacity=".75" /><ellipse cx="1309.5" cy="467.5" rx="6" ry="17" transform="rotate(308.6 1309.5 467.5)" fill="none" stroke="#6fa49e" opacity=".75" /><circle cx="1297.7" cy="482.3" r="5" fill="#6fa49e" /><path d="M 1373.0 895 C 1293.0 710 1340.9 530 1340.9 319.3" fill="none" stroke="#acd1be" stroke-width="1" opacity=".7" /><ellipse cx="1359.9" cy="319.3" rx="6" ry="17" transform="rotate(0.0 1359.9 319.3)" fill="none" stroke="#acd1be" opacity=".75" /><ellipse cx="1352.7" cy="334.2" rx="6" ry="17" transform="rotate(51.4 1352.7 334.2)" fill="none" stroke="#acd1be" opacity=".75" /><ellipse cx="1336.7" cy="337.8" rx="6" ry="17" transform="rotate(102.9 1336.7 337.8)" fill="none" stroke="#acd1be" opacity=".75" /><ellipse cx="1323.8" cy="327.6" rx="6" ry="17" transform="rotate(154.3 1323.8 327.6)" fill="none" stroke="#acd1be" opacity=".75" /><ellipse cx="1323.8" cy="311.1" rx="6" ry="17" transform="rotate(205.7 1323.8 311.1)" fill="none" stroke="#acd1be" opacity=".75" /><ellipse cx="1336.7" cy="300.8" rx="6" ry="17" transform="rotate(257.1 1336.7 300.8)" fill="none" stroke="#acd1be" opacity=".75" /><ellipse cx="1352.7" cy="304.5" rx="6" ry="17" transform="rotate(308.6 1352.7 304.5)" fill="none" stroke="#acd1be" opacity=".75" /><circle cx="1340.9" cy="319.3" r="5" fill="#acd1be" /><path d="M 1431.4 895 C 1351.4 710 1495.2 530 1495.2 485.3" fill="none" stroke="#e4c388" stroke-width="1" opacity=".7" /><ellipse cx="1514.2" cy="485.3" rx="6" ry="17" transform="rotate(0.0 1514.2 485.3)" fill="none" stroke="#e4c388" opacity=".75" /><ellipse cx="1507.1" cy="500.1" rx="6" ry="17" transform="rotate(51.4 1507.1 500.1)" fill="none" stroke="#e4c388" opacity=".75" /><ellipse cx="1491.0" cy="503.8" rx="6" ry="17" transform="rotate(102.9 1491.0 503.8)" fill="none" stroke="#e4c388" opacity=".75" /><ellipse cx="1478.1" cy="493.5" rx="6" ry="17" transform="rotate(154.3 1478.1 493.5)" fill="none" stroke="#e4c388" opacity=".75" /><ellipse cx="1478.1" cy="477.0" rx="6" ry="17" transform="rotate(205.7 1478.1 477.0)" fill="none" stroke="#e4c388" opacity=".75" /><ellipse cx="1491.0" cy="466.8" rx="6" ry="17" transform="rotate(257.1 1491.0 466.8)" fill="none" stroke="#e4c388" opacity=".75" /><ellipse cx="1507.1" cy="470.4" rx="6" ry="17" transform="rotate(308.6 1507.1 470.4)" fill="none" stroke="#e4c388" opacity=".75" /><circle cx="1495.2" cy="485.3" r="5" fill="#e4c388" /></svg>