<?xml version='1.0' encoding='utf-8'?>
<svg width="1600" height="1000" viewBox="0 0 1600 1000" xmlns="http://www.w3.org/2000/svg"><defs><radialGradient id="paint0"><stop stop-color="#234746" /><stop offset="1" stop-color="#091f25" /></radialGradient></defs><rect width="1600" height="1000" fill="url(#paint0)" /><rect x="32" y="32" width="1536" height="936" rx="3" fill="none" stroke="#b4a277" stroke-opacity=".45" /><circle cx="735.1" cy="474.9" r="1.0" fill="#e4c388" opacity="0.51" /><circle cx="1363.1" cy="751.2" r="1.2" fill="#e4c388" opacity="0.12" /><circle cx="76.2" cy="782.5" r="1.4" fill="#e4c388" opacity="0.53" /><circle cx="553.8" cy="785.0" r="1.1" fill="#e4c388" opacity="0.13" /><circle cx="809.4" cy="562.0" r="1.3" fill="#e4c388" opacity="0.15" /><circle cx="920.0" cy="786.6" r="0.9" fill="#e4c388" opacity="0.17" /><circle cx="853.1" cy="358.5" r="0.5" fill="#e4c388" opacity="0.53" /><circle cx="139.2" cy="569.0" r="1.3" fill="#e4c388" opacity="0.51" /><circle cx="699.0" cy="165.8" r="0.8" fill="#e4c388" opacity="0.58" /><circle cx="1488.3" cy="826.6" r="0.4" fill="#e4c388" opacity="0.40" /><circle cx="1312.7" cy="267.5" r="1.0" fill="#e4c388" opacity="0.42" /><circle cx="133.2" cy="748.5" r="0.9" fill="#e4c388" opacity="0.40" /><circle cx="1152.1" cy="496.5" r="0.6" fill="#e4c388" opacity="0.59" /><circle cx="1141.5" cy="83.3" r="0.8" fill="#e4c388" opacity="0.20" /><circle cx="419.5" cy="190.9" r="1.4" fill="#e4c388" opacity="0.25" /><circle cx="567.6" cy="596.7" r="1.1" fill="#e4c388" opacity="0.51" /><circle cx="814.6" cy="299.1" r="0.8" fill="#e4c388" opacity="0.29" /><circle cx="433.0" cy="469.1" r="1.2" fill="#e4c388" opacity="0.46" /><circle cx="1084.5" cy="618.5" r="0.6" fill="#e4c388" opacity="0.60" /><circle cx="61.6" cy="118.3" r="0.8" fill="#e4c388" opacity="0.45" /><circle cx="962.7" cy="401.5" r="1.5" fill="#e4c388" opacity="0.15" /><circle cx="787.6" cy="863.9" r="0.4" fill="#e4c388" opacity="0.14" /><circle cx="1252.1" cy="676.6" r="0.6" fill="#e4c388" opacity="0.47" /><circle cx="123.0" cy="431.4" r="1.3" fill="#e4c388" opacity="0.52" /><circle cx="99.7" cy="230.8" r="0.4" fill="#e4c388" opacity="0.20" /><circle cx="935.8" cy="728.2" r="0.7" fill="#e4c388" opacity="0.17" /><circle cx="454.5" cy="635.8" r="0.6" fill="#e4c388" opacity="0.43" /><circle cx="1045.2" cy="717.2" r="1.1" fill="#e4c388" opacity="0.19" /><circle cx="1532.5" cy="251.0" r="0.8" fill="#e4c388" opacity="0.30" /><circle cx="894.7" cy="252.4" r="0.9" fill="#e4c388" opacity="0.48" /><circle cx="439.1" cy="847.2" r="0.4" fill="#e4c388" opacity="0.24" /><circle cx="680.6" cy="742.9" r="0.6" fill="#e4c388" opacity="0.25" /><circle cx="61.2" cy="677.3" r="1.1" fill="#e4c388" opacity="0.39" /><circle cx="214.5" cy="581.3" r="0.6" fill="#e4c388" opacity="0.45" /><circle cx="922.8" cy="790.5" r="1.2" fill="#e4c388" opacity="0.35" /><circle cx="801.0" cy="327.9" r="1.5" fill="#e4c388" opacity="0.39" /><circle cx="1198.2" cy="207.5" r="1.2" fill="#e4c388" opacity="0.27" /><circle cx="941.8" cy="359.3" r="1.2" fill="#e4c388" opacity="0.49" /><circle cx="315.8" cy="554.4" r="0.4" fill="#e4c388" opacity="0.15" /><circle cx="145.9" cy="170.5" r="0.8" fill="#e4c388" opacity="0.23" /><circle cx="312.0" cy="201.0" r="1.1" fill="#e4c388" opacity="0.59" /><circle cx="1300.9" cy="514.1" r="1.5" fill="#e4c388" opacity="0.46" /><circle cx="334.0" cy="786.1" r="0.6" fill="#e4c388" opacity="0.20" /><circle cx="439.3" cy="312.2" r="0.8" fill="#e4c388" opacity="0.20" /><circle cx="1010.8" cy="475.4" r="0.7" fill="#e4c388" opacity="0.35" /><circle cx="602.2" cy="842.2" r="1.3" fill="#e4c388" opacity="0.59" /><circle cx="352.3" cy="705.9" r="0.8" fill="#e4c388" opacity="0.58" /><circle cx="919.7" cy="309.7" r="1.0" fill="#e4c388" opacity="0.33" /><circle cx="1495.9" cy="658.7" r="0.6" fill="#e4c388" opacity="0.28" /><circle cx="1091.4" cy="852.9" r="1.2" fill="#e4c388" opacity="0.57" /><circle cx="436.0" cy="591.2" r="0.8" fill="#e4c388" opacity="0.26" /><circle cx="475.9" cy="775.4" r="1.2" fill="#e4c388" opacity="0.51" /><circle cx="389.4" cy="124.2" r="1.3" fill="#e4c388" opacity="0.41" /><circle cx="1436.8" cy="818.2" r="0.7" fill="#e4c388" opacity="0.47" /><circle cx="866.8" cy="380.9" r="0.5" fill="#e4c388" opacity="0.22" /><circle cx="384.0" cy="215.9" r="0.7" fill="#e4c388" opacity="0.40" /><circle cx="1438.9" cy="584.8" r="1.3" fill="#e4c388" opacity="0.27" /><circle cx="330.8" cy="480.4" r="0.8" fill="#e4c388" opacity="0.48" /><circle cx="1418.3" cy="184.7" r="1.2" fill="#e4c388" opacity="0.57" /><circle cx="1530.9" cy="666.1" r="0.7" fill="#e4c388" opacity="0.15" /><circle cx="1456.3" cy="112.9" r="0.8" fill="#e4c388" opacity="0.30" /><circle cx="434.3" cy="532.0" r="1.2" fill="#e4c388" opacity="0.35" /><circle cx="1004.1" cy="462.3" r="0.5" fill="#e4c388" opacity="0.20" /><circle cx="744.7" cy="552.8" r="0.5" fill="#e4c388" opacity="0.20" /><circle cx="431.0" cy="134.8" r="1.2" fill="#e4c388" opacity="0.30" /><circle cx="1178.6" cy="143.4" r="1.6" fill="#e4c388" opacity="0.19" /><circle cx="612.8" cy="808.3" r="1.2" fill="#e4c388" opacity="0.34" /><circle cx="860.4" cy="401.0" r="0.8" fill="#e4c388" opacity="0.34" /><circle cx="633.8" cy="78.5" r="1.6" fill="#e4c388" opacity="0.24" /><circle cx="842.2" cy="563.9" r="1.4" fill="#e4c388" opacity="0.50" /><circle cx="1397.9" cy="385.6" r="1.0" fill="#e4c388" opacity="0.47" /><circle cx="501.2" cy="253.8" r="1.3" fill="#e4c388" opacity="0.13" /><circle cx="272.1" cy="238.5" r="0.4" fill="#e4c388" opacity="0.22" /><circle cx="1220.4" cy="720.2" r="0.5" fill="#e4c388" opacity="0.44" /><circle cx="683.8" cy="327.2" r="1.0" fill="#e4c388" opacity="0.30" /><circle cx="1266.5" cy="329.7" r="1.0" fill="#e4c388" opacity="0.54" /><circle cx="798.1" cy="370.8" r="1.0" fill="#e4c388" opacity="0.59" /><circle cx="217.1" cy="178.6" r="1.0" fill="#e4c388" opacity="0.43" /><circle cx="949.0" cy="865.6" r="1.4" fill="#e4c388" opacity="0.54" /><circle cx="1425.4" cy="382.2" r="1.3" fill="#e4c388" opacity="0.56" /><circle cx="1091.4" cy="575.7" r="0.4" fill="#e4c388" opacity="0.12" /><circle cx="560.9" cy="490.9" r="0.7" fill="#e4c388" opacity="0.28" /><circle cx="1414.9" cy="482.9" r="1.1" fill="#e4c388" opacity="0.35" /><circle cx="309.1" cy="211.4" r="1.0" fill="#e4c388" opacity="0.22" /><circle cx="524.8" cy="829.7" r="1.1" fill="#e4c388" opacity="0.48" /><circle cx="204.6" cy="140.6" r="0.5" fill="#e4c388" opacity="0.46" /><circle cx="386.9" cy="310.3" r="0.5" fill="#e4c388" opacity="0.50" /><circle cx="834.7" cy="457.6" r="0.6" fill="#e4c388" opacity="0.14" /><circle cx="647.5" cy="292.0" r="1.5" fill="#e4c388" opacity="0.56" /><circle cx="717.9" cy="81.7" r="0.9" fill="#e4c388" opacity="0.21" /><circle cx="1134.8" cy="662.6" r="1.5" fill="#e4c388" opacity="0.59" /><circle cx="1452.6" cy="436.3" r="1.3" fill="#e4c388" opacity="0.52" /><circle cx="521.6" cy="327.4" r="1.0" fill="#e4c388" opacity="0.41" /><circle cx="959.2" cy="688.5" r="1.3" fill="#e4c388" opacity="0.23" /><circle cx="439.6" cy="620.1" r="0.6" fill="#e4c388" opacity="0.28" /><circle cx="762.3" cy="723.0" r="0.8" fill="#e4c388" opacity="0.22" /><circle cx="829.1" cy="148.9" r="1.5" fill="#e4c388" opacity="0.53" /><circle cx="1526.2" cy="426.5" r="1.0" fill="#e4c388" opacity="0.57" /><circle cx="1489.0" cy="331.7" r="1.3" fill="#e4c388" opacity="0.33" /><circle cx="729.7" cy="105.6" r="1.4" fill="#e4c388" opacity="0.26" /><circle cx="244.3" cy="821.9" r="0.8" fill="#e4c388" opacity="0.12" /><circle cx="600.8" cy="576.6" r="1.5" fill="#e4c388" opacity="0.23" /><circle cx="1008.2" cy="646.8" r="0.7" fill="#e4c388" opacity="0.32" /><circle cx="234.4" cy="710.1" r="1.1" fill="#e4c388" opacity="0.26" /><circle cx="1177.3" cy="185.7" r="0.9" fill="#e4c388" opacity="0.37" /><circle cx="177.2" cy="472.1" r="1.2" fill="#e4c388" opacity="0.35" /><circle cx="954.7" cy="635.7" r="0.7" fill="#e4c388" opacity="0.52" /><circle cx="1517.0" cy="717.6" r="1.5" fill="#e4c388" opacity="0.42" /><circle cx="956.1" cy="367.9" r="0.5" fill="#e4c388" opacity="0.36" /><circle cx="146.5" cy="830.5" r="0.6" fill="#e4c388" opacity="0.56" /><circle cx="715.9" cy="769.2" r="0.6" fill="#e4c388" opacity="0.24" /><circle cx="1380.0" cy="318.4" r="0.7" fill="#e4c388" opacity="0.41" /><circle cx="1290.0" cy="161.5" r="0.6" fill="#e4c388" opacity="0.51" /><circle cx="218.3" cy="410.9" r="1.4" fill="#e4c388" opacity="0.25" /><circle cx="530.1" cy="696.7" r="1.0" fill="#e4c388" opacity="0.47" /><circle cx="140.9" cy="676.3" r="1.3" fill="#e4c388" opacity="0.39" /><circle cx="1059.6" cy="861.4" r="0.8" fill="#e4c388" opacity="0.43" /><circle cx="72.8" cy="275.5" r="0.9" fill="#e4c388" opacity="0.27" /><circle cx="950.4" cy="611.0" r="0.9" fill="#e4c388" opacity="0.56" /><circle cx="584.4" cy="841.2" r="0.6" fill="#e4c388" opacity="0.36" /><circle cx="264.2" cy="856.6" r="0.8" fill="#e4c388" opacity="0.50" /><circle cx="708.4" cy="92.1" r="0.5" fill="#e4c388" opacity="0.32" /><circle cx="378.8" cy="583.9" r="0.8" fill="#e4c388" opacity="0.21" /><circle cx="1230.4" cy="759.0" r="1.6" fill="#e4c388" opacity="0.24" /><circle cx="1228.7" cy="335.3" r="1.0" fill="#e4c388" opacity="0.50" /><circle cx="1203.7" cy="698.1" r="1.6" fill="#e4c388" opacity="0.56" /><circle cx="1266.2" cy="129.4" r="0.6" fill="#e4c388" opacity="0.44" /><circle cx="170.2" cy="859.3" r="0.7" fill="#e4c388" opacity="0.46" /><circle cx="1353.3" cy="164.8" r="0.5" fill="#e4c388" opacity="0.60" /><circle cx="891.4" cy="361.6" r="0.5" fill="#e4c388" opacity="0.52" /><circle cx="81.0" cy="138.1" r="0.6" fill="#e4c388" opacity="0.26" /><circle cx="1007.9" cy="838.0" r="1.5" fill="#e4c388" opacity="0.42" /><circle cx="428.2" cy="777.5" r="1.5" fill="#e4c388" opacity="0.27" /><circle cx="338.9" cy="578.4" r="1.4" fill="#e4c388" opacity="0.17" /><circle cx="1496.4" cy="380.8" r="1.0" fill="#e4c388" opacity="0.23" /><circle cx="457.0" cy="303.3" r="1.2" fill="#e4c388" opacity="0.47" /><circle cx="463.9" cy="96.4" r="0.6" fill="#e4c388" opacity="0.51" /><circle cx="806.3" cy="544.1" r="0.7" fill="#e4c388" opacity="0.35" /><circle cx="596.0" cy="437.5" r="1.4" fill="#e4c388" opacity="0.48" /><circle cx="963.0" cy="616.6" r="1.0" fill="#e4c388" opacity="0.47" /><circle cx="564.1" cy="178.3" r="0.6" fill="#e4c388" opacity="0.47" /><circle cx="430.8" cy="777.6" r="0.4" fill="#e4c388" opacity="0.21" /><circle cx="93.3" cy="313.8" r="0.6" fill="#e4c388" opacity="0.49" /><circle cx="866.8" cy="720.8" r="0.9" fill="#e4c388" opacity="0.30" /><circle cx="927.8" cy="728.9" r="1.3" fill="#e4c388" opacity="0.44" /><circle cx="1388.2" cy="758.6" r="0.7" fill="#e4c388" opacity="0.24" /><circle cx="864.9" cy="710.3" r="1.6" fill="#e4c388" opacity="0.55" /><circle cx="1286.6" cy="175.6" r="1.6" fill="#e4c388" opacity="0.43" /><circle cx="350.0" cy="77.9" r="1.1" fill="#e4c388" opacity="0.58" /><circle cx="743.1" cy="750.8" r="0.7" fill="#e4c388" opacity="0.56" /><circle cx="641.9" cy="339.2" r="1.5" fill="#e4c388" opacity="0.54" /><circle cx="1133.2" cy="594.1" r="1.2" fill="#e4c388" opacity="0.23" /><circle cx="179.0" cy="338.6" r="1.3" fill="#e4c388" opacity="0.27" /><circle cx="181.6" cy="856.3" r="1.5" fill="#e4c388" opacity="0.42" /><circle cx="1512.8" cy="639.1" r="0.7" fill="#e4c388" opacity="0.57" /><circle cx="278.1" cy="129.6" r="1.4" fill="#e4c388" opacity="0.15" /><circle cx="545.3" cy="783.0" r="1.1" fill="#e4c388" opacity="0.22" /><circle cx="122.2" cy="301.1" r="0.9" fill="#e4c388" opacity="0.39" /><circle cx="1206.2" cy="328.2" r="1.3" fill="#e4c388" opacity="0.58" /><circle cx="681.1" cy="576.1" r="1.4" fill="#e4c388" opacity="0.50" /><circle cx="913.5" cy="645.7" r="0.9" fill="#e4c388" opacity="0.29" /><circle cx="1130.5" cy="559.6" r="0.8" fill="#e4c388" opacity="0.58" /><circle cx="1244.3" cy="472.8" r="0.7" fill="#e4c388" opacity="0.12" /><circle cx="162.2" cy="236.3" r="1.5" fill="#e4c388" opacity="0.27" /><circle cx="149.5" cy="479.5" r="1.2" fill="#e4c388" opacity="0.24" /><circle cx="1096.2" cy="217.2" r="0.7" fill="#e4c388" opacity="0.31" /><circle cx="1414.1" cy="218.0" r="0.5" fill="#e4c388" opacity="0.12" /><circle cx="782.3" cy="276.9" r="1.3" fill="#e4c388" opacity="0.12" /><circle cx="723.4" cy="701.2" r="1.3" fill="#e4c388" opacity="0.20" /><circle cx="1176.3" cy="851.2" r="0.7" fill="#e4c388" opacity="0.30" /><circle cx="1167.2" cy="323.8" r="0.8" fill="#e4c388" opacity="0.24" /><circle cx="372.3" cy="519.6" r="1.6" fill="#e4c388" opacity="0.59" /><circle cx="592.6" cy="403.0" r="1.4" fill="#e4c388" opacity="0.35" /><circle cx="1520.8" cy="789.4" r="0.9" fill="#e4c388" opacity="0.23" /><circle cx="833.0" cy="123.9" r="0.5" fill="#e4c388" opacity="0.60" /><circle cx="1252.8" cy="417.0" r="1.3" fill="#e4c388" opacity="0.46" /><circle cx="1499.6" cy="731.5" r="0.6" fill="#e4c388" opacity="0.14" /><circle cx="1031.1" cy="627.0" r="1.4" fill="#e4c388" opacity="0.34" /><circle cx="1067.4" cy="571.8" r="0.7" fill="#e4c388" opacity="0.44" /><circle cx="1414.3" cy="723.8" r="1.0" fill="#e4c388" opacity="0.22" /><path d="M 462.8 895 C 382.8 710 565.7 530 565.7 723.7" fill="none" stroke="#acd1be" stroke-width="1" opacity=".7" /><ellipse cx="584.7" cy="723.7" rx="6" ry="17" transform="rotate(0.0 584.7 723.7)" fill="none" stroke="#acd1be" opacity=".75" /><ellipse cx="577.5" cy="738.5" rx="6" ry="17" transform="rotate(51.4 577.5 738.5)" fill="none" stroke="#acd1be" opacity=".75" /><ellipse cx="561.5" cy="742.2" rx="6" ry="17" transform="rotate(102.9 561.5 742.2)" fill="none" stroke="#acd1be" opacity=".75" /><ellipse cx="548.6" cy="731.9" rx="6" ry="17" transform="rotate(154.3 548.6 731.9)" fill="none" stroke="#acd1be" opacity=".75" /><ellipse cx="548.6" cy="715.4" rx="6" ry="17" transform="rotate(205.7 548.6 715.4)" fill="none" stroke="#acd1be" opacity=".75" /><ellipse cx="561.5" cy="705.2" rx="6" ry="17" transform="rotate(257.1 561.5 705.2)" fill="none" stroke="#acd1be" opacity=".75" /><ellipse cx="577.5" cy="708.8" rx="6" ry="17" transform="rotate(308.6 577.5 708.8)" fill="none" stroke="#acd1be" opacity=".75" /><circle cx="565.7" cy="723.7" r="5" fill="#acd1be" /><path d="M 525.3 895 C 445.3 710 577.0 530 577.0 656.4" fill="none" stroke="#e4c388" stroke-width="1" opacity=".7" /><ellipse cx="596.0" cy="656.4" rx="6" ry="17" transform="rotate(0.0 596.0 656.4)" fill="none" stroke="#e4c388" opacity=".75" /><ellipse cx="588.8" cy="671.3" rx="6" ry="17" transform="rotate(51.4 588.8 671.3)" fill="none" stroke="#e4c388" opacity=".75" /><ellipse cx="572.7" cy="674.9" rx="6" ry="17" transform="rotate(102.9 572.7 674.9)" fill="none" stroke="#e4c388" opacity=".75" /><ellipse cx="559.9" cy="664.7" rx="6" ry="17" transform="rotate(154.3 559.9 664.7)" fill="none" stroke="#e4c388" opacity=".75" /><ellipse cx="559.9" cy="648.2" rx="6" ry="17" transform="rotate(205.7 559.9 648.2)" fill="none" stroke="#e4c388" opacity=".75" /><ellipse cx="572.7" cy="637.9" rx="6" ry="17" transform="rotate(257.1 572.7 637.9)" fill="none" stroke="#e4c388" opacity=".75" /><ellipse cx="588.8" cy="641.6" rx="6" ry="17" transform="rotate(308.6 588.8 641.6)" fill="none" stroke="#e4c388" opacity=".75" /><circle cx="577.0" cy="656.4" r="5" fill="#e4c388" /><path d="M 550.3 895 C 470.3 710 604.3 530 604.3 345.2" fill="none" stroke="#ece5d3" stroke-width="1" opacity=".7" /><ellipse cx="623.3" cy="345.2" rx="6" ry="17" transform="rotate(0.0 623.3 345.2)" fill="none" stroke="#ece5d3" opacity=".75" /><ellipse cx="616.1" cy="360.0" rx="6" ry="17" transform="rotate(51.4 616.1 360.0)" fill="none" stroke="#ece5d3" opacity=".75" /><ellipse cx="600.1" cy="363.7" rx="6" ry="17" transform="rotate(102.9 600.1 363.7)" fill="none" stroke="#ece5d3" opacity=".75" /><ellipse cx="587.2" cy="353.4" rx="6" ry="17" transform="rotate(154.3 587.2 353.4)" fill="none" stroke="#ece5d3" opacity=".75" /><ellipse cx="587.2" cy="336.9" rx="6" ry="17" transform="rotate(205.7 587.2 336.9)" fill="none" stroke="#ece5d3" opacity=".75" /><ellipse cx="600.1" cy="326.6" rx="6" ry="17" transform="rotate(257.1 600.1 326.6)" fill="none" stroke="#ece5d3" opacity=".75" /><ellipse cx="616.1" cy="330.3" rx="6" ry="17" transform="rotate(308.6 616.1 330.3)" fill="none" stroke="#ece5d3" opacity=".75" /><circle cx="604.3" cy="345.2" r="5" fill="#ece5d3" /><path d="M 629.3 895 C 549.3 710 606.7 530 606.7 414.5" fill="none" stroke="#6fa49e" stroke-width="1" opacity=".7" /><ellipse cx="625.7" cy="414.5" rx="6" ry="17" transform="rotate(0.0 625.7 414.5)" fill="none" stroke="#6fa49e" opacity=".75" /><ellipse cx="618.5" cy="429.3" rx="6" ry="17" transform="rotate(51.4 618.5 429.3)" fill="none" stroke="#6fa49e" opacity=".75" /><ellipse cx="602.5" cy="433.0" rx="6" ry="17" transform="rotate(102.9 602.5 433.0)" fill="none" stroke="#6fa49e" opacity=".75" /><ellipse cx="589.6" cy="422.7" rx="6" ry="17" transform="rotate(154.3 589.6 422.7)" fill="none" stroke="#6fa49e" opacity=".75" /><ellipse cx="589.6" cy="406.2" rx="6" ry="17" transform="rotate(205.7 589.6 406.2)" fill="none" stroke="#6fa49e" opacity=".75" /><ellipse cx="602.5" cy="395.9" rx="6" ry="17" transform="rotate(257.1 602.5 395.9)" fill="none" stroke="#6fa49e" opacity=".75" /><ellipse cx="618.5" cy="399.6" rx="6" ry="17" transform="rotate(308.6 618.5 399.6)" fill="none" stroke="#6fa49e" opacity=".75" /><circle cx="606.7" cy="414.5" r="5" fill="#6fa49e" /><path d="M 650.1 895 C 570.1 710 747.0 530 747.0 325.7" fill="none" stroke="#acd1be" stroke-width="1" opacity=".7" /><ellipse cx="766.0" cy="325.7" rx="6" ry="17" transform="rotate(0.0 766.0 325.7)" fill="none" stroke="#acd1be" opacity=".75" /><ellipse cx="758.9" cy="340.5" rx="6" ry="17" transform="rotate(51.4 758.9 340.5)" fill="none" stroke="#acd1be" opacity=".75" /><ellipse cx="742.8" cy="344.2" rx="6" ry="17" transform="rotate(102.9 742.8 344.2)" fill="none" stroke="#acd1be" opacity=".75" /><ellipse cx="729.9" cy="333.9" rx="6" ry="17" transform="rotate(154.3 729.9 333.9)" fill="none" stroke="#acd1be" opacity=".75" /><ellipse cx="729.9" cy="317.4" rx="6" ry="17" transform="rotate(205.7 729.9 317.4)" fill="none" stroke="#acd1be" opacity=".75" /><ellipse cx="742.8" cy="307.1" rx="6" ry="17" transform="rotate(257.1 742.8 307.1)" fill="none" stroke="#acd1be" opacity=".75" /><ellipse cx="758.9" cy="310.8" rx="6" ry="17" transform="rotate(308.6 758.9 310.8)" fill="none" stroke="#acd1be" opacity=".75" /><circle cx="747.0" cy="325.7" r="5" fill="#acd1be" /><path d="M 718.4 895 C 638.4 710 620.4 530 620.4 339.9" fill="none" stroke="#e4c388" stroke-width="1" opacity=".7" /><ellipse cx="639.4" cy="339.9" rx="6" ry="17" transform="rotate(0.0 639.4 339.9)" fill="none" stroke="#e4c388" opacity=".75" /><ellipse cx="632.3" cy="354.8" rx="6" ry="17" transform="rotate(51.4 632.3 354.8)" fill="none" stroke="#e4c388" opacity=".75" /><ellipse cx="616.2" cy="358.4" rx="6" ry="17" transform="rotate(102.9 616.2 358.4)" fill="none" stroke="#e4c388" opacity=".75" /><ellipse cx="603.3" cy="348.1" rx="6" ry="17" transform="rotate(154.3 603.3 348.1)" fill="none" stroke="#e4c388" opacity=".75" /><ellipse cx="603.3" cy="331.7" rx="6" ry="17" transform="rotate(205.7 603.3 331.7)" fill="none" stroke="#e4c388" opacity=".75" /><ellipse cx="616.2" cy="321.4" rx="6" ry="17" transform="rotate(257.1 616.2 321.4)" fill="none" stroke="#e4c388" opacity=".75" /><ellipse cx="632.3" cy="325.0" rx="6" ry="17" transform="rotate(308.6 632.3 325.0)" fill="none" stroke="#e4c388" opacity=".75" /><circle cx="620.4" cy="339.9" r="5" fill="#e4c388" /><path d="M 752.9 895 C 672.9 710 761.3 530 761.3 473.0" fill="none" stroke="#ece5d3" stroke-width="1" opacity=".7" /><ellipse cx="780.3" cy="473.0" rx="6" ry="17" transform="rotate(0.0 780.3 473.0)" fill="none" stroke="#ece5d3" opacity=".75" /><ellipse cx="773.2" cy="487.8" rx="6" ry="17" transform="rotate(51.4 773.2 487.8)" fill="none" stroke="#ece5d3" opacity=".75" /><ellipse cx="757.1" cy="491.5" rx="6" ry="17" transform="rotate(102.9 757.1 491.5)" fill="none" stroke="#ece5d3" opacity=".75" /><ellipse cx="744.2" cy="481.2" rx="6" ry="17" transform="rotate(154.3 744.2 481.2)" fill="none" stroke="#ece5d3" opacity=".75" /><ellipse cx="744.2" cy="464.7" rx="6" ry="17" transform="rotate(205.7 744.2 464.7)" fill="none" stroke="#ece5d3" opacity=".75" /><ellipse cx="757.1" cy="454.5" rx="6" ry="17" transform="rotate(257.1 757.1 454.5)" fill="none" stroke="#ece5d3" opacity=".75" /><ellipse cx="773.2" cy="458.1" rx="6" ry="17" transform="rotate(308.6 773.2 458.1)" fill="none" stroke="#ece5d3" opacity=".75" /><circle cx="761.3" cy="473.0" r="5" fill="#ece5d3" /><path d="M 802.9 895 C 722.9 710 855.9 530 855.9 724.5" fill="none" stroke="#6fa49e" stroke-width="1" opacity=".7" /><ellipse cx="874.9" cy="724.5" rx="6" ry="17" transform="rotate(0.0 874.9 724.5)" fill="none" stroke="#6fa49e" opacity=".75" /><ellipse cx="867.7" cy="739.4" rx="6" ry="17" transform="rotate(51.4 867.7 739.4)" fill="none" stroke="#6fa49e" opacity=".75" /><ellipse cx="851.7" cy="743.0" rx="6" ry="17" transform="rotate(102.9 851.7 743.0)" fill="none" stroke="#6fa49e" opacity=".75" /><ellipse cx="838.8" cy="732.7" rx="6" ry="17" transform="rotate(154.3 838.8 732.7)" fill="none" stroke="#6fa49e" opacity=".75" /><ellipse cx="838.8" cy="716.3" rx="6" ry="17" transform="rotate(205.7 838.8 716.3)" fill="none" stroke="#6fa49e" opacity=".75" /><ellipse cx="851.7" cy="706.0" rx="6" ry="17" transform="rotate(257.1 851.7 706.0)" fill="none" stroke="#6fa49e" opacity=".75" /><ellipse cx="867.7" cy="709.6" rx="6" ry="17" transform="rotate(308.6 867.7 709.6)" fill="none" stroke="#6fa49e" opacity=".75" /><circle cx="855.9" cy="724.5" r="5" fill="#6fa49e" /><path d="M 854.3 895 C 774.3 710 842.4 530 842.4 290.4" fill="none" stroke="#acd1be" stroke-width="1" opacity=".7" /><ellipse cx="861.4" cy="290.4" rx="6" ry="17" transform="rotate(0.0 861.4 290.4)" fill="none" stroke="#acd1be" opacity=".75" /><ellipse cx="854.3" cy="305.2" rx="6" ry="17" transform="rotate(51.4 854.3 305.2)" fill="none" stroke="#acd1be" opacity=".75" /><ellipse cx="838.2" cy="308.9" rx="6" ry="17" transform="rotate(102.9 838.2 308.9)" fill="none" stroke="#acd1be" opacity=".75" /><ellipse cx="825.3" cy="298.6" rx="6" ry="17" transform="rotate(154.3 825.3 298.6)" fill="none" stroke="#acd1be" opacity=".75" /><ellipse cx="825.3" cy="282.1" rx="6" ry="17" transform="rotate(205.7 825.3 282.1)" fill="none" stroke="#acd1be" opacity=".75" /><ellipse cx="838.2" cy="271.9" rx="6" ry="17" transform="rotate(257.1 838.2 271.9)" fill="none" stroke="#acd1be" opacity=".75" /><ellipse cx="854.3" cy="275.5" rx="6" ry="17" transform="rotate(308.6 854.3 275.5)" fill="none" stroke="#acd1be" opacity=".75" /><circle cx="842.4" cy="290.4" r="5" fill="#acd1be" /><path d="M 879.2 895 C 799.2 710 848.5 530 848.5 448.8" fill="none" stroke="#e4c388" stroke-width="1" opacity=".7" /><ellipse cx="867.5" cy="448.8" rx="6" ry="17" transform="rotate(0.0 867.5 448.8)" fill="none" stroke="#e4c388" opacity=".75" /><ellipse cx="860.3" cy="463.6" rx="6" ry="17" transform="rotate(51.4 860.3 463.6)" fill="none" stroke="#e4c388" opacity=".75" /><ellipse cx="844.2" cy="467.3" rx="6" ry="17" transform="rotate(102.9 844.2 467.3)" fill="none" stroke="#e4c388" opacity=".75" /><ellipse cx="831.3" cy="457.0" rx="6" ry="17" transform="rotate(154.3 831.3 457.0)" fill="none" stroke="#e4c388" opacity=".75" /><ellipse cx="831.3" cy="440.5" rx="6" ry="17" transform="rotate(205.7 831.3 440.5)" fill="none" stroke="#e4c388" opacity=".75" /><ellipse cx="844.2" cy="430.2" rx="6" ry="17" transform="rotate(257.1 844.2 430.2)" fill="none" stroke="#e4c388" opacity=".75" /><ellipse cx="860.3" cy="433.9" rx="6" ry="17" transform="rotate(308.6 860.3 433.9)" fill="none" stroke="#e4c388" opacity=".75" /><circle cx="848.5" cy="448.8" r="5" fill="#e4c388" /><path d="M 934.1 895 C 854.1 710 939.0 530 939.0 205.6" fill="none" stroke="#ece5d3" stroke-width="1" opacity=".7" /><ellipse cx="958.0" cy="205.6" rx="6" ry="17" transform="rotate(0.0 958.0 205.6)" fill="none" stroke="#ece5d3" opacity=".75" /><ellipse cx="950.8" cy="220.4" rx="6" ry="17" transform="rotate(51.4 950.8 220.4)" fill="none" stroke="#ece5d3" opacity=".75" /><ellipse cx="934.7" cy="224.1" rx="6" ry="17" transform="rotate(102.9 934.7 224.1)" fill="none" stroke="#ece5d3" opacity=".75" /><ellipse cx="921.8" cy="213.8" rx="6" ry="17" transform="rotate(154.3 921.8 213.8)" fill="none" stroke="#ece5d3" opacity=".75" /><ellipse cx="921.8" cy="197.3" rx="6" ry="17" transform="rotate(205.7 921.8 197.3)" fill="none" stroke="#ece5d3" opacity=".75" /><ellipse cx="934.7" cy="187.0" rx="6" ry="17" transform="rotate(257.1 934.7 187.0)" fill="none" stroke="#ece5d3" opacity=".75" /><ellipse cx="950.8" cy="190.7" rx="6" ry="17" transform="rotate(308.6 950.8 190.7)" fill="none" stroke="#ece5d3" opacity=".75" /><circle cx="939.0" cy="205.6" r="5" fill="#ece5d3" /><path d="M 964.6 895 C 884.6 710 917.2 530 917.2 192.6" fill="none" stroke="#6fa49e" stroke-width="1" opacity=".7" /><ellipse cx="936.2" cy="192.6" rx="6" ry="17" transform="rotate(0.0 936.2 192.6)" fill="none" stroke="#6fa49e" opacity=".75" /><ellipse cx="929.1" cy="207.5" rx="6" ry="17" transform="rotate(51.4 929.1 207.5)" fill="none" stroke="#6fa49e" opacity=".75" /><ellipse cx="913.0" cy="211.1" rx="6" ry="17" transform="rotate(102.9 913.0 211.1)" fill="none" stroke="#6fa49e" opacity=".75" /><ellipse cx="900.1" cy="200.8" rx="6" ry="17" transform="rotate(154.3 900.1 200.8)" fill="none" stroke="#6fa49e" opacity=".75" /><ellipse cx="900.1" cy="184.4" rx="6" ry="17" transform="rotate(205.7 900.1 184.4)" fill="none" stroke="#6fa49e" opacity=".75" /><ellipse cx="913.0" cy="174.1" rx="6" ry="17" transform="rotate(257.1 913.0 174.1)" fill="none" stroke="#6fa49e" opacity=".75" /><ellipse cx="929.1" cy="177.7" rx="6" ry="17" transform="rotate(308.6 929.1 177.7)" fill="none" stroke="#6fa49e" opacity=".75" /><circle cx="917.2" cy="192.6" r="5" fill="#6fa49e" /><path d="M 1013.4 895 C 933.4 710 1012.8 530 1012.8 662.8" fill="none" stroke="#acd1be" stroke-width="1" opacity=".7" /><ellipse cx="1031.8" cy="662.8" rx="6" ry="17" transform="rotate(0.0 1031.8 662.8)" fill="none" stroke="#acd1be" opacity=".75" /><ellipse cx="1024.7" cy="677.7" rx="6" ry="17" transform="rotate(51.4 1024.7 677.7)" fill="none" stroke="#acd1be" opacity=".75" /><ellipse cx="1008.6" cy="681.4" rx="6" ry="17" transform="rotate(102.9 1008.6 681.4)" fill="none" stroke="#acd1be" opacity=".75" /><ellipse cx="995.7" cy="671.1" rx="6" ry="17" transform="rotate(154.3 995.7 671.1)" fill="none" stroke="#acd1be" opacity=".75" /><ellipse cx="995.7" cy="654.6" rx="6" ry="17" transform="rotate(205.7 995.7 654.6)" fill="none" stroke="#acd1be" opacity=".75" /><ellipse cx="1008.6" cy="644.3" rx="6" ry="17" transform="rotate(257.1 1008.6 644.3)" fill="none" stroke="#acd1be" opacity=".75" /><ellipse cx="1024.7" cy="648.0" rx="6" ry="17" transform="rotate(308.6 1024.7 648.0)" fill="none" stroke="#acd1be" opacity=".75" /><circle cx="1012.8" cy="662.8" r="5" fill="#acd1be" /><path d="M 1059.5 895 C 979.5 710 986.8 530 986.8 224.5" fill="none" stroke="#e4c388" stroke-width="1" opacity=".7" /><ellipse cx="1005.8" cy="224.5" rx="6" ry="17" transform="rotate(0.0 1005.8 224.5)" fill="none" stroke="#e4c388" opacity=".75" /><ellipse cx="998.6" cy="239.4" rx="6" ry="17" transform="rotate(51.4 998.6 239.4)" fill="none" stroke="#e4c388" opacity=".75" /><ellipse cx="982.6" cy="243.0" rx="6" ry="17" transform="rotate(102.9 982.6 243.0)" fill="none" stroke="#e4c388" opacity=".75" /><ellipse cx="969.7" cy="232.8" rx="6" ry="17" transform="rotate(154.3 969.7 232.8)" fill="none" stroke="#e4c388" opacity=".75" /><ellipse cx="969.7" cy="216.3" rx="6" ry="17" transform="rotate(205.7 969.7 216.3)" fill="none" stroke="#e4c388" opacity=".75" /><ellipse cx="982.6" cy="206.0" rx="6" ry="17" transform="rotate(257.1 982.6 206.0)" fill="none" stroke="#e4c388" opacity=".75" /><ellipse cx="998.6" cy="209.7" rx="6" ry="17" transform="rotate(308.6 998.6 209.7)" fill="none" stroke="#e4c388" opacity=".75" /><circle cx="986.8" cy="224.5" r="5" fill="#e4c388" /><path d="M 1112.3 895 C 1032.3 710 1050.0 530 1050.0 723.2" fill="none" stroke="#ece5d3" stroke-width="1" opacity=".7" /><ellipse cx="1069.0" cy="723.2" rx="6" ry="17" transform="rotate(0.0 1069.0 723.2)" fill="none" stroke="#ece5d3" opacity=".75" /><ellipse cx="1061.8" cy="738.1" rx="6" ry="17" transform="rotate(51.4 1061.8 738.1)" fill="none" stroke="#ece5d3" opacity=".75" /><ellipse cx="1045.7" cy="741.7" rx="6" ry="17" transform="rotate(102.9 1045.7 741.7)" fill="none" stroke="#ece5d3" opacity=".75" /><ellipse cx="1032.9" cy="731.5" rx="6" ry="17" transform="rotate(154.3 1032.9 731.5)" fill="none" stroke="#ece5d3" opacity=".75" /><ellipse cx="1032.9" cy="715.0" rx="6" ry="17" transform="rotate(205.7 1032.9 715.0)" fill="none" stroke="#ece5d3" opacity=".75" /><ellipse cx="1045.7" cy="704.7" rx="6" ry="17" transform="rotate(257.1 1045.7 704.7)" fill="none" stroke="#ece5d3" opacity=".75" /><ellipse cx="1061.8" cy="708.4" rx="6" ry="17" transform="rotate(308.6 1061.8 708.4)" fill="none" stroke="#ece5d3" opacity=".75" /><circle cx="1050.0" cy="723.2" r="5" fill="#ece5d3" /><path d="M 1158.6 895 C 1078.6 710 1116.0 530 1116.0 403.5" fill="none" stroke="#6fa49e" stroke-width="1" opacity=".7" /><ellipse cx="1135.0" cy="403.5" rx="6" ry="17" transform="rotate(0.0 1135.0 403.5)" fill="none" stroke="#6fa49e" opacity=".75" /><ellipse cx="1127.9" cy="418.3" rx="6" ry="17" transform="rotate(51.4 1127.9 418.3)" fill="none" stroke="#6fa49e" opacity=".75" /><ellipse cx="1111.8" cy="422.0" rx="6" ry="17" transform="rotate(102.9 1111.8 422.0)" fill="none" stroke="#6fa49e" opacity=".75" /><ellipse cx="1098.9" cy="411.7" rx="6" ry="17" transform="rotate(154.3 1098.9 411.7)" fill="none" stroke="#6fa49e" opacity=".75" /><ellipse cx="1098.9" cy="395.2" rx="6" ry="17" transform="rotate(205.7 1098.9 395.2)" fill="none" stroke="#6fa49e" opacity=".75" /><ellipse cx="1111.8" cy="384.9" rx="6" ry="17" transform="rotate(257.1 1111.8 384.9)" fill="none" stroke="#6fa49e" opacity=".75" /><ellipse cx="1127.9" cy="388.6" rx="6" ry="17" transform="rotate(308.6 1127.9 388.6)" fill="none" stroke="#6fa49e" opacity=".75" /><circle cx="1116.0" cy="403.5" r="5" fill="#6fa49e" /><path d="M 1200.4 895 C 1120.4 710 1302.2 530 1302.2 660.4" fill="none" stroke="#acd1be" stroke-width="1" opacity=".7" /><ellipse cx="1321.2" cy="660.4" rx="6" ry="17" transform="rotate(0.0 1321.2 660.4)" fill="none" stroke="#acd1be" opacity=".75" /><ellipse cx="1314.0" cy="675.2" rx="6" ry="17" transform="rotate(51.4 1314.0 675.2)" fill="none" stroke="#acd1be" opacity=".75" /><ellipse cx="1297.9" cy="678.9" rx="6" ry="17" transform="rotate(102.9 1297.9 678.9)" fill="none" stroke="#acd1be" opacity=".75" /><ellipse cx="1285.0" cy="668.6" rx="6" ry="17" transform="rotate(154.3 1285.0 668.6)" fill="none" stroke="#acd1be" opacity=".75" /><ellipse cx="1285.0" cy="652.1" rx="6" ry="17" transform="rotate(205.7 1285.0 652.1)" fill="none" stroke="#acd1be" opacity=".75" /><ellipse cx="1297.9" cy="641.9" rx="6" ry="17" transform="rotate(257.1 1297.9 641.9)" fill="none" stroke="#acd1be" opacity=".75" /><ellipse cx="1314.0" cy="645.5" rx="6" ry="17" transform="rotate(308.6 1314.0 645.5)" fill="none" stroke="#acd1be" opacity=".75" /><circle cx="1302.2" cy="660.4" r="5" fill="#acd1be" /><path d="M 1228.8 895 C 1148.8 710 1308.9 530 1308.9 514.3" fill="none" stroke="#e4c388" stroke-width="1" opacity=".7" /><ellipse cx="1327.9" cy="514.3" rx="6" ry="17" transform="rotate(0.0 1327.9 514.3)" fill="none" stroke="#e4c388" opacity=".75" /><ellipse cx="1320.8" cy="529.1" rx="6" ry="17" transform="rotate(51.4 1320.8 529.1)" fill="none" stroke="#e4c388" opacity=".75" /><ellipse cx="1304.7" cy="532.8" rx="6" ry="17" transform="rotate(102.9 1304.7 532.8)" fill="none" stroke="#e4c388" opacity=".75" /><ellipse cx="1291.8" cy="522.5" rx="6" ry="17" transform="rotate(154.3 1291.8 522.5)" fill="none" stroke="#e4c388" opacity=".75" /><ellipse cx="1291.8" cy="506.0" rx="6" ry="17" transform="rotate(205.7 1291.8 506.0)" fill="none" stroke="#e4c388" opacity=".75" /><ellipse cx="1304.7" cy="495.7" rx="6" ry="17" transform="rotate(257.1 1304.7 495.7)" fill="none" stroke="#e4c388" opacity=".75" /><ellipse cx="1320.8" cy="499.4" rx="6" ry="17" transform="rotate(308.6 1320.8 499.4)" fill="none" stroke="#e4c388" opacity=".75" /><circle cx="1308.9" cy="514.3" r="5" fill="#e4c388" /><path d="M 1287.7 895 C 1207.7 710 1340.7 530 1340.7 511.0" fill="none" stroke="#ece5d3" stroke-width="1" opacity=".7" /><ellipse cx="1359.7" cy="511.0" rx="6" ry="17" transform="rotate(0.0 1359.7 511.0)" fill="none" stroke="#ece5d3" opacity=".75" /><ellipse cx="1352.6" cy="525.9" rx="6" ry="17" transform="rotate(51.4 1352.6 525.9)" fill="none" stroke="#ece5d3" opacity=".75" /><ellipse cx="1336.5" cy="529.5" rx="6" ry="17" transform="rotate(102.9 1336.5 529.5)" fill="none" stroke="#ece5d3" opacity=".75" /><ellipse cx="1323.6" cy="519.2" rx="6" ry="17" transform="rotate(154.3 1323.6 519.2)" fill="none" stroke="#ece5d3" opacity=".75" /><ellipse cx="1323.6" cy="502.8" rx="6" ry="17" transform="rotate(205.7 1323.6 502.8)" fill="none" stroke="#ece5d3" opacity=".75" /><ellipse cx="1336.5" cy="492.5" rx="6" ry="17" transform="rotate(257.1 1336.5 492.5)" fill="none" stroke="#ece5d3" opacity=".75" /><ellipse cx="1352.6" cy="496.1" rx="6" ry="17" transform="rotate(308.6 1352.6 496.1)" fill="none" stroke="#ece5d3" opacity=".75" /><circle cx="1340.7" cy="511.0" r="5" fill="#ece5d3" /><path d="M 1345.6 895 C 1265.6 710 1416.2 530 1416.2 205.9" fill="none" stroke="#6fa49e" stroke-width="1" opacity=".7" /><ellipse cx="1435.2" cy="205.9" rx="6" ry="17" transform="rotate(0.0 1435.2 205.9)" fill="none" stroke="#6fa49e" opacity=".75" /><ellipse cx="1428.1" cy="220.8" rx="6" ry="17" transform="rotate(51.4 1428.1 220.8)" fill="none" stroke="#6fa49e" opacity=".75" /><ellipse cx="1412.0" cy="224.4" rx="6" ry="17" transform="rotate(102.9 1412.0 224.4)" fill="none" stroke="#6fa49e" opacity=".75" /><ellipse cx="1399.1" cy="214.2" rx="6" ry="17" transform="rotate(154.3 1399.1 214.2)" fill="none" stroke="#6fa49e" opacity=".75" /><ellipse cx="1399.1" cy="197.7" rx="6" ry="17" transform="rotate(205.7 1399.1 197.7)" fill="none" stroke="#6fa49e" opacity=".75" /><ellipse cx="1412.0" cy="187.4" rx="6" ry="17" transform="rotate(257.1 1412.0 187.4)" fill="none" stroke="#6fa49e" opacity=".75" /><ellipse cx="1428.1" cy="191.1" rx="6" ry="17" transform="rotate(308.6 1428.1 191.1)" fill="none" stroke="#6fa49e" opacity=".75" /><circle cx="1416.2" cy="205.9" r="5" fill="#6fa49e" /><path d="M 1382.5 895 C 1302.5 710 1440.1 530 1440.1 451.4" fill="none" stroke="#acd1be" stroke-width="1" opacity=".7" /><ellipse cx="1459.1" cy="451.4" rx="6" ry="17" transform="rotate(0.0 1459.1 451.4)" fill="none" stroke="#acd1be" opacity=".75" /><ellipse cx="1451.9" cy="466.2" rx="6" ry="17" transform="rotate(51.4 1451.9 466.2)" fill="none" stroke="#acd1be" opacity=".75" /><ellipse cx="1435.8" cy="469.9" rx="6" ry="17" transform="rotate(102.9 1435.8 469.9)" fill="none" stroke="#acd1be" opacity=".75" /><ellipse cx="1422.9" cy="459.6" rx="6" ry="17" transform="rotate(154.3 1422.9 459.6)" fill="none" stroke="#acd1be" opacity=".75" /><ellipse cx="1422.9" cy="443.1" rx="6" ry="17" transform="rotate(205.7 1422.9 443.1)" fill="none" stroke="#acd1be" opacity=".75" /><ellipse cx="1435.8" cy="432.9" rx="6" ry="17" transform="rotate(257.1 1435.8 432.9)" fill="none" stroke="#acd1be" opacity=".75" /><ellipse cx="1451.9" cy="436.5" rx="6" ry="17" transform="rotate(308.6 1451.9 436.5)" fill="none" stroke="#acd1be" opacity=".75" /><circle cx="1440.1" cy="451.4" r="5" fill="#acd1be" /><path d="M 1442.8 895 C 1362.8 710 1407.6 530 1407.6 524.7" fill="none" stroke="#e4c388" stroke-width="1" opacity=".7" /><ellipse cx="1426.6" cy="524.7" rx="6" ry="17" transform="rotate(0.0 1426.6 524.7)" fill="none" stroke="#e4c388" opacity=".75" /><ellipse cx="1419.5" cy="539.5" rx="6" ry="17" transform="rotate(51.4 1419.5 539.5)" fill="none" stroke="#e4c388" opacity=".75" /><ellipse cx="1403.4" cy="543.2" rx="6" ry="17" transform="rotate(102.9 1403.4 543.2)" fill="none" stroke="#e4c388" opacity=".75" /><ellipse cx="1390.5" cy="532.9" rx="6" ry="17" transform="rotate(154.3 1390.5 532.9)" fill="none" stroke="#e4c388" opacity=".75" /><ellipse cx="1390.5" cy="516.4" rx="6" ry="17" transform="rotate(205.7 1390.5 516.4)" fill="none" stroke="#e4c388" opacity=".75" /><ellipse cx="1403.4" cy="506.2" rx="6" ry="17" transform="rotate(257.1 1403.4 506.2)" fill="none" stroke="#e4c388" opacity=".75" /><ellipse cx="1419.5" cy="509.8" rx="6" ry="17" transform="rotate(308.6 1419.5 509.8)" fill="none" stroke="#e4c388" opacity=".75" /><circle cx="1407.6" cy="524.7" r="5" fill="#e4c388" /></svg>