<?xml version='1.0' encoding='utf-8'?>
<svg width="1600" height="1000" viewBox="0 0 1600 1000" xmlns="http://www.w3.org/2000/svg"><defs><radialGradient id="paint0"><stop stop-color="#234746" /><stop offset="1" stop-color="#091f25" /></radialGradient></defs><rect width="1600" height="1000" fill="url(#paint0)" /><rect x="32" y="32" width="1536" height="936" rx="3" fill="none" stroke="#b4a277" stroke-opacity=".45" /><circle cx="1101.2" cy="145.3" r="0.8" fill="#e4c388" opacity="0.47" /><circle cx="440.3" cy="212.1" r="1.5" fill="#e4c388" opacity="0.52" /><circle cx="1420.7" cy="732.6" r="0.9" fill="#e4c388" opacity="0.49" /><circle cx="703.8" cy="207.0" r="1.5" fill="#e4c388" opacity="0.32" /><circle cx="1407.7" cy="440.0" r="0.9" fill="#e4c388" opacity="0.21" /><circle cx="253.7" cy="824.2" r="0.6" fill="#e4c388" opacity="0.33" /><circle cx="319.8" cy="77.5" r="1.6" fill="#e4c388" opacity="0.24" /><circle cx="971.9" cy="310.3" r="0.9" fill="#e4c388" opacity="0.41" /><circle cx="929.5" cy="405.3" r="1.0" fill="#e4c388" opacity="0.19" /><circle cx="668.5" cy="126.5" r="1.1" fill="#e4c388" opacity="0.22" /><circle cx="1175.7" cy="146.1" r="0.8" fill="#e4c388" opacity="0.50" /><circle cx="977.9" cy="783.4" r="1.2" fill="#e4c388" opacity="0.35" /><circle cx="961.6" cy="644.0" r="0.8" fill="#e4c388" opacity="0.15" /><circle cx="1360.3" cy="287.5" r="1.2" fill="#e4c388" opacity="0.48" /><circle cx="1279.7" cy="691.9" r="1.2" fill="#e4c388" opacity="0.38" /><circle cx="460.8" cy="253.7" r="1.2" fill="#e4c388" opacity="0.16" /><circle cx="144.6" cy="492.0" r="1.1" fill="#e4c388" opacity="0.58" /><circle cx="569.9" cy="414.9" r="1.2" fill="#e4c388" opacity="0.31" /><circle cx="188.2" cy="723.2" r="1.0" fill="#e4c388" opacity="0.31" /><circle cx="317.2" cy="847.9" r="1.1" fill="#e4c388" opacity="0.32" /><circle cx="391.4" cy="352.9" r="0.7" fill="#e4c388" opacity="0.19" /><circle cx="297.5" cy="530.6" r="0.7" fill="#e4c388" opacity="0.44" /><circle cx="1415.9" cy="815.1" r="1.3" fill="#e4c388" opacity="0.38" /><circle cx="649.3" cy="556.2" r="1.1" fill="#e4c388" opacity="0.15" /><circle cx="909.4" cy="796.6" r="0.5" fill="#e4c388" opacity="0.50" /><circle cx="110.9" cy="343.1" r="0.5" fill="#e4c388" opacity="0.60" /><circle cx="1537.6" cy="853.1" r="1.5" fill="#e4c388" opacity="0.49" /><circle cx="1332.9" cy="400.3" r="0.7" fill="#e4c388" opacity="0.28" /><circle cx="451.8" cy="761.4" r="0.4" fill="#e4c388" opacity="0.56" /><circle cx="1509.9" cy="760.1" r="1.3" fill="#e4c388" opacity="0.56" /><circle cx="638.8" cy="485.0" r="0.5" fill="#e4c388" opacity="0.41" /><circle cx="1320.7" cy="734.1" r="0.8" fill="#e4c388" opacity="0.35" /><circle cx="905.4" cy="299.3" r="1.3" fill="#e4c388" opacity="0.57" /><circle cx="301.0" cy="749.3" r="1.3" fill="#e4c388" opacity="0.21" /><circle cx="261.6" cy="455.5" r="1.5" fill="#e4c388" opacity="0.29" /><circle cx="292.4" cy="322.9" r="0.9" fill="#e4c388" opacity="0.42" /><circle cx="598.1" cy="636.5" r="0.9" fill="#e4c388" opacity="0.34" /><circle cx="107.2" cy="377.9" r="1.3" fill="#e4c388" opacity="0.14" /><circle cx="1366.5" cy="839.1" r="1.5" fill="#e4c388" opacity="0.49" /><circle cx="1331.8" cy="264.8" r="0.5" fill="#e4c388" opacity="0.48" /><circle cx="701.4" cy="724.6" r="0.7" fill="#e4c388" opacity="0.44" /><circle cx="976.0" cy="227.6" r="0.5" fill="#e4c388" opacity="0.51" /><circle cx="334.1" cy="492.0" r="1.3" fill="#e4c388" opacity="0.47" /><circle cx="1239.3" cy="314.2" r="0.5" fill="#e4c388" opacity="0.20" /><circle cx="1056.0" cy="758.9" r="1.3" fill="#e4c388" opacity="0.32" /><circle cx="1331.2" cy="229.0" r="1.3" fill="#e4c388" opacity="0.52" /><circle cx="1509.9" cy="738.0" r="0.7" fill="#e4c388" opacity="0.19" /><circle cx="1195.0" cy="585.2" r="1.2" fill="#e4c388" opacity="0.23" /><circle cx="290.3" cy="232.1" r="1.2" fill="#e4c388" opacity="0.14" /><circle cx="1492.5" cy="580.2" r="0.9" fill="#e4c388" opacity="0.20" /><circle cx="513.5" cy="529.1" r="1.6" fill="#e4c388" opacity="0.25" /><circle cx="259.4" cy="410.5" r="0.8" fill="#e4c388" opacity="0.16" /><circle cx="1169.0" cy="569.8" r="1.3" fill="#e4c388" opacity="0.19" /><circle cx="971.2" cy="165.5" r="1.0" fill="#e4c388" opacity="0.48" /><circle cx="547.0" cy="828.6" r="1.4" fill="#e4c388" opacity="0.25" /><circle cx="874.2" cy="431.3" r="1.2" fill="#e4c388" opacity="0.35" /><circle cx="1275.9" cy="841.9" r="0.6" fill="#e4c388" opacity="0.42" /><circle cx="1460.4" cy="279.7" r="0.5" fill="#e4c388" opacity="0.30" /><circle cx="1263.7" cy="737.7" r="0.4" fill="#e4c388" opacity="0.32" /><circle cx="1280.2" cy="511.3" r="0.6" fill="#e4c388" opacity="0.41" /><circle cx="1476.4" cy="325.0" r="1.4" fill="#e4c388" opacity="0.49" /><circle cx="1331.9" cy="124.8" r="0.9" fill="#e4c388" opacity="0.47" /><circle cx="112.7" cy="207.9" r="0.7" fill="#e4c388" opacity="0.58" /><circle cx="120.6" cy="654.6" r="1.5" fill="#e4c388" opacity="0.39" /><circle cx="1306.1" cy="503.6" r="0.8" fill="#e4c388" opacity="0.25" /><circle cx="1144.6" cy="169.8" r="0.7" fill="#e4c388" opacity="0.20" /><circle cx="1493.2" cy="94.3" r="1.4" fill="#e4c388" opacity="0.26" /><circle cx="472.6" cy="514.6" r="1.0" fill="#e4c388" opacity="0.42" /><circle cx="359.4" cy="203.1" r="1.4" fill="#e4c388" opacity="0.44" /><circle cx="808.2" cy="338.8" r="0.5" fill="#e4c388" opacity="0.47" /><circle cx="1273.9" cy="131.2" r="0.9" fill="#e4c388" opacity="0.49" /><circle cx="553.6" cy="494.9" r="0.5" fill="#e4c388" opacity="0.39" /><circle cx="295.2" cy="622.0" r="1.3" fill="#e4c388" opacity="0.43" /><circle cx="492.7" cy="281.1" r="1.4" fill="#e4c388" opacity="0.33" /><circle cx="1284.8" cy="196.8" r="1.0" fill="#e4c388" opacity="0.22" /><circle cx="1094.3" cy="552.9" r="0.5" fill="#e4c388" opacity="0.24" /><circle cx="1522.5" cy="768.2" r="0.7" fill="#e4c388" opacity="0.43" /><circle cx="363.3" cy="393.6" r="0.9" fill="#e4c388" opacity="0.38" /><circle cx="526.1" cy="865.4" r="1.1" fill="#e4c388" opacity="0.46" /><circle cx="310.9" cy="732.8" r="1.0" fill="#e4c388" opacity="0.53" /><circle cx="1482.3" cy="548.3" r="1.3" fill="#e4c388" opacity="0.13" /><circle cx="561.7" cy="209.6" r="1.4" fill="#e4c388" opacity="0.54" /><circle cx="1196.0" cy="431.1" r="0.5" fill="#e4c388" opacity="0.16" /><circle cx="833.3" cy="360.6" r="0.5" fill="#e4c388" opacity="0.27" /><circle cx="214.0" cy="542.0" r="1.2" fill="#e4c388" opacity="0.17" /><circle cx="743.9" cy="620.0" r="1.3" fill="#e4c388" opacity="0.45" /><circle cx="1401.4" cy="802.8" r="1.1" fill="#e4c388" opacity="0.49" /><circle cx="478.4" cy="805.6" r="0.5" fill="#e4c388" opacity="0.35" /><circle cx="238.3" cy="759.8" r="1.6" fill="#e4c388" opacity="0.48" /><circle cx="947.6" cy="649.9" r="0.5" fill="#e4c388" opacity="0.12" /><circle cx="907.4" cy="173.3" r="1.0" fill="#e4c388" opacity="0.46" /><circle cx="643.2" cy="391.3" r="1.5" fill="#e4c388" opacity="0.54" /><circle cx="799.0" cy="572.1" r="0.8" fill="#e4c388" opacity="0.18" /><circle cx="404.9" cy="632.1" r="1.5" fill="#e4c388" opacity="0.51" /><circle cx="970.7" cy="540.0" r="1.3" fill="#e4c388" opacity="0.26" /><circle cx="816.4" cy="248.4" r="0.7" fill="#e4c388" opacity="0.54" /><circle cx="417.7" cy="153.0" r="0.6" fill="#e4c388" opacity="0.57" /><circle cx="953.7" cy="293.3" r="0.8" fill="#e4c388" opacity="0.47" /><circle cx="961.8" cy="826.5" r="0.5" fill="#e4c388" opacity="0.55" /><circle cx="514.1" cy="392.8" r="0.4" fill="#e4c388" opacity="0.60" /><circle cx="825.5" cy="578.5" r="1.2" fill="#e4c388" opacity="0.28" /><circle cx="1092.8" cy="752.8" r="0.7" fill="#e4c388" opacity="0.30" /><circle cx="1380.5" cy="236.8" r="0.7" fill="#e4c388" opacity="0.60" /><circle cx="272.6" cy="239.0" r="1.3" fill="#e4c388" opacity="0.60" /><circle cx="195.1" cy="234.6" r="0.5" fill="#e4c388" opacity="0.22" /><circle cx="1340.9" cy="324.5" r="0.6" fill="#e4c388" opacity="0.19" /><circle cx="1454.7" cy="344.4" r="0.7" fill="#e4c388" opacity="0.52" /><circle cx="1285.9" cy="576.5" r="0.6" fill="#e4c388" opacity="0.51" /><circle cx="1395.5" cy="571.9" r="1.0" fill="#e4c388" opacity="0.25" /><circle cx="1374.8" cy="508.8" r="1.1" fill="#e4c388" opacity="0.56" /><circle cx="687.2" cy="140.7" r="1.2" fill="#e4c388" opacity="0.57" /><circle cx="390.1" cy="444.4" r="1.1" fill="#e4c388" opacity="0.26" /><circle cx="665.6" cy="155.4" r="0.7" fill="#e4c388" opacity="0.58" /><circle cx="1052.2" cy="751.9" r="1.4" fill="#e4c388" opacity="0.18" /><circle cx="744.0" cy="251.3" r="1.0" fill="#e4c388" opacity="0.38" /><circle cx="968.0" cy="833.4" r="0.5" fill="#e4c388" opacity="0.18" /><circle cx="1011.7" cy="101.8" r="1.2" fill="#e4c388" opacity="0.52" /><circle cx="916.1" cy="263.2" r="1.3" fill="#e4c388" opacity="0.43" /><circle cx="80.8" cy="834.4" r="0.6" fill="#e4c388" opacity="0.28" /><circle cx="448.1" cy="767.9" r="1.0" fill="#e4c388" opacity="0.18" /><circle cx="327.3" cy="157.7" r="1.0" fill="#e4c388" opacity="0.19" /><circle cx="1210.7" cy="757.9" r="0.7" fill="#e4c388" opacity="0.49" /><circle cx="395.9" cy="377.3" r="0.7" fill="#e4c388" opacity="0.58" /><circle cx="516.6" cy="694.3" r="1.4" fill="#e4c388" opacity="0.35" /><circle cx="1496.1" cy="76.2" r="1.5" fill="#e4c388" opacity="0.14" /><circle cx="650.8" cy="92.3" r="0.8" fill="#e4c388" opacity="0.32" /><circle cx="1465.7" cy="819.3" r="0.6" fill="#e4c388" opacity="0.30" /><circle cx="1119.3" cy="733.5" r="1.0" fill="#e4c388" opacity="0.14" /><circle cx="755.5" cy="282.6" r="0.5" fill="#e4c388" opacity="0.33" /><circle cx="780.6" cy="784.7" r="0.9" fill="#e4c388" opacity="0.41" /><circle cx="534.3" cy="166.2" r="0.9" fill="#e4c388" opacity="0.18" /><circle cx="135.4" cy="120.6" r="1.0" fill="#e4c388" opacity="0.15" /><circle cx="768.6" cy="661.0" r="1.2" fill="#e4c388" opacity="0.26" /><circle cx="1326.9" cy="646.6" r="1.5" fill="#e4c388" opacity="0.23" /><circle cx="118.4" cy="393.2" r="0.4" fill="#e4c388" opacity="0.12" /><circle cx="307.2" cy="439.2" r="0.5" fill="#e4c388" opacity="0.40" /><circle cx="210.8" cy="643.0" r="1.5" fill="#e4c388" opacity="0.48" /><circle cx="1090.8" cy="376.8" r="1.3" fill="#e4c388" opacity="0.39" /><circle cx="1064.2" cy="606.8" r="0.7" fill="#e4c388" opacity="0.57" /><circle cx="746.9" cy="135.5" r="0.6" fill="#e4c388" opacity="0.56" /><circle cx="1422.2" cy="776.6" r="0.9" fill="#e4c388" opacity="0.46" /><circle cx="1343.9" cy="545.1" r="1.3" fill="#e4c388" opacity="0.38" /><circle cx="524.5" cy="800.7" r="1.5" fill="#e4c388" opacity="0.55" /><circle cx="346.8" cy="261.1" r="0.6" fill="#e4c388" opacity="0.21" /><circle cx="1509.7" cy="814.5" r="1.4" fill="#e4c388" opacity="0.37" /><circle cx="384.2" cy="254.9" r="0.7" fill="#e4c388" opacity="0.51" /><circle cx="799.2" cy="595.4" r="1.2" fill="#e4c388" opacity="0.16" /><circle cx="1485.2" cy="560.1" r="1.0" fill="#e4c388" opacity="0.32" /><circle cx="1440.9" cy="258.3" r="1.0" fill="#e4c388" opacity="0.29" /><circle cx="1217.7" cy="567.2" r="0.7" fill="#e4c388" opacity="0.33" /><circle cx="413.2" cy="315.8" r="1.4" fill="#e4c388" opacity="0.28" /><circle cx="1365.8" cy="381.5" r="0.9" fill="#e4c388" opacity="0.14" /><circle cx="503.5" cy="489.3" r="0.9" fill="#e4c388" opacity="0.14" /><circle cx="925.7" cy="229.3" r="0.5" fill="#e4c388" opacity="0.26" /><circle cx="113.8" cy="457.8" r="0.9" fill="#e4c388" opacity="0.40" /><circle cx="277.7" cy="75.3" r="1.6" fill="#e4c388" opacity="0.26" /><circle cx="589.7" cy="352.8" r="1.2" fill="#e4c388" opacity="0.34" /><circle cx="693.5" cy="257.8" r="1.4" fill="#e4c388" opacity="0.24" /><circle cx="238.6" cy="821.7" r="1.5" fill="#e4c388" opacity="0.58" /><circle cx="1393.5" cy="573.9" r="0.9" fill="#e4c388" opacity="0.52" /><circle cx="560.8" cy="694.9" r="1.5" fill="#e4c388" opacity="0.25" /><circle cx="1161.4" cy="127.9" r="0.9" fill="#e4c388" opacity="0.28" /><circle cx="176.3" cy="833.8" r="0.9" fill="#e4c388" opacity="0.28" /><circle cx="1454.9" cy="557.9" r="1.1" fill="#e4c388" opacity="0.55" /><circle cx="639.9" cy="491.6" r="0.5" fill="#e4c388" opacity="0.17" /><circle cx="563.4" cy="130.3" r="0.6" fill="#e4c388" opacity="0.33" /><circle cx="1327.8" cy="235.6" r="0.8" fill="#e4c388" opacity="0.37" /><circle cx="1407.8" cy="490.2" r="1.0" fill="#e4c388" opacity="0.49" /><circle cx="1129.0" cy="268.6" r="1.2" fill="#e4c388" opacity="0.34" /><circle cx="1537.0" cy="767.6" r="1.6" fill="#e4c388" opacity="0.38" /><circle cx="846.9" cy="657.3" r="1.3" fill="#e4c388" opacity="0.15" /><circle cx="814.8" cy="621.4" r="1.0" fill="#e4c388" opacity="0.45" /><circle cx="1005.5" cy="165.3" r="0.5" fill="#e4c388" opacity="0.54" /><circle cx="1396.2" cy="101.8" r="0.6" fill="#e4c388" opacity="0.15" /><circle cx="1450.7" cy="762.2" r="1.0" fill="#e4c388" opacity="0.30" /><circle cx="1236.9" cy="683.1" r="0.7" fill="#e4c388" opacity="0.48" /><circle cx="1411.3" cy="682.2" r="1.5" fill="#e4c388" opacity="0.55" /><circle cx="896.8" cy="604.9" r="0.6" fill="#e4c388" opacity="0.30" /><circle cx="1419.3" cy="385.6" r="0.7" fill="#e4c388" opacity="0.13" /><circle cx="1435.4" cy="443.8" r="0.4" fill="#e4c388" opacity="0.56" /><path d="M 467.6 895 C 387.6 710 364.6 530 364.6 499.8" fill="none" stroke="#acd1be" stroke-width="1" opacity=".7" /><ellipse cx="383.6" cy="499.8" rx="6" ry="17" transform="rotate(0.0 383.6 499.8)" fill="none" stroke="#acd1be" opacity=".75" /><ellipse cx="376.4" cy="514.7" rx="6" ry="17" transform="rotate(51.4 376.4 514.7)" fill="none" stroke="#acd1be" opacity=".75" /><ellipse cx="360.3" cy="518.4" rx="6" ry="17" transform="rotate(102.9 360.3 518.4)" fill="none" stroke="#acd1be" opacity=".75" /><ellipse cx="347.4" cy="508.1" rx="6" ry="17" transform="rotate(154.3 347.4 508.1)" fill="none" stroke="#acd1be" opacity=".75" /><ellipse cx="347.4" cy="491.6" rx="6" ry="17" transform="rotate(205.7 347.4 491.6)" fill="none" stroke="#acd1be" opacity=".75" /><ellipse cx="360.3" cy="481.3" rx="6" ry="17" transform="rotate(257.1 360.3 481.3)" fill="none" stroke="#acd1be" opacity=".75" /><ellipse cx="376.4" cy="485.0" rx="6" ry="17" transform="rotate(308.6 376.4 485.0)" fill="none" stroke="#acd1be" opacity=".75" /><circle cx="364.6" cy="499.8" r="5" fill="#acd1be" /><path d="M 511.4 895 C 431.4 710 433.2 530 433.2 387.2" fill="none" stroke="#e4c388" stroke-width="1" opacity=".7" /><ellipse cx="452.2" cy="387.2" rx="6" ry="17" transform="rotate(0.0 452.2 387.2)" fill="none" stroke="#e4c388" opacity=".75" /><ellipse cx="445.1" cy="402.1" rx="6" ry="17" transform="rotate(51.4 445.1 402.1)" fill="none" stroke="#e4c388" opacity=".75" /><ellipse cx="429.0" cy="405.8" rx="6" ry="17" transform="rotate(102.9 429.0 405.8)" fill="none" stroke="#e4c388" opacity=".75" /><ellipse cx="416.1" cy="395.5" rx="6" ry="17" transform="rotate(154.3 416.1 395.5)" fill="none" stroke="#e4c388" opacity=".75" /><ellipse cx="416.1" cy="379.0" rx="6" ry="17" transform="rotate(205.7 416.1 379.0)" fill="none" stroke="#e4c388" opacity=".75" /><ellipse cx="429.0" cy="368.7" rx="6" ry="17" transform="rotate(257.1 429.0 368.7)" fill="none" stroke="#e4c388" opacity=".75" /><ellipse cx="445.1" cy="372.4" rx="6" ry="17" transform="rotate(308.6 445.1 372.4)" fill="none" stroke="#e4c388" opacity=".75" /><circle cx="433.2" cy="387.2" r="5" fill="#e4c388" /><path d="M 555.7 895 C 475.7 710 577.9 530 577.9 714.7" fill="none" stroke="#ece5d3" stroke-width="1" opacity=".7" /><ellipse cx="596.9" cy="714.7" rx="6" ry="17" transform="rotate(0.0 596.9 714.7)" fill="none" stroke="#ece5d3" opacity=".75" /><ellipse cx="589.7" cy="729.5" rx="6" ry="17" transform="rotate(51.4 589.7 729.5)" fill="none" stroke="#ece5d3" opacity=".75" /><ellipse cx="573.7" cy="733.2" rx="6" ry="17" transform="rotate(102.9 573.7 733.2)" fill="none" stroke="#ece5d3" opacity=".75" /><ellipse cx="560.8" cy="722.9" rx="6" ry="17" transform="rotate(154.3 560.8 722.9)" fill="none" stroke="#ece5d3" opacity=".75" /><ellipse cx="560.8" cy="706.4" rx="6" ry="17" transform="rotate(205.7 560.8 706.4)" fill="none" stroke="#ece5d3" opacity=".75" /><ellipse cx="573.7" cy="696.2" rx="6" ry="17" transform="rotate(257.1 573.7 696.2)" fill="none" stroke="#ece5d3" opacity=".75" /><ellipse cx="589.7" cy="699.8" rx="6" ry="17" transform="rotate(308.6 589.7 699.8)" fill="none" stroke="#ece5d3" opacity=".75" /><circle cx="577.9" cy="714.7" r="5" fill="#ece5d3" /><path d="M 631.6 895 C 551.6 710 641.9 530 641.9 182.3" fill="none" stroke="#6fa49e" stroke-width="1" opacity=".7" /><ellipse cx="660.9" cy="182.3" rx="6" ry="17" transform="rotate(0.0 660.9 182.3)" fill="none" stroke="#6fa49e" opacity=".75" /><ellipse cx="653.7" cy="197.2" rx="6" ry="17" transform="rotate(51.4 653.7 197.2)" fill="none" stroke="#6fa49e" opacity=".75" /><ellipse cx="637.6" cy="200.8" rx="6" ry="17" transform="rotate(102.9 637.6 200.8)" fill="none" stroke="#6fa49e" opacity=".75" /><ellipse cx="624.7" cy="190.6" rx="6" ry="17" transform="rotate(154.3 624.7 190.6)" fill="none" stroke="#6fa49e" opacity=".75" /><ellipse cx="624.7" cy="174.1" rx="6" ry="17" transform="rotate(205.7 624.7 174.1)" fill="none" stroke="#6fa49e" opacity=".75" /><ellipse cx="637.6" cy="163.8" rx="6" ry="17" transform="rotate(257.1 637.6 163.8)" fill="none" stroke="#6fa49e" opacity=".75" /><ellipse cx="653.7" cy="167.5" rx="6" ry="17" transform="rotate(308.6 653.7 167.5)" fill="none" stroke="#6fa49e" opacity=".75" /><circle cx="641.9" cy="182.3" r="5" fill="#6fa49e" /><path d="M 650.5 895 C 570.5 710 684.8 530 684.8 676.0" fill="none" stroke="#acd1be" stroke-width="1" opacity=".7" /><ellipse cx="703.8" cy="676.0" rx="6" ry="17" transform="rotate(0.0 703.8 676.0)" fill="none" stroke="#acd1be" opacity=".75" /><ellipse cx="696.7" cy="690.8" rx="6" ry="17" transform="rotate(51.4 696.7 690.8)" fill="none" stroke="#acd1be" opacity=".75" /><ellipse cx="680.6" cy="694.5" rx="6" ry="17" transform="rotate(102.9 680.6 694.5)" fill="none" stroke="#acd1be" opacity=".75" /><ellipse cx="667.7" cy="684.2" rx="6" ry="17" transform="rotate(154.3 667.7 684.2)" fill="none" stroke="#acd1be" opacity=".75" /><ellipse cx="667.7" cy="667.7" rx="6" ry="17" transform="rotate(205.7 667.7 667.7)" fill="none" stroke="#acd1be" opacity=".75" /><ellipse cx="680.6" cy="657.4" rx="6" ry="17" transform="rotate(257.1 680.6 657.4)" fill="none" stroke="#acd1be" opacity=".75" /><ellipse cx="696.7" cy="661.1" rx="6" ry="17" transform="rotate(308.6 696.7 661.1)" fill="none" stroke="#acd1be" opacity=".75" /><circle cx="684.8" cy="676.0" r="5" fill="#acd1be" /><path d="M 700.8 895 C 620.8 710 614.5 530 614.5 202.5" fill="none" stroke="#e4c388" stroke-width="1" opacity=".7" /><ellipse cx="633.5" cy="202.5" rx="6" ry="17" transform="rotate(0.0 633.5 202.5)" fill="none" stroke="#e4c388" opacity=".75" /><ellipse cx="626.3" cy="217.3" rx="6" ry="17" transform="rotate(51.4 626.3 217.3)" fill="none" stroke="#e4c388" opacity=".75" /><ellipse cx="610.3" cy="221.0" rx="6" ry="17" transform="rotate(102.9 610.3 221.0)" fill="none" stroke="#e4c388" opacity=".75" /><ellipse cx="597.4" cy="210.7" rx="6" ry="17" transform="rotate(154.3 597.4 210.7)" fill="none" stroke="#e4c388" opacity=".75" /><ellipse cx="597.4" cy="194.2" rx="6" ry="17" transform="rotate(205.7 597.4 194.2)" fill="none" stroke="#e4c388" opacity=".75" /><ellipse cx="610.3" cy="184.0" rx="6" ry="17" transform="rotate(257.1 610.3 184.0)" fill="none" stroke="#e4c388" opacity=".75" /><ellipse cx="626.3" cy="187.6" rx="6" ry="17" transform="rotate(308.6 626.3 187.6)" fill="none" stroke="#e4c388" opacity=".75" /><circle cx="614.5" cy="202.5" r="5" fill="#e4c388" /><path d="M 739.3 895 C 659.3 710 829.3 530 829.3 179.0" fill="none" stroke="#ece5d3" stroke-width="1" opacity=".7" /><ellipse cx="848.3" cy="179.0" rx="6" ry="17" transform="rotate(0.0 848.3 179.0)" fill="none" stroke="#ece5d3" opacity=".75" /><ellipse cx="841.1" cy="193.8" rx="6" ry="17" transform="rotate(51.4 841.1 193.8)" fill="none" stroke="#ece5d3" opacity=".75" /><ellipse cx="825.0" cy="197.5" rx="6" ry="17" transform="rotate(102.9 825.0 197.5)" fill="none" stroke="#ece5d3" opacity=".75" /><ellipse cx="812.1" cy="187.2" rx="6" ry="17" transform="rotate(154.3 812.1 187.2)" fill="none" stroke="#ece5d3" opacity=".75" /><ellipse cx="812.1" cy="170.7" rx="6" ry="17" transform="rotate(205.7 812.1 170.7)" fill="none" stroke="#ece5d3" opacity=".75" /><ellipse cx="825.0" cy="160.4" rx="6" ry="17" transform="rotate(257.1 825.0 160.4)" fill="none" stroke="#ece5d3" opacity=".75" /><ellipse cx="841.1" cy="164.1" rx="6" ry="17" transform="rotate(308.6 841.1 164.1)" fill="none" stroke="#ece5d3" opacity=".75" /><circle cx="829.3" cy="179.0" r="5" fill="#ece5d3" /><path d="M 812.9 895 C 732.9 710 915.5 530 915.5 201.5" fill="none" stroke="#6fa49e" stroke-width="1" opacity=".7" /><ellipse cx="934.5" cy="201.5" rx="6" ry="17" transform="rotate(0.0 934.5 201.5)" fill="none" stroke="#6fa49e" opacity=".75" /><ellipse cx="927.3" cy="216.4" rx="6" ry="17" transform="rotate(51.4 927.3 216.4)" fill="none" stroke="#6fa49e" opacity=".75" /><ellipse cx="911.3" cy="220.0" rx="6" ry="17" transform="rotate(102.9 911.3 220.0)" fill="none" stroke="#6fa49e" opacity=".75" /><ellipse cx="898.4" cy="209.8" rx="6" ry="17" transform="rotate(154.3 898.4 209.8)" fill="none" stroke="#6fa49e" opacity=".75" /><ellipse cx="898.4" cy="193.3" rx="6" ry="17" transform="rotate(205.7 898.4 193.3)" fill="none" stroke="#6fa49e" opacity=".75" /><ellipse cx="911.3" cy="183.0" rx="6" ry="17" transform="rotate(257.1 911.3 183.0)" fill="none" stroke="#6fa49e" opacity=".75" /><ellipse cx="927.3" cy="186.7" rx="6" ry="17" transform="rotate(308.6 927.3 186.7)" fill="none" stroke="#6fa49e" opacity=".75" /><circle cx="915.5" cy="201.5" r="5" fill="#6fa49e" /><path d="M 844.2 895 C 764.2 710 846.9 530 846.9 316.9" fill="none" stroke="#acd1be" stroke-width="1" opacity=".7" /><ellipse cx="865.9" cy="316.9" rx="6" ry="17" transform="rotate(0.0 865.9 316.9)" fill="none" stroke="#acd1be" opacity=".75" /><ellipse cx="858.7" cy="331.7" rx="6" ry="17" transform="rotate(51.4 858.7 331.7)" fill="none" stroke="#acd1be" opacity=".75" /><ellipse cx="842.7" cy="335.4" rx="6" ry="17" transform="rotate(102.9 842.7 335.4)" fill="none" stroke="#acd1be" opacity=".75" /><ellipse cx="829.8" cy="325.1" rx="6" ry="17" transform="rotate(154.3 829.8 325.1)" fill="none" stroke="#acd1be" opacity=".75" /><ellipse cx="829.8" cy="308.6" rx="6" ry="17" transform="rotate(205.7 829.8 308.6)" fill="none" stroke="#acd1be" opacity=".75" /><ellipse cx="842.7" cy="298.3" rx="6" ry="17" transform="rotate(257.1 842.7 298.3)" fill="none" stroke="#acd1be" opacity=".75" /><ellipse cx="858.7" cy="302.0" rx="6" ry="17" transform="rotate(308.6 858.7 302.0)" fill="none" stroke="#acd1be" opacity=".75" /><circle cx="846.9" cy="316.9" r="5" fill="#acd1be" /><path d="M 903.7 895 C 823.7 710 875.4 530 875.4 441.3" fill="none" stroke="#e4c388" stroke-width="1" opacity=".7" /><ellipse cx="894.4" cy="441.3" rx="6" ry="17" transform="rotate(0.0 894.4 441.3)" fill="none" stroke="#e4c388" opacity=".75" /><ellipse cx="887.2" cy="456.1" rx="6" ry="17" transform="rotate(51.4 887.2 456.1)" fill="none" stroke="#e4c388" opacity=".75" /><ellipse cx="871.1" cy="459.8" rx="6" ry="17" transform="rotate(102.9 871.1 459.8)" fill="none" stroke="#e4c388" opacity=".75" /><ellipse cx="858.3" cy="449.5" rx="6" ry="17" transform="rotate(154.3 858.3 449.5)" fill="none" stroke="#e4c388" opacity=".75" /><ellipse cx="858.3" cy="433.0" rx="6" ry="17" transform="rotate(205.7 858.3 433.0)" fill="none" stroke="#e4c388" opacity=".75" /><ellipse cx="871.1" cy="422.7" rx="6" ry="17" transform="rotate(257.1 871.1 422.7)" fill="none" stroke="#e4c388" opacity=".75" /><ellipse cx="887.2" cy="426.4" rx="6" ry="17" transform="rotate(308.6 887.2 426.4)" fill="none" stroke="#e4c388" opacity=".75" /><circle cx="875.4" cy="441.3" r="5" fill="#e4c388" /><path d="M 930.6 895 C 850.6 710 869.3 530 869.3 500.6" fill="none" stroke="#ece5d3" stroke-width="1" opacity=".7" /><ellipse cx="888.3" cy="500.6" rx="6" ry="17" transform="rotate(0.0 888.3 500.6)" fill="none" stroke="#ece5d3" opacity=".75" /><ellipse cx="881.2" cy="515.5" rx="6" ry="17" transform="rotate(51.4 881.2 515.5)" fill="none" stroke="#ece5d3" opacity=".75" /><ellipse cx="865.1" cy="519.1" rx="6" ry="17" transform="rotate(102.9 865.1 519.1)" fill="none" stroke="#ece5d3" opacity=".75" /><ellipse cx="852.2" cy="508.9" rx="6" ry="17" transform="rotate(154.3 852.2 508.9)" fill="none" stroke="#ece5d3" opacity=".75" /><ellipse cx="852.2" cy="492.4" rx="6" ry="17" transform="rotate(205.7 852.2 492.4)" fill="none" stroke="#ece5d3" opacity=".75" /><ellipse cx="865.1" cy="482.1" rx="6" ry="17" transform="rotate(257.1 865.1 482.1)" fill="none" stroke="#ece5d3" opacity=".75" /><ellipse cx="881.2" cy="485.8" rx="6" ry="17" transform="rotate(308.6 881.2 485.8)" fill="none" stroke="#ece5d3" opacity=".75" /><circle cx="869.3" cy="500.6" r="5" fill="#ece5d3" /><path d="M 981.8 895 C 901.8 710 895.3 530 895.3 666.6" fill="none" stroke="#6fa49e" stroke-width="1" opacity=".7" /><ellipse cx="914.3" cy="666.6" rx="6" ry="17" transform="rotate(0.0 914.3 666.6)" fill="none" stroke="#6fa49e" opacity=".75" /><ellipse cx="907.2" cy="681.5" rx="6" ry="17" transform="rotate(51.4 907.2 681.5)" fill="none" stroke="#6fa49e" opacity=".75" /><ellipse cx="891.1" cy="685.2" rx="6" ry="17" transform="rotate(102.9 891.1 685.2)" fill="none" stroke="#6fa49e" opacity=".75" /><ellipse cx="878.2" cy="674.9" rx="6" ry="17" transform="rotate(154.3 878.2 674.9)" fill="none" stroke="#6fa49e" opacity=".75" /><ellipse cx="878.2" cy="658.4" rx="6" ry="17" transform="rotate(205.7 878.2 658.4)" fill="none" stroke="#6fa49e" opacity=".75" /><ellipse cx="891.1" cy="648.1" rx="6" ry="17" transform="rotate(257.1 891.1 648.1)" fill="none" stroke="#6fa49e" opacity=".75" /><ellipse cx="907.2" cy="651.8" rx="6" ry="17" transform="rotate(308.6 907.2 651.8)" fill="none" stroke="#6fa49e" opacity=".75" /><circle cx="895.3" cy="666.6" r="5" fill="#6fa49e" /><path d="M 1022.4 895 C 942.4 710 1054.2 530 1054.2 563.4" fill="none" stroke="#acd1be" stroke-width="1" opacity=".7" /><ellipse cx="1073.2" cy="563.4" rx="6" ry="17" transform="rotate(0.0 1073.2 563.4)" fill="none" stroke="#acd1be" opacity=".75" /><ellipse cx="1066.0" cy="578.3" rx="6" ry="17" transform="rotate(51.4 1066.0 578.3)" fill="none" stroke="#acd1be" opacity=".75" /><ellipse cx="1049.9" cy="581.9" rx="6" ry="17" transform="rotate(102.9 1049.9 581.9)" fill="none" stroke="#acd1be" opacity=".75" /><ellipse cx="1037.0" cy="571.7" rx="6" ry="17" transform="rotate(154.3 1037.0 571.7)" fill="none" stroke="#acd1be" opacity=".75" /><ellipse cx="1037.0" cy="555.2" rx="6" ry="17" transform="rotate(205.7 1037.0 555.2)" fill="none" stroke="#acd1be" opacity=".75" /><ellipse cx="1049.9" cy="544.9" rx="6" ry="17" transform="rotate(257.1 1049.9 544.9)" fill="none" stroke="#acd1be" opacity=".75" /><ellipse cx="1066.0" cy="548.6" rx="6" ry="17" transform="rotate(308.6 1066.0 548.6)" fill="none" stroke="#acd1be" opacity=".75" /><circle cx="1054.2" cy="563.4" r="5" fill="#acd1be" /><path d="M 1082.5 895 C 1002.5 710 1112.2 530 1112.2 657.9" fill="none" stroke="#e4c388" stroke-width="1" opacity=".7" /><ellipse cx="1131.2" cy="657.9" rx="6" ry="17" transform="rotate(0.0 1131.2 657.9)" fill="none" stroke="#e4c388" opacity=".75" /><ellipse cx="1124.0" cy="672.7" rx="6" ry="17" transform="rotate(51.4 1124.0 672.7)" fill="none" stroke="#e4c388" opacity=".75" /><ellipse cx="1108.0" cy="676.4" rx="6" ry="17" transform="rotate(102.9 1108.0 676.4)" fill="none" stroke="#e4c388" opacity=".75" /><ellipse cx="1095.1" cy="666.1" rx="6" ry="17" transform="rotate(154.3 1095.1 666.1)" fill="none" stroke="#e4c388" opacity=".75" /><ellipse cx="1095.1" cy="649.6" rx="6" ry="17" transform="rotate(205.7 1095.1 649.6)" fill="none" stroke="#e4c388" opacity=".75" /><ellipse cx="1108.0" cy="639.3" rx="6" ry="17" transform="rotate(257.1 1108.0 639.3)" fill="none" stroke="#e4c388" opacity=".75" /><ellipse cx="1124.0" cy="643.0" rx="6" ry="17" transform="rotate(308.6 1124.0 643.0)" fill="none" stroke="#e4c388" opacity=".75" /><circle cx="1112.2" cy="657.9" r="5" fill="#e4c388" /><path d="M 1125.0 895 C 1045.0 710 1170.9 530 1170.9 257.7" fill="none" stroke="#ece5d3" stroke-width="1" opacity=".7" /><ellipse cx="1189.9" cy="257.7" rx="6" ry="17" transform="rotate(0.0 1189.9 257.7)" fill="none" stroke="#ece5d3" opacity=".75" /><ellipse cx="1182.8" cy="272.5" rx="6" ry="17" transform="rotate(51.4 1182.8 272.5)" fill="none" stroke="#ece5d3" opacity=".75" /><ellipse cx="1166.7" cy="276.2" rx="6" ry="17" transform="rotate(102.9 1166.7 276.2)" fill="none" stroke="#ece5d3" opacity=".75" /><ellipse cx="1153.8" cy="265.9" rx="6" ry="17" transform="rotate(154.3 1153.8 265.9)" fill="none" stroke="#ece5d3" opacity=".75" /><ellipse cx="1153.8" cy="249.4" rx="6" ry="17" transform="rotate(205.7 1153.8 249.4)" fill="none" stroke="#ece5d3" opacity=".75" /><ellipse cx="1166.7" cy="239.1" rx="6" ry="17" transform="rotate(257.1 1166.7 239.1)" fill="none" stroke="#ece5d3" opacity=".75" /><ellipse cx="1182.8" cy="242.8" rx="6" ry="17" transform="rotate(308.6 1182.8 242.8)" fill="none" stroke="#ece5d3" opacity=".75" /><circle cx="1170.9" cy="257.7" r="5" fill="#ece5d3" /><path d="M 1161.9 895 C 1081.9 710 1229.4 530 1229.4 402.0" fill="none" stroke="#6fa49e" stroke-width="1" opacity=".7" /><ellipse cx="1248.4" cy="402.0" rx="6" ry="17" transform="rotate(0.0 1248.4 402.0)" fill="none" stroke="#6fa49e" opacity=".75" /><ellipse cx="1241.2" cy="416.8" rx="6" ry="17" transform="rotate(51.4 1241.2 416.8)" fill="none" stroke="#6fa49e" opacity=".75" /><ellipse cx="1225.2" cy="420.5" rx="6" ry="17" transform="rotate(102.9 1225.2 420.5)" fill="none" stroke="#6fa49e" opacity=".75" /><ellipse cx="1212.3" cy="410.2" rx="6" ry="17" transform="rotate(154.3 1212.3 410.2)" fill="none" stroke="#6fa49e" opacity=".75" /><ellipse cx="1212.3" cy="393.7" rx="6" ry="17" transform="rotate(205.7 1212.3 393.7)" fill="none" stroke="#6fa49e" opacity=".75" /><ellipse cx="1225.2" cy="383.5" rx="6" ry="17" transform="rotate(257.1 1225.2 383.5)" fill="none" stroke="#6fa49e" opacity=".75" /><ellipse cx="1241.2" cy="387.1" rx="6" ry="17" transform="rotate(308.6 1241.2 387.1)" fill="none" stroke="#6fa49e" opacity=".75" /><circle cx="1229.4" cy="402.0" r="5" fill="#6fa49e" /><path d="M 1193.8 895 C 1113.8 710 1190.0 530 1190.0 287.9" fill="none" stroke="#acd1be" stroke-width="1" opacity=".7" /><ellipse cx="1209.0" cy="287.9" rx="6" ry="17" transform="rotate(0.0 1209.0 287.9)" fill="none" stroke="#acd1be" opacity=".75" /><ellipse cx="1201.8" cy="302.7" rx="6" ry="17" transform="rotate(51.4 1201.8 302.7)" fill="none" stroke="#acd1be" opacity=".75" /><ellipse cx="1185.8" cy="306.4" rx="6" ry="17" transform="rotate(102.9 1185.8 306.4)" fill="none" stroke="#acd1be" opacity=".75" /><ellipse cx="1172.9" cy="296.1" rx="6" ry="17" transform="rotate(154.3 1172.9 296.1)" fill="none" stroke="#acd1be" opacity=".75" /><ellipse cx="1172.9" cy="279.6" rx="6" ry="17" transform="rotate(205.7 1172.9 279.6)" fill="none" stroke="#acd1be" opacity=".75" /><ellipse cx="1185.8" cy="269.3" rx="6" ry="17" transform="rotate(257.1 1185.8 269.3)" fill="none" stroke="#acd1be" opacity=".75" /><ellipse cx="1201.8" cy="273.0" rx="6" ry="17" transform="rotate(308.6 1201.8 273.0)" fill="none" stroke="#acd1be" opacity=".75" /><circle cx="1190.0" cy="287.9" r="5" fill="#acd1be" /><path d="M 1253.4 895 C 1173.4 710 1307.0 530 1307.0 538.0" fill="none" stroke="#e4c388" stroke-width="1" opacity=".7" /><ellipse cx="1326.0" cy="538.0" rx="6" ry="17" transform="rotate(0.0 1326.0 538.0)" fill="none" stroke="#e4c388" opacity=".75" /><ellipse cx="1318.8" cy="552.8" rx="6" ry="17" transform="rotate(51.4 1318.8 552.8)" fill="none" stroke="#e4c388" opacity=".75" /><ellipse cx="1302.7" cy="556.5" rx="6" ry="17" transform="rotate(102.9 1302.7 556.5)" fill="none" stroke="#e4c388" opacity=".75" /><ellipse cx="1289.8" cy="546.2" rx="6" ry="17" transform="rotate(154.3 1289.8 546.2)" fill="none" stroke="#e4c388" opacity=".75" /><ellipse cx="1289.8" cy="529.7" rx="6" ry="17" transform="rotate(205.7 1289.8 529.7)" fill="none" stroke="#e4c388" opacity=".75" /><ellipse cx="1302.7" cy="519.4" rx="6" ry="17" transform="rotate(257.1 1302.7 519.4)" fill="none" stroke="#e4c388" opacity=".75" /><ellipse cx="1318.8" cy="523.1" rx="6" ry="17" transform="rotate(308.6 1318.8 523.1)" fill="none" stroke="#e4c388" opacity=".75" /><circle cx="1307.0" cy="538.0" r="5" fill="#e4c388" /><path d="M 1288.8 895 C 1208.8 710 1208.0 530 1208.0 311.9" fill="none" stroke="#ece5d3" stroke-width="1" opacity=".7" /><ellipse cx="1227.0" cy="311.9" rx="6" ry="17" transform="rotate(0.0 1227.0 311.9)" fill="none" stroke="#ece5d3" opacity=".75" /><ellipse cx="1219.9" cy="326.8" rx="6" ry="17" transform="rotate(51.4 1219.9 326.8)" fill="none" stroke="#ece5d3" opacity=".75" /><ellipse cx="1203.8" cy="330.4" rx="6" ry="17" transform="rotate(102.9 1203.8 330.4)" fill="none" stroke="#ece5d3" opacity=".75" /><ellipse cx="1190.9" cy="320.2" rx="6" ry="17" transform="rotate(154.3 1190.9 320.2)" fill="none" stroke="#ece5d3" opacity=".75" /><ellipse cx="1190.9" cy="303.7" rx="6" ry="17" transform="rotate(205.7 1190.9 303.7)" fill="none" stroke="#ece5d3" opacity=".75" /><ellipse cx="1203.8" cy="293.4" rx="6" ry="17" transform="rotate(257.1 1203.8 293.4)" fill="none" stroke="#ece5d3" opacity=".75" /><ellipse cx="1219.9" cy="297.1" rx="6" ry="17" transform="rotate(308.6 1219.9 297.1)" fill="none" stroke="#ece5d3" opacity=".75" /><circle cx="1208.0" cy="311.9" r="5" fill="#ece5d3" /><path d="M 1331.5 895 C 1251.5 710 1359.1 530 1359.1 211.3" fill="none" stroke="#6fa49e" stroke-width="1" opacity=".7" /><ellipse cx="1378.1" cy="211.3" rx="6" ry="17" transform="rotate(0.0 1378.1 211.3)" fill="none" stroke="#6fa49e" opacity=".75" /><ellipse cx="1370.9" cy="226.1" rx="6" ry="17" transform="rotate(51.4 1370.9 226.1)" fill="none" stroke="#6fa49e" opacity=".75" /><ellipse cx="1354.9" cy="229.8" rx="6" ry="17" transform="rotate(102.9 1354.9 229.8)" fill="none" stroke="#6fa49e" opacity=".75" /><ellipse cx="1342.0" cy="219.5" rx="6" ry="17" transform="rotate(154.3 1342.0 219.5)" fill="none" stroke="#6fa49e" opacity=".75" /><ellipse cx="1342.0" cy="203.0" rx="6" ry="17" transform="rotate(205.7 1342.0 203.0)" fill="none" stroke="#6fa49e" opacity=".75" /><ellipse cx="1354.9" cy="192.7" rx="6" ry="17" transform="rotate(257.1 1354.9 192.7)" fill="none" stroke="#6fa49e" opacity=".75" /><ellipse cx="1370.9" cy="196.4" rx="6" ry="17" transform="rotate(308.6 1370.9 196.4)" fill="none" stroke="#6fa49e" opacity=".75" /><circle cx="1359.1" cy="211.3" r="5" fill="#6fa49e" /><path d="M 1380.6 895 C 1300.6 710 1424.6 530 1424.6 710.9" fill="none" stroke="#acd1be" stroke-width="1" opacity=".7" /><ellipse cx="1443.6" cy="710.9" rx="6" ry="17" transform="rotate(0.0 1443.6 710.9)" fill="none" stroke="#acd1be" opacity=".75" /><ellipse cx="1436.4" cy="725.8" rx="6" ry="17" transform="rotate(51.4 1436.4 725.8)" fill="none" stroke="#acd1be" opacity=".75" /><ellipse cx="1420.4" cy="729.5" rx="6" ry="17" transform="rotate(102.9 1420.4 729.5)" fill="none" stroke="#acd1be" opacity=".75" /><ellipse cx="1407.5" cy="719.2" rx="6" ry="17" transform="rotate(154.3 1407.5 719.2)" fill="none" stroke="#acd1be" opacity=".75" /><ellipse cx="1407.5" cy="702.7" rx="6" ry="17" transform="rotate(205.7 1407.5 702.7)" fill="none" stroke="#acd1be" opacity=".75" /><ellipse cx="1420.4" cy="692.4" rx="6" ry="17" transform="rotate(257.1 1420.4 692.4)" fill="none" stroke="#acd1be" opacity=".75" /><ellipse cx="1436.4" cy="696.1" rx="6" ry="17" transform="rotate(308.6 1436.4 696.1)" fill="none" stroke="#acd1be" opacity=".75" /><circle cx="1424.6" cy="710.9" r="5" fill="#acd1be" /><path d="M 1431.7 895 C 1351.7 710 1354.4 530 1354.4 345.0" fill="none" stroke="#e4c388" stroke-width="1" opacity=".7" /><ellipse cx="1373.4" cy="345.0" rx="6" ry="17" transform="rotate(0.0 1373.4 345.0)" fill="none" stroke="#e4c388" opacity=".75" /><ellipse cx="1366.3" cy="359.8" rx="6" ry="17" transform="rotate(51.4 1366.3 359.8)" fill="none" stroke="#e4c388" opacity=".75" /><ellipse cx="1350.2" cy="363.5" rx="6" ry="17" transform="rotate(102.9 1350.2 363.5)" fill="none" stroke="#e4c388" opacity=".75" /><ellipse cx="1337.3" cy="353.2" rx="6" ry="17" transform="rotate(154.3 1337.3 353.2)" fill="none" stroke="#e4c388" opacity=".75" /><ellipse cx="1337.3" cy="336.7" rx="6" ry="17" transform="rotate(205.7 1337.3 336.7)" fill="none" stroke="#e4c388" opacity=".75" /><ellipse cx="1350.2" cy="326.5" rx="6" ry="17" transform="rotate(257.1 1350.2 326.5)" fill="none" stroke="#e4c388" opacity=".75" /><ellipse cx="1366.3" cy="330.1" rx="6" ry="17" transform="rotate(308.6 1366.3 330.1)" fill="none" stroke="#e4c388" opacity=".75" /><circle cx="1354.4" cy="345.0" r="5" fill="#e4c388" /></svg>