<?xml version='1.0' encoding='utf-8'?>
<svg width="1600" height="1000" viewBox="0 0 1600 1000" xmlns="http://www.w3.org/2000/svg"><defs><radialGradient id="paint0"><stop stop-color="#234746" /><stop offset="1" stop-color="#091f25" /></radialGradient></defs><rect width="1600" height="1000" fill="url(#paint0)" /><rect x="32" y="32" width="1536" height="936" rx="3" fill="none" stroke="#b4a277" stroke-opacity=".45" /><circle cx="1435.7" cy="528.6" r="0.6" fill="#e4c388" opacity="0.35" /><circle cx="1092.2" cy="545.8" r="0.5" fill="#e4c388" opacity="0.30" /><circle cx="1434.2" cy="387.4" r="1.6" fill="#e4c388" opacity="0.38" /><circle cx="1165.7" cy="411.2" r="1.5" fill="#e4c388" opacity="0.55" /><circle cx="337.6" cy="98.0" r="0.9" fill="#e4c388" opacity="0.42" /><circle cx="1029.8" cy="236.7" r="0.9" fill="#e4c388" opacity="0.33" /><circle cx="1440.9" cy="287.2" r="1.0" fill="#e4c388" opacity="0.31" /><circle cx="456.7" cy="325.4" r="1.6" fill="#e4c388" opacity="0.59" /><circle cx="927.2" cy="476.9" r="1.0" fill="#e4c388" opacity="0.55" /><circle cx="1325.6" cy="645.6" r="0.9" fill="#e4c388" opacity="0.30" /><circle cx="1109.0" cy="309.4" r="0.9" fill="#e4c388" opacity="0.34" /><circle cx="906.5" cy="239.4" r="1.6" fill="#e4c388" opacity="0.37" /><circle cx="852.1" cy="566.4" r="1.5" fill="#e4c388" opacity="0.32" /><circle cx="1295.3" cy="195.0" r="0.8" fill="#e4c388" opacity="0.46" /><circle cx="415.0" cy="590.6" r="1.3" fill="#e4c388" opacity="0.38" /><circle cx="721.6" cy="278.6" r="1.0" fill="#e4c388" opacity="0.56" /><circle cx="1033.3" cy="709.5" r="0.5" fill="#e4c388" opacity="0.40" /><circle cx="1195.5" cy="632.0" r="1.6" fill="#e4c388" opacity="0.34" /><circle cx="1508.4" cy="285.9" r="1.4" fill="#e4c388" opacity="0.43" /><circle cx="443.2" cy="636.4" r="1.5" fill="#e4c388" opacity="0.47" /><circle cx="1320.6" cy="514.4" r="1.4" fill="#e4c388" opacity="0.48" /><circle cx="1249.6" cy="550.6" r="1.3" fill="#e4c388" opacity="0.22" /><circle cx="1149.2" cy="808.1" r="1.3" fill="#e4c388" opacity="0.41" /><circle cx="253.0" cy="175.3" r="1.5" fill="#e4c388" opacity="0.56" /><circle cx="1376.4" cy="339.8" r="1.4" fill="#e4c388" opacity="0.49" /><circle cx="1539.0" cy="374.0" r="1.0" fill="#e4c388" opacity="0.46" /><circle cx="1138.4" cy="712.9" r="1.1" fill="#e4c388" opacity="0.33" /><circle cx="1517.7" cy="728.3" r="1.0" fill="#e4c388" opacity="0.16" /><circle cx="1524.2" cy="667.9" r="1.2" fill="#e4c388" opacity="0.58" /><circle cx="186.8" cy="315.0" r="0.4" fill="#e4c388" opacity="0.20" /><circle cx="330.7" cy="724.7" r="1.1" fill="#e4c388" opacity="0.21" /><circle cx="654.3" cy="546.4" r="1.2" fill="#e4c388" opacity="0.25" /><circle cx="1394.8" cy="513.2" r="1.3" fill="#e4c388" opacity="0.16" /><circle cx="396.9" cy="255.2" r="0.8" fill="#e4c388" opacity="0.12" /><circle cx="1199.9" cy="631.6" r="0.4" fill="#e4c388" opacity="0.40" /><circle cx="114.4" cy="540.1" r="1.0" fill="#e4c388" opacity="0.25" /><circle cx="1405.1" cy="861.7" r="1.5" fill="#e4c388" opacity="0.27" /><circle cx="293.3" cy="604.0" r="0.6" fill="#e4c388" opacity="0.17" /><circle cx="176.9" cy="749.5" r="1.4" fill="#e4c388" opacity="0.56" /><circle cx="1252.5" cy="313.9" r="1.2" fill="#e4c388" opacity="0.45" /><circle cx="79.5" cy="481.7" r="1.3" fill="#e4c388" opacity="0.45" /><circle cx="892.2" cy="554.7" r="1.4" fill="#e4c388" opacity="0.40" /><circle cx="1424.3" cy="228.4" r="0.6" fill="#e4c388" opacity="0.19" /><circle cx="1266.0" cy="712.3" r="1.6" fill="#e4c388" opacity="0.24" /><circle cx="1196.5" cy="207.0" r="0.7" fill="#e4c388" opacity="0.41" /><circle cx="379.5" cy="378.8" r="1.4" fill="#e4c388" opacity="0.52" /><circle cx="1351.2" cy="520.1" r="0.7" fill="#e4c388" opacity="0.22" /><circle cx="82.5" cy="694.4" r="1.0" fill="#e4c388" opacity="0.36" /><circle cx="565.8" cy="785.9" r="0.5" fill="#e4c388" opacity="0.32" /><circle cx="1479.6" cy="234.3" r="1.5" fill="#e4c388" opacity="0.45" /><circle cx="292.6" cy="270.8" r="0.8" fill="#e4c388" opacity="0.19" /><circle cx="1459.1" cy="504.2" r="1.1" fill="#e4c388" opacity="0.42" /><circle cx="1492.0" cy="663.0" r="0.9" fill="#e4c388" opacity="0.57" /><circle cx="828.2" cy="167.7" r="0.4" fill="#e4c388" opacity="0.55" /><circle cx="824.9" cy="232.4" r="0.4" fill="#e4c388" opacity="0.17" /><circle cx="1255.5" cy="793.6" r="1.1" fill="#e4c388" opacity="0.30" /><circle cx="823.3" cy="290.2" r="1.4" fill="#e4c388" opacity="0.13" /><circle cx="1269.4" cy="280.1" r="0.8" fill="#e4c388" opacity="0.37" /><circle cx="650.6" cy="84.7" r="1.2" fill="#e4c388" opacity="0.50" /><circle cx="295.9" cy="541.9" r="0.5" fill="#e4c388" opacity="0.44" /><circle cx="350.4" cy="277.4" r="0.8" fill="#e4c388" opacity="0.20" /><circle cx="1005.4" cy="215.0" r="0.6" fill="#e4c388" opacity="0.20" /><circle cx="288.0" cy="219.1" r="0.5" fill="#e4c388" opacity="0.33" /><circle cx="545.2" cy="305.9" r="0.5" fill="#e4c388" opacity="0.52" /><circle cx="1450.4" cy="234.1" r="0.9" fill="#e4c388" opacity="0.39" /><circle cx="1355.9" cy="744.1" r="0.4" fill="#e4c388" opacity="0.43" /><circle cx="1237.2" cy="505.8" r="0.7" fill="#e4c388" opacity="0.52" /><circle cx="447.2" cy="412.6" r="1.4" fill="#e4c388" opacity="0.22" /><circle cx="841.7" cy="818.0" r="1.2" fill="#e4c388" opacity="0.59" /><circle cx="1028.8" cy="509.9" r="1.3" fill="#e4c388" opacity="0.12" /><circle cx="1407.0" cy="711.3" r="0.7" fill="#e4c388" opacity="0.55" /><circle cx="760.3" cy="142.0" r="1.1" fill="#e4c388" opacity="0.28" /><circle cx="668.2" cy="424.8" r="1.2" fill="#e4c388" opacity="0.22" /><circle cx="360.5" cy="766.5" r="1.0" fill="#e4c388" opacity="0.43" /><circle cx="424.8" cy="187.7" r="1.3" fill="#e4c388" opacity="0.59" /><circle cx="561.7" cy="221.6" r="0.8" fill="#e4c388" opacity="0.51" /><circle cx="869.8" cy="246.2" r="0.7" fill="#e4c388" opacity="0.26" /><circle cx="533.3" cy="241.3" r="1.3" fill="#e4c388" opacity="0.18" /><circle cx="132.2" cy="139.3" r="1.1" fill="#e4c388" opacity="0.59" /><circle cx="150.7" cy="368.4" r="1.0" fill="#e4c388" opacity="0.40" /><circle cx="613.2" cy="281.8" r="1.5" fill="#e4c388" opacity="0.44" /><circle cx="735.9" cy="91.2" r="1.5" fill="#e4c388" opacity="0.37" /><circle cx="1223.3" cy="459.3" r="1.2" fill="#e4c388" opacity="0.49" /><circle cx="1260.8" cy="531.4" r="1.0" fill="#e4c388" opacity="0.53" /><circle cx="1077.8" cy="568.0" r="0.7" fill="#e4c388" opacity="0.33" /><circle cx="1215.4" cy="251.2" r="0.7" fill="#e4c388" opacity="0.35" /><circle cx="215.4" cy="157.9" r="1.3" fill="#e4c388" opacity="0.15" /><circle cx="993.3" cy="397.2" r="1.2" fill="#e4c388" opacity="0.12" /><circle cx="983.9" cy="349.5" r="1.1" fill="#e4c388" opacity="0.28" /><circle cx="1363.7" cy="185.4" r="1.0" fill="#e4c388" opacity="0.20" /><circle cx="902.5" cy="783.5" r="0.6" fill="#e4c388" opacity="0.21" /><circle cx="631.2" cy="694.0" r="1.5" fill="#e4c388" opacity="0.20" /><circle cx="236.7" cy="685.7" r="0.4" fill="#e4c388" opacity="0.29" /><circle cx="864.4" cy="719.6" r="1.2" fill="#e4c388" opacity="0.39" /><circle cx="601.6" cy="472.8" r="0.4" fill="#e4c388" opacity="0.29" /><circle cx="706.7" cy="563.1" r="1.5" fill="#e4c388" opacity="0.44" /><circle cx="1220.3" cy="716.7" r="0.6" fill="#e4c388" opacity="0.18" /><circle cx="1223.8" cy="252.0" r="0.8" fill="#e4c388" opacity="0.55" /><circle cx="449.1" cy="634.6" r="0.4" fill="#e4c388" opacity="0.55" /><circle cx="1518.1" cy="342.1" r="0.6" fill="#e4c388" opacity="0.40" /><circle cx="80.3" cy="293.9" r="1.3" fill="#e4c388" opacity="0.36" /><circle cx="352.1" cy="275.8" r="0.8" fill="#e4c388" opacity="0.44" /><circle cx="922.8" cy="468.1" r="1.4" fill="#e4c388" opacity="0.31" /><circle cx="803.5" cy="144.4" r="1.4" fill="#e4c388" opacity="0.45" /><circle cx="222.1" cy="711.8" r="0.9" fill="#e4c388" opacity="0.34" /><circle cx="238.3" cy="323.6" r="1.5" fill="#e4c388" opacity="0.45" /><circle cx="1227.4" cy="269.3" r="0.5" fill="#e4c388" opacity="0.55" /><circle cx="429.3" cy="290.8" r="0.9" fill="#e4c388" opacity="0.46" /><circle cx="619.1" cy="729.8" r="1.3" fill="#e4c388" opacity="0.41" /><circle cx="1221.1" cy="420.5" r="0.7" fill="#e4c388" opacity="0.44" /><circle cx="92.0" cy="629.2" r="1.6" fill="#e4c388" opacity="0.48" /><circle cx="949.8" cy="846.0" r="0.4" fill="#e4c388" opacity="0.32" /><circle cx="155.7" cy="334.1" r="1.0" fill="#e4c388" opacity="0.22" /><circle cx="71.9" cy="577.6" r="1.0" fill="#e4c388" opacity="0.22" /><circle cx="648.2" cy="653.0" r="1.1" fill="#e4c388" opacity="0.43" /><circle cx="797.6" cy="698.9" r="0.7" fill="#e4c388" opacity="0.45" /><circle cx="1011.7" cy="128.5" r="0.7" fill="#e4c388" opacity="0.31" /><circle cx="1210.4" cy="869.9" r="1.0" fill="#e4c388" opacity="0.15" /><circle cx="1125.6" cy="463.5" r="1.2" fill="#e4c388" opacity="0.53" /><circle cx="1444.9" cy="388.6" r="0.8" fill="#e4c388" opacity="0.50" /><circle cx="1099.5" cy="713.5" r="1.6" fill="#e4c388" opacity="0.44" /><circle cx="1408.7" cy="683.9" r="0.8" fill="#e4c388" opacity="0.44" /><circle cx="1259.5" cy="804.1" r="0.8" fill="#e4c388" opacity="0.49" /><circle cx="951.8" cy="372.0" r="1.5" fill="#e4c388" opacity="0.46" /><circle cx="1194.7" cy="456.8" r="1.2" fill="#e4c388" opacity="0.41" /><circle cx="1463.4" cy="156.0" r="1.5" fill="#e4c388" opacity="0.44" /><circle cx="1288.9" cy="681.5" r="0.8" fill="#e4c388" opacity="0.47" /><circle cx="995.4" cy="757.7" r="1.4" fill="#e4c388" opacity="0.50" /><circle cx="257.2" cy="177.0" r="1.0" fill="#e4c388" opacity="0.56" /><circle cx="101.7" cy="243.9" r="1.2" fill="#e4c388" opacity="0.39" /><circle cx="936.9" cy="470.5" r="0.4" fill="#e4c388" opacity="0.48" /><circle cx="1534.8" cy="554.3" r="0.9" fill="#e4c388" opacity="0.59" /><circle cx="374.0" cy="844.6" r="1.5" fill="#e4c388" opacity="0.41" /><circle cx="1444.4" cy="799.7" r="0.7" fill="#e4c388" opacity="0.53" /><circle cx="1519.6" cy="224.9" r="1.1" fill="#e4c388" opacity="0.35" /><circle cx="874.9" cy="260.9" r="0.6" fill="#e4c388" opacity="0.56" /><circle cx="89.2" cy="344.3" r="0.5" fill="#e4c388" opacity="0.51" /><circle cx="1499.2" cy="520.5" r="1.5" fill="#e4c388" opacity="0.28" /><circle cx="993.6" cy="91.2" r="0.7" fill="#e4c388" opacity="0.24" /><circle cx="1057.6" cy="458.4" r="0.7" fill="#e4c388" opacity="0.49" /><circle cx="99.0" cy="209.8" r="1.1" fill="#e4c388" opacity="0.32" /><circle cx="614.9" cy="393.1" r="1.1" fill="#e4c388" opacity="0.25" /><circle cx="717.4" cy="157.1" r="1.1" fill="#e4c388" opacity="0.20" /><circle cx="906.1" cy="125.2" r="1.1" fill="#e4c388" opacity="0.41" /><circle cx="309.2" cy="325.9" r="1.5" fill="#e4c388" opacity="0.23" /><circle cx="280.4" cy="363.9" r="1.2" fill="#e4c388" opacity="0.37" /><circle cx="1475.6" cy="143.5" r="1.1" fill="#e4c388" opacity="0.45" /><circle cx="1171.1" cy="737.6" r="1.3" fill="#e4c388" opacity="0.21" /><circle cx="1515.4" cy="727.5" r="0.4" fill="#e4c388" opacity="0.47" /><circle cx="1015.1" cy="338.2" r="1.3" fill="#e4c388" opacity="0.14" /><circle cx="1024.3" cy="672.6" r="1.1" fill="#e4c388" opacity="0.46" /><circle cx="100.1" cy="803.7" r="1.3" fill="#e4c388" opacity="0.58" /><circle cx="553.0" cy="155.6" r="0.8" fill="#e4c388" opacity="0.14" /><circle cx="1342.0" cy="646.7" r="1.3" fill="#e4c388" opacity="0.58" /><circle cx="648.1" cy="683.7" r="1.2" fill="#e4c388" opacity="0.50" /><circle cx="1368.3" cy="845.1" r="0.9" fill="#e4c388" opacity="0.27" /><circle cx="1373.5" cy="293.5" r="0.6" fill="#e4c388" opacity="0.23" /><circle cx="882.2" cy="799.3" r="1.1" fill="#e4c388" opacity="0.41" /><circle cx="1537.8" cy="429.0" r="1.3" fill="#e4c388" opacity="0.32" /><circle cx="666.1" cy="837.2" r="0.5" fill="#e4c388" opacity="0.17" /><circle cx="1482.9" cy="117.5" r="1.1" fill="#e4c388" opacity="0.55" /><circle cx="1139.1" cy="589.6" r="1.1" fill="#e4c388" opacity="0.26" /><circle cx="158.5" cy="176.7" r="0.5" fill="#e4c388" opacity="0.18" /><circle cx="667.2" cy="387.6" r="0.8" fill="#e4c388" opacity="0.38" /><circle cx="1461.4" cy="761.3" r="1.4" fill="#e4c388" opacity="0.58" /><circle cx="278.2" cy="393.0" r="1.4" fill="#e4c388" opacity="0.14" /><circle cx="772.4" cy="860.4" r="1.4" fill="#e4c388" opacity="0.23" /><circle cx="1199.1" cy="370.5" r="0.9" fill="#e4c388" opacity="0.35" /><circle cx="664.8" cy="597.3" r="0.6" fill="#e4c388" opacity="0.21" /><circle cx="1323.3" cy="167.0" r="1.1" fill="#e4c388" opacity="0.34" /><circle cx="883.2" cy="584.1" r="0.5" fill="#e4c388" opacity="0.23" /><circle cx="1131.2" cy="201.7" r="1.0" fill="#e4c388" opacity="0.44" /><circle cx="805.6" cy="518.3" r="0.4" fill="#e4c388" opacity="0.57" /><circle cx="1136.6" cy="91.8" r="0.9" fill="#e4c388" opacity="0.19" /><circle cx="1033.1" cy="245.6" r="1.0" fill="#e4c388" opacity="0.51" /><circle cx="1244.2" cy="778.1" r="0.7" fill="#e4c388" opacity="0.53" /><circle cx="1426.7" cy="143.4" r="0.7" fill="#e4c388" opacity="0.14" /><circle cx="869.6" cy="367.0" r="0.5" fill="#e4c388" opacity="0.13" /><circle cx="1374.8" cy="294.6" r="1.5" fill="#e4c388" opacity="0.22" /><circle cx="291.7" cy="643.2" r="1.1" fill="#e4c388" opacity="0.34" /><path d="M 484.2 895 C 404.2 710 400.9 530 400.9 627.8" fill="none" stroke="#acd1be" stroke-width="1" opacity=".7" /><ellipse cx="419.9" cy="627.8" rx="6" ry="17" transform="rotate(0.0 419.9 627.8)" fill="none" stroke="#acd1be" opacity=".75" /><ellipse cx="412.8" cy="642.6" rx="6" ry="17" transform="rotate(51.4 412.8 642.6)" fill="none" stroke="#acd1be" opacity=".75" /><ellipse cx="396.7" cy="646.3" rx="6" ry="17" transform="rotate(102.9 396.7 646.3)" fill="none" stroke="#acd1be" opacity=".75" /><ellipse cx="383.8" cy="636.0" rx="6" ry="17" transform="rotate(154.3 383.8 636.0)" fill="none" stroke="#acd1be" opacity=".75" /><ellipse cx="383.8" cy="619.5" rx="6" ry="17" transform="rotate(205.7 383.8 619.5)" fill="none" stroke="#acd1be" opacity=".75" /><ellipse cx="396.7" cy="609.2" rx="6" ry="17" transform="rotate(257.1 396.7 609.2)" fill="none" stroke="#acd1be" opacity=".75" /><ellipse cx="412.8" cy="612.9" rx="6" ry="17" transform="rotate(308.6 412.8 612.9)" fill="none" stroke="#acd1be" opacity=".75" /><circle cx="400.9" cy="627.8" r="5" fill="#acd1be" /><path d="M 507.1 895 C 427.1 710 499.4 530 499.4 680.5" fill="none" stroke="#e4c388" stroke-width="1" opacity=".7" /><ellipse cx="518.4" cy="680.5" rx="6" ry="17" transform="rotate(0.0 518.4 680.5)" fill="none" stroke="#e4c388" opacity=".75" /><ellipse cx="511.3" cy="695.4" rx="6" ry="17" transform="rotate(51.4 511.3 695.4)" fill="none" stroke="#e4c388" opacity=".75" /><ellipse cx="495.2" cy="699.0" rx="6" ry="17" transform="rotate(102.9 495.2 699.0)" fill="none" stroke="#e4c388" opacity=".75" /><ellipse cx="482.3" cy="688.8" rx="6" ry="17" transform="rotate(154.3 482.3 688.8)" fill="none" stroke="#e4c388" opacity=".75" /><ellipse cx="482.3" cy="672.3" rx="6" ry="17" transform="rotate(205.7 482.3 672.3)" fill="none" stroke="#e4c388" opacity=".75" /><ellipse cx="495.2" cy="662.0" rx="6" ry="17" transform="rotate(257.1 495.2 662.0)" fill="none" stroke="#e4c388" opacity=".75" /><ellipse cx="511.3" cy="665.7" rx="6" ry="17" transform="rotate(308.6 511.3 665.7)" fill="none" stroke="#e4c388" opacity=".75" /><circle cx="499.4" cy="680.5" r="5" fill="#e4c388" /><path d="M 578.8 895 C 498.8 710 506.1 530 506.1 345.6" fill="none" stroke="#ece5d3" stroke-width="1" opacity=".7" /><ellipse cx="525.1" cy="345.6" rx="6" ry="17" transform="rotate(0.0 525.1 345.6)" fill="none" stroke="#ece5d3" opacity=".75" /><ellipse cx="518.0" cy="360.5" rx="6" ry="17" transform="rotate(51.4 518.0 360.5)" fill="none" stroke="#ece5d3" opacity=".75" /><ellipse cx="501.9" cy="364.1" rx="6" ry="17" transform="rotate(102.9 501.9 364.1)" fill="none" stroke="#ece5d3" opacity=".75" /><ellipse cx="489.0" cy="353.9" rx="6" ry="17" transform="rotate(154.3 489.0 353.9)" fill="none" stroke="#ece5d3" opacity=".75" /><ellipse cx="489.0" cy="337.4" rx="6" ry="17" transform="rotate(205.7 489.0 337.4)" fill="none" stroke="#ece5d3" opacity=".75" /><ellipse cx="501.9" cy="327.1" rx="6" ry="17" transform="rotate(257.1 501.9 327.1)" fill="none" stroke="#ece5d3" opacity=".75" /><ellipse cx="518.0" cy="330.8" rx="6" ry="17" transform="rotate(308.6 518.0 330.8)" fill="none" stroke="#ece5d3" opacity=".75" /><circle cx="506.1" cy="345.6" r="5" fill="#ece5d3" /><path d="M 624.9 895 C 544.9 710 594.6 530 594.6 349.0" fill="none" stroke="#6fa49e" stroke-width="1" opacity=".7" /><ellipse cx="613.6" cy="349.0" rx="6" ry="17" transform="rotate(0.0 613.6 349.0)" fill="none" stroke="#6fa49e" opacity=".75" /><ellipse cx="606.5" cy="363.9" rx="6" ry="17" transform="rotate(51.4 606.5 363.9)" fill="none" stroke="#6fa49e" opacity=".75" /><ellipse cx="590.4" cy="367.5" rx="6" ry="17" transform="rotate(102.9 590.4 367.5)" fill="none" stroke="#6fa49e" opacity=".75" /><ellipse cx="577.5" cy="357.3" rx="6" ry="17" transform="rotate(154.3 577.5 357.3)" fill="none" stroke="#6fa49e" opacity=".75" /><ellipse cx="577.5" cy="340.8" rx="6" ry="17" transform="rotate(205.7 577.5 340.8)" fill="none" stroke="#6fa49e" opacity=".75" /><ellipse cx="590.4" cy="330.5" rx="6" ry="17" transform="rotate(257.1 590.4 330.5)" fill="none" stroke="#6fa49e" opacity=".75" /><ellipse cx="606.5" cy="334.2" rx="6" ry="17" transform="rotate(308.6 606.5 334.2)" fill="none" stroke="#6fa49e" opacity=".75" /><circle cx="594.6" cy="349.0" r="5" fill="#6fa49e" /><path d="M 648.6 895 C 568.6 710 699.6 530 699.6 332.1" fill="none" stroke="#acd1be" stroke-width="1" opacity=".7" /><ellipse cx="718.6" cy="332.1" rx="6" ry="17" transform="rotate(0.0 718.6 332.1)" fill="none" stroke="#acd1be" opacity=".75" /><ellipse cx="711.4" cy="347.0" rx="6" ry="17" transform="rotate(51.4 711.4 347.0)" fill="none" stroke="#acd1be" opacity=".75" /><ellipse cx="695.3" cy="350.7" rx="6" ry="17" transform="rotate(102.9 695.3 350.7)" fill="none" stroke="#acd1be" opacity=".75" /><ellipse cx="682.4" cy="340.4" rx="6" ry="17" transform="rotate(154.3 682.4 340.4)" fill="none" stroke="#acd1be" opacity=".75" /><ellipse cx="682.4" cy="323.9" rx="6" ry="17" transform="rotate(205.7 682.4 323.9)" fill="none" stroke="#acd1be" opacity=".75" /><ellipse cx="695.3" cy="313.6" rx="6" ry="17" transform="rotate(257.1 695.3 313.6)" fill="none" stroke="#acd1be" opacity=".75" /><ellipse cx="711.4" cy="317.3" rx="6" ry="17" transform="rotate(308.6 711.4 317.3)" fill="none" stroke="#acd1be" opacity=".75" /><circle cx="699.6" cy="332.1" r="5" fill="#acd1be" /><path d="M 707.6 895 C 627.6 710 700.3 530 700.3 342.0" fill="none" stroke="#e4c388" stroke-width="1" opacity=".7" /><ellipse cx="719.3" cy="342.0" rx="6" ry="17" transform="rotate(0.0 719.3 342.0)" fill="none" stroke="#e4c388" opacity=".75" /><ellipse cx="712.2" cy="356.9" rx="6" ry="17" transform="rotate(51.4 712.2 356.9)" fill="none" stroke="#e4c388" opacity=".75" /><ellipse cx="696.1" cy="360.6" rx="6" ry="17" transform="rotate(102.9 696.1 360.6)" fill="none" stroke="#e4c388" opacity=".75" /><ellipse cx="683.2" cy="350.3" rx="6" ry="17" transform="rotate(154.3 683.2 350.3)" fill="none" stroke="#e4c388" opacity=".75" /><ellipse cx="683.2" cy="333.8" rx="6" ry="17" transform="rotate(205.7 683.2 333.8)" fill="none" stroke="#e4c388" opacity=".75" /><ellipse cx="696.1" cy="323.5" rx="6" ry="17" transform="rotate(257.1 696.1 323.5)" fill="none" stroke="#e4c388" opacity=".75" /><ellipse cx="712.2" cy="327.2" rx="6" ry="17" transform="rotate(308.6 712.2 327.2)" fill="none" stroke="#e4c388" opacity=".75" /><circle cx="700.3" cy="342.0" r="5" fill="#e4c388" /><path d="M 764.6 895 C 684.6 710 854.1 530 854.1 751.9" fill="none" stroke="#ece5d3" stroke-width="1" opacity=".7" /><ellipse cx="873.1" cy="751.9" rx="6" ry="17" transform="rotate(0.0 873.1 751.9)" fill="none" stroke="#ece5d3" opacity=".75" /><ellipse cx="865.9" cy="766.8" rx="6" ry="17" transform="rotate(51.4 865.9 766.8)" fill="none" stroke="#ece5d3" opacity=".75" /><ellipse cx="849.9" cy="770.5" rx="6" ry="17" transform="rotate(102.9 849.9 770.5)" fill="none" stroke="#ece5d3" opacity=".75" /><ellipse cx="837.0" cy="760.2" rx="6" ry="17" transform="rotate(154.3 837.0 760.2)" fill="none" stroke="#ece5d3" opacity=".75" /><ellipse cx="837.0" cy="743.7" rx="6" ry="17" transform="rotate(205.7 837.0 743.7)" fill="none" stroke="#ece5d3" opacity=".75" /><ellipse cx="849.9" cy="733.4" rx="6" ry="17" transform="rotate(257.1 849.9 733.4)" fill="none" stroke="#ece5d3" opacity=".75" /><ellipse cx="865.9" cy="737.1" rx="6" ry="17" transform="rotate(308.6 865.9 737.1)" fill="none" stroke="#ece5d3" opacity=".75" /><circle cx="854.1" cy="751.9" r="5" fill="#ece5d3" /><path d="M 814.8 895 C 734.8 710 766.5 530 766.5 717.9" fill="none" stroke="#6fa49e" stroke-width="1" opacity=".7" /><ellipse cx="785.5" cy="717.9" rx="6" ry="17" transform="rotate(0.0 785.5 717.9)" fill="none" stroke="#6fa49e" opacity=".75" /><ellipse cx="778.3" cy="732.8" rx="6" ry="17" transform="rotate(51.4 778.3 732.8)" fill="none" stroke="#6fa49e" opacity=".75" /><ellipse cx="762.3" cy="736.4" rx="6" ry="17" transform="rotate(102.9 762.3 736.4)" fill="none" stroke="#6fa49e" opacity=".75" /><ellipse cx="749.4" cy="726.1" rx="6" ry="17" transform="rotate(154.3 749.4 726.1)" fill="none" stroke="#6fa49e" opacity=".75" /><ellipse cx="749.4" cy="709.7" rx="6" ry="17" transform="rotate(205.7 749.4 709.7)" fill="none" stroke="#6fa49e" opacity=".75" /><ellipse cx="762.3" cy="699.4" rx="6" ry="17" transform="rotate(257.1 762.3 699.4)" fill="none" stroke="#6fa49e" opacity=".75" /><ellipse cx="778.3" cy="703.0" rx="6" ry="17" transform="rotate(308.6 778.3 703.0)" fill="none" stroke="#6fa49e" opacity=".75" /><circle cx="766.5" cy="717.9" r="5" fill="#6fa49e" /><path d="M 837.1 895 C 757.1 710 751.4 530 751.4 650.6" fill="none" stroke="#acd1be" stroke-width="1" opacity=".7" /><ellipse cx="770.4" cy="650.6" rx="6" ry="17" transform="rotate(0.0 770.4 650.6)" fill="none" stroke="#acd1be" opacity=".75" /><ellipse cx="763.3" cy="665.4" rx="6" ry="17" transform="rotate(51.4 763.3 665.4)" fill="none" stroke="#acd1be" opacity=".75" /><ellipse cx="747.2" cy="669.1" rx="6" ry="17" transform="rotate(102.9 747.2 669.1)" fill="none" stroke="#acd1be" opacity=".75" /><ellipse cx="734.3" cy="658.8" rx="6" ry="17" transform="rotate(154.3 734.3 658.8)" fill="none" stroke="#acd1be" opacity=".75" /><ellipse cx="734.3" cy="642.3" rx="6" ry="17" transform="rotate(205.7 734.3 642.3)" fill="none" stroke="#acd1be" opacity=".75" /><ellipse cx="747.2" cy="632.0" rx="6" ry="17" transform="rotate(257.1 747.2 632.0)" fill="none" stroke="#acd1be" opacity=".75" /><ellipse cx="763.3" cy="635.7" rx="6" ry="17" transform="rotate(308.6 763.3 635.7)" fill="none" stroke="#acd1be" opacity=".75" /><circle cx="751.4" cy="650.6" r="5" fill="#acd1be" /><path d="M 904.8 895 C 824.8 710 909.5 530 909.5 557.8" fill="none" stroke="#e4c388" stroke-width="1" opacity=".7" /><ellipse cx="928.5" cy="557.8" rx="6" ry="17" transform="rotate(0.0 928.5 557.8)" fill="none" stroke="#e4c388" opacity=".75" /><ellipse cx="921.4" cy="572.6" rx="6" ry="17" transform="rotate(51.4 921.4 572.6)" fill="none" stroke="#e4c388" opacity=".75" /><ellipse cx="905.3" cy="576.3" rx="6" ry="17" transform="rotate(102.9 905.3 576.3)" fill="none" stroke="#e4c388" opacity=".75" /><ellipse cx="892.4" cy="566.0" rx="6" ry="17" transform="rotate(154.3 892.4 566.0)" fill="none" stroke="#e4c388" opacity=".75" /><ellipse cx="892.4" cy="549.5" rx="6" ry="17" transform="rotate(205.7 892.4 549.5)" fill="none" stroke="#e4c388" opacity=".75" /><ellipse cx="905.3" cy="539.3" rx="6" ry="17" transform="rotate(257.1 905.3 539.3)" fill="none" stroke="#e4c388" opacity=".75" /><ellipse cx="921.4" cy="542.9" rx="6" ry="17" transform="rotate(308.6 921.4 542.9)" fill="none" stroke="#e4c388" opacity=".75" /><circle cx="909.5" cy="557.8" r="5" fill="#e4c388" /><path d="M 948.7 895 C 868.7 710 995.4 530 995.4 652.1" fill="none" stroke="#ece5d3" stroke-width="1" opacity=".7" /><ellipse cx="1014.4" cy="652.1" rx="6" ry="17" transform="rotate(0.0 1014.4 652.1)" fill="none" stroke="#ece5d3" opacity=".75" /><ellipse cx="1007.2" cy="667.0" rx="6" ry="17" transform="rotate(51.4 1007.2 667.0)" fill="none" stroke="#ece5d3" opacity=".75" /><ellipse cx="991.2" cy="670.6" rx="6" ry="17" transform="rotate(102.9 991.2 670.6)" fill="none" stroke="#ece5d3" opacity=".75" /><ellipse cx="978.3" cy="660.3" rx="6" ry="17" transform="rotate(154.3 978.3 660.3)" fill="none" stroke="#ece5d3" opacity=".75" /><ellipse cx="978.3" cy="643.9" rx="6" ry="17" transform="rotate(205.7 978.3 643.9)" fill="none" stroke="#ece5d3" opacity=".75" /><ellipse cx="991.2" cy="633.6" rx="6" ry="17" transform="rotate(257.1 991.2 633.6)" fill="none" stroke="#ece5d3" opacity=".75" /><ellipse cx="1007.2" cy="637.2" rx="6" ry="17" transform="rotate(308.6 1007.2 637.2)" fill="none" stroke="#ece5d3" opacity=".75" /><circle cx="995.4" cy="652.1" r="5" fill="#ece5d3" /><path d="M 959.4 895 C 879.4 710 855.7 530 855.7 654.9" fill="none" stroke="#6fa49e" stroke-width="1" opacity=".7" /><ellipse cx="874.7" cy="654.9" rx="6" ry="17" transform="rotate(0.0 874.7 654.9)" fill="none" stroke="#6fa49e" opacity=".75" /><ellipse cx="867.6" cy="669.8" rx="6" ry="17" transform="rotate(51.4 867.6 669.8)" fill="none" stroke="#6fa49e" opacity=".75" /><ellipse cx="851.5" cy="673.4" rx="6" ry="17" transform="rotate(102.9 851.5 673.4)" fill="none" stroke="#6fa49e" opacity=".75" /><ellipse cx="838.6" cy="663.2" rx="6" ry="17" transform="rotate(154.3 838.6 663.2)" fill="none" stroke="#6fa49e" opacity=".75" /><ellipse cx="838.6" cy="646.7" rx="6" ry="17" transform="rotate(205.7 838.6 646.7)" fill="none" stroke="#6fa49e" opacity=".75" /><ellipse cx="851.5" cy="636.4" rx="6" ry="17" transform="rotate(257.1 851.5 636.4)" fill="none" stroke="#6fa49e" opacity=".75" /><ellipse cx="867.6" cy="640.1" rx="6" ry="17" transform="rotate(308.6 867.6 640.1)" fill="none" stroke="#6fa49e" opacity=".75" /><circle cx="855.7" cy="654.9" r="5" fill="#6fa49e" /><path d="M 1006.5 895 C 926.5 710 977.8 530 977.8 704.6" fill="none" stroke="#acd1be" stroke-width="1" opacity=".7" /><ellipse cx="996.8" cy="704.6" rx="6" ry="17" transform="rotate(0.0 996.8 704.6)" fill="none" stroke="#acd1be" opacity=".75" /><ellipse cx="989.6" cy="719.5" rx="6" ry="17" transform="rotate(51.4 989.6 719.5)" fill="none" stroke="#acd1be" opacity=".75" /><ellipse cx="973.6" cy="723.1" rx="6" ry="17" transform="rotate(102.9 973.6 723.1)" fill="none" stroke="#acd1be" opacity=".75" /><ellipse cx="960.7" cy="712.8" rx="6" ry="17" transform="rotate(154.3 960.7 712.8)" fill="none" stroke="#acd1be" opacity=".75" /><ellipse cx="960.7" cy="696.4" rx="6" ry="17" transform="rotate(205.7 960.7 696.4)" fill="none" stroke="#acd1be" opacity=".75" /><ellipse cx="973.6" cy="686.1" rx="6" ry="17" transform="rotate(257.1 973.6 686.1)" fill="none" stroke="#acd1be" opacity=".75" /><ellipse cx="989.6" cy="689.7" rx="6" ry="17" transform="rotate(308.6 989.6 689.7)" fill="none" stroke="#acd1be" opacity=".75" /><circle cx="977.8" cy="704.6" r="5" fill="#acd1be" /><path d="M 1072.6 895 C 992.6 710 1021.0 530 1021.0 504.1" fill="none" stroke="#e4c388" stroke-width="1" opacity=".7" /><ellipse cx="1040.0" cy="504.1" rx="6" ry="17" transform="rotate(0.0 1040.0 504.1)" fill="none" stroke="#e4c388" opacity=".75" /><ellipse cx="1032.8" cy="519.0" rx="6" ry="17" transform="rotate(51.4 1032.8 519.0)" fill="none" stroke="#e4c388" opacity=".75" /><ellipse cx="1016.7" cy="522.7" rx="6" ry="17" transform="rotate(102.9 1016.7 522.7)" fill="none" stroke="#e4c388" opacity=".75" /><ellipse cx="1003.8" cy="512.4" rx="6" ry="17" transform="rotate(154.3 1003.8 512.4)" fill="none" stroke="#e4c388" opacity=".75" /><ellipse cx="1003.8" cy="495.9" rx="6" ry="17" transform="rotate(205.7 1003.8 495.9)" fill="none" stroke="#e4c388" opacity=".75" /><ellipse cx="1016.7" cy="485.6" rx="6" ry="17" transform="rotate(257.1 1016.7 485.6)" fill="none" stroke="#e4c388" opacity=".75" /><ellipse cx="1032.8" cy="489.3" rx="6" ry="17" transform="rotate(308.6 1032.8 489.3)" fill="none" stroke="#e4c388" opacity=".75" /><circle cx="1021.0" cy="504.1" r="5" fill="#e4c388" /><path d="M 1100.6 895 C 1020.6 710 1076.4 530 1076.4 223.2" fill="none" stroke="#ece5d3" stroke-width="1" opacity=".7" /><ellipse cx="1095.4" cy="223.2" rx="6" ry="17" transform="rotate(0.0 1095.4 223.2)" fill="none" stroke="#ece5d3" opacity=".75" /><ellipse cx="1088.3" cy="238.0" rx="6" ry="17" transform="rotate(51.4 1088.3 238.0)" fill="none" stroke="#ece5d3" opacity=".75" /><ellipse cx="1072.2" cy="241.7" rx="6" ry="17" transform="rotate(102.9 1072.2 241.7)" fill="none" stroke="#ece5d3" opacity=".75" /><ellipse cx="1059.3" cy="231.4" rx="6" ry="17" transform="rotate(154.3 1059.3 231.4)" fill="none" stroke="#ece5d3" opacity=".75" /><ellipse cx="1059.3" cy="214.9" rx="6" ry="17" transform="rotate(205.7 1059.3 214.9)" fill="none" stroke="#ece5d3" opacity=".75" /><ellipse cx="1072.2" cy="204.6" rx="6" ry="17" transform="rotate(257.1 1072.2 204.6)" fill="none" stroke="#ece5d3" opacity=".75" /><ellipse cx="1088.3" cy="208.3" rx="6" ry="17" transform="rotate(308.6 1088.3 208.3)" fill="none" stroke="#ece5d3" opacity=".75" /><circle cx="1076.4" cy="223.2" r="5" fill="#ece5d3" /><path d="M 1161.9 895 C 1081.9 710 1209.9 530 1209.9 385.6" fill="none" stroke="#6fa49e" stroke-width="1" opacity=".7" /><ellipse cx="1228.9" cy="385.6" rx="6" ry="17" transform="rotate(0.0 1228.9 385.6)" fill="none" stroke="#6fa49e" opacity=".75" /><ellipse cx="1221.8" cy="400.5" rx="6" ry="17" transform="rotate(51.4 1221.8 400.5)" fill="none" stroke="#6fa49e" opacity=".75" /><ellipse cx="1205.7" cy="404.2" rx="6" ry="17" transform="rotate(102.9 1205.7 404.2)" fill="none" stroke="#6fa49e" opacity=".75" /><ellipse cx="1192.8" cy="393.9" rx="6" ry="17" transform="rotate(154.3 1192.8 393.9)" fill="none" stroke="#6fa49e" opacity=".75" /><ellipse cx="1192.8" cy="377.4" rx="6" ry="17" transform="rotate(205.7 1192.8 377.4)" fill="none" stroke="#6fa49e" opacity=".75" /><ellipse cx="1205.7" cy="367.1" rx="6" ry="17" transform="rotate(257.1 1205.7 367.1)" fill="none" stroke="#6fa49e" opacity=".75" /><ellipse cx="1221.8" cy="370.8" rx="6" ry="17" transform="rotate(308.6 1221.8 370.8)" fill="none" stroke="#6fa49e" opacity=".75" /><circle cx="1209.9" cy="385.6" r="5" fill="#6fa49e" /><path d="M 1211.1 895 C 1131.1 710 1286.3 530 1286.3 541.0" fill="none" stroke="#acd1be" stroke-width="1" opacity=".7" /><ellipse cx="1305.3" cy="541.0" rx="6" ry="17" transform="rotate(0.0 1305.3 541.0)" fill="none" stroke="#acd1be" opacity=".75" /><ellipse cx="1298.1" cy="555.8" rx="6" ry="17" transform="rotate(51.4 1298.1 555.8)" fill="none" stroke="#acd1be" opacity=".75" /><ellipse cx="1282.0" cy="559.5" rx="6" ry="17" transform="rotate(102.9 1282.0 559.5)" fill="none" stroke="#acd1be" opacity=".75" /><ellipse cx="1269.1" cy="549.2" rx="6" ry="17" transform="rotate(154.3 1269.1 549.2)" fill="none" stroke="#acd1be" opacity=".75" /><ellipse cx="1269.1" cy="532.7" rx="6" ry="17" transform="rotate(205.7 1269.1 532.7)" fill="none" stroke="#acd1be" opacity=".75" /><ellipse cx="1282.0" cy="522.4" rx="6" ry="17" transform="rotate(257.1 1282.0 522.4)" fill="none" stroke="#acd1be" opacity=".75" /><ellipse cx="1298.1" cy="526.1" rx="6" ry="17" transform="rotate(308.6 1298.1 526.1)" fill="none" stroke="#acd1be" opacity=".75" /><circle cx="1286.3" cy="541.0" r="5" fill="#acd1be" /><path d="M 1258.7 895 C 1178.7 710 1183.3 530 1183.3 408.3" fill="none" stroke="#e4c388" stroke-width="1" opacity=".7" /><ellipse cx="1202.3" cy="408.3" rx="6" ry="17" transform="rotate(0.0 1202.3 408.3)" fill="none" stroke="#e4c388" opacity=".75" /><ellipse cx="1195.2" cy="423.1" rx="6" ry="17" transform="rotate(51.4 1195.2 423.1)" fill="none" stroke="#e4c388" opacity=".75" /><ellipse cx="1179.1" cy="426.8" rx="6" ry="17" transform="rotate(102.9 1179.1 426.8)" fill="none" stroke="#e4c388" opacity=".75" /><ellipse cx="1166.2" cy="416.5" rx="6" ry="17" transform="rotate(154.3 1166.2 416.5)" fill="none" stroke="#e4c388" opacity=".75" /><ellipse cx="1166.2" cy="400.0" rx="6" ry="17" transform="rotate(205.7 1166.2 400.0)" fill="none" stroke="#e4c388" opacity=".75" /><ellipse cx="1179.1" cy="389.8" rx="6" ry="17" transform="rotate(257.1 1179.1 389.8)" fill="none" stroke="#e4c388" opacity=".75" /><ellipse cx="1195.2" cy="393.4" rx="6" ry="17" transform="rotate(308.6 1195.2 393.4)" fill="none" stroke="#e4c388" opacity=".75" /><circle cx="1183.3" cy="408.3" r="5" fill="#e4c388" /><path d="M 1305.5 895 C 1225.5 710 1218.3 530 1218.3 160.0" fill="none" stroke="#ece5d3" stroke-width="1" opacity=".7" /><ellipse cx="1237.3" cy="160.0" rx="6" ry="17" transform="rotate(0.0 1237.3 160.0)" fill="none" stroke="#ece5d3" opacity=".75" /><ellipse cx="1230.1" cy="174.9" rx="6" ry="17" transform="rotate(51.4 1230.1 174.9)" fill="none" stroke="#ece5d3" opacity=".75" /><ellipse cx="1214.0" cy="178.5" rx="6" ry="17" transform="rotate(102.9 1214.0 178.5)" fill="none" stroke="#ece5d3" opacity=".75" /><ellipse cx="1201.1" cy="168.3" rx="6" ry="17" transform="rotate(154.3 1201.1 168.3)" fill="none" stroke="#ece5d3" opacity=".75" /><ellipse cx="1201.1" cy="151.8" rx="6" ry="17" transform="rotate(205.7 1201.1 151.8)" fill="none" stroke="#ece5d3" opacity=".75" /><ellipse cx="1214.0" cy="141.5" rx="6" ry="17" transform="rotate(257.1 1214.0 141.5)" fill="none" stroke="#ece5d3" opacity=".75" /><ellipse cx="1230.1" cy="145.2" rx="6" ry="17" transform="rotate(308.6 1230.1 145.2)" fill="none" stroke="#ece5d3" opacity=".75" /><circle cx="1218.3" cy="160.0" r="5" fill="#ece5d3" /><path d="M 1331.9 895 C 1251.9 710 1399.6 530 1399.6 349.0" fill="none" stroke="#6fa49e" stroke-width="1" opacity=".7" /><ellipse cx="1418.6" cy="349.0" rx="6" ry="17" transform="rotate(0.0 1418.6 349.0)" fill="none" stroke="#6fa49e" opacity=".75" /><ellipse cx="1411.4" cy="363.9" rx="6" ry="17" transform="rotate(51.4 1411.4 363.9)" fill="none" stroke="#6fa49e" opacity=".75" /><ellipse cx="1395.3" cy="367.5" rx="6" ry="17" transform="rotate(102.9 1395.3 367.5)" fill="none" stroke="#6fa49e" opacity=".75" /><ellipse cx="1382.5" cy="357.2" rx="6" ry="17" transform="rotate(154.3 1382.5 357.2)" fill="none" stroke="#6fa49e" opacity=".75" /><ellipse cx="1382.5" cy="340.8" rx="6" ry="17" transform="rotate(205.7 1382.5 340.8)" fill="none" stroke="#6fa49e" opacity=".75" /><ellipse cx="1395.3" cy="330.5" rx="6" ry="17" transform="rotate(257.1 1395.3 330.5)" fill="none" stroke="#6fa49e" opacity=".75" /><ellipse cx="1411.4" cy="334.1" rx="6" ry="17" transform="rotate(308.6 1411.4 334.1)" fill="none" stroke="#6fa49e" opacity=".75" /><circle cx="1399.6" cy="349.0" r="5" fill="#6fa49e" /><path d="M 1386.2 895 C 1306.2 710 1466.4 530 1466.4 468.5" fill="none" stroke="#acd1be" stroke-width="1" opacity=".7" /><ellipse cx="1485.4" cy="468.5" rx="6" ry="17" transform="rotate(0.0 1485.4 468.5)" fill="none" stroke="#acd1be" opacity=".75" /><ellipse cx="1478.2" cy="483.4" rx="6" ry="17" transform="rotate(51.4 1478.2 483.4)" fill="none" stroke="#acd1be" opacity=".75" /><ellipse cx="1462.1" cy="487.1" rx="6" ry="17" transform="rotate(102.9 1462.1 487.1)" fill="none" stroke="#acd1be" opacity=".75" /><ellipse cx="1449.2" cy="476.8" rx="6" ry="17" transform="rotate(154.3 1449.2 476.8)" fill="none" stroke="#acd1be" opacity=".75" /><ellipse cx="1449.2" cy="460.3" rx="6" ry="17" transform="rotate(205.7 1449.2 460.3)" fill="none" stroke="#acd1be" opacity=".75" /><ellipse cx="1462.1" cy="450.0" rx="6" ry="17" transform="rotate(257.1 1462.1 450.0)" fill="none" stroke="#acd1be" opacity=".75" /><ellipse cx="1478.2" cy="453.7" rx="6" ry="17" transform="rotate(308.6 1478.2 453.7)" fill="none" stroke="#acd1be" opacity=".75" /><circle cx="1466.4" cy="468.5" r="5" fill="#acd1be" /><path d="M 1418.8 895 C 1338.8 710 1323.6 530 1323.6 549.8" fill="none" stroke="#e4c388" stroke-width="1" opacity=".7" /><ellipse cx="1342.6" cy="549.8" rx="6" ry="17" transform="rotate(0.0 1342.6 549.8)" fill="none" stroke="#e4c388" opacity=".75" /><ellipse cx="1335.4" cy="564.7" rx="6" ry="17" transform="rotate(51.4 1335.4 564.7)" fill="none" stroke="#e4c388" opacity=".75" /><ellipse cx="1319.3" cy="568.4" rx="6" ry="17" transform="rotate(102.9 1319.3 568.4)" fill="none" stroke="#e4c388" opacity=".75" /><ellipse cx="1306.4" cy="558.1" rx="6" ry="17" transform="rotate(154.3 1306.4 558.1)" fill="none" stroke="#e4c388" opacity=".75" /><ellipse cx="1306.4" cy="541.6" rx="6" ry="17" transform="rotate(205.7 1306.4 541.6)" fill="none" stroke="#e4c388" opacity=".75" /><ellipse cx="1319.3" cy="531.3" rx="6" ry="17" transform="rotate(257.1 1319.3 531.3)" fill="none" stroke="#e4c388" opacity=".75" /><ellipse cx="1335.4" cy="535.0" rx="6" ry="17" transform="rotate(308.6 1335.4 535.0)" fill="none" stroke="#e4c388" opacity=".75" /><circle cx="1323.6" cy="549.8" r="5" fill="#e4c388" /></svg>